#N canvas 0 49 1920 1009 12;
#X obj -30 -30 preset_hub k12 1 %hidden%;
#N canvas 0 49 1920 1009 (subpatch) 0;
#X array wavetable-saw1 515 float 0 black black;
#X coords 0 1 514 -1 200 200 1;
#X scroll 1;
#X restore 500 100 graph;
#N canvas 0 0 450 300 (subpatch) 0;
#X array wavetable-saw2 515 float 0 black black;
#X coords 0 1 514 -1 200 200 1;
#X restore 710 100 graph;
#N canvas 0 0 450 300 (subpatch) 0;
#X array wavetable-saw3 515 float 0 black black;
#X coords 0 1 514 -1 200 200 1;
#X restore 920 100 graph;
#N canvas 0 0 450 300 (subpatch) 0;
#X array wavetable-saw4 515 float 0 black black;
#X coords 0 1 514 -1 200 200 1;
#X restore 1130 100 graph;
#N canvas 0 0 450 300 (subpatch) 0;
#X array wavetable-saw5 515 float 0 black black;
#X coords 0 1 514 -1 200 200 1;
#X restore 1340 100 graph;
#N canvas 0 0 450 300 (subpatch) 0;
#X array wavetable-saw6 515 float 0 black black;
#X coords 0 1 514 -1 200 200 1;
#X restore 1550 100 graph;
#N canvas 0 0 450 300 (subpatch) 0;
#X array wavetable-saw7 515 float 0 black black;
#X coords 0 1 514 -1 200 200 1;
#X restore 500 310 graph;
#N canvas 0 0 450 300 (subpatch) 0;
#X array wavetable-saw8 515 float 0 black black;
#X coords 0 1 514 -1 200 200 1;
#X restore 710 310 graph;
#N canvas 0 0 450 300 (subpatch) 0;
#X array wavetable-saw9 515 float 0 black black;
#X coords 0 1 514 -1 200 200 1;
#X restore 920 310 graph;
#N canvas 0 0 450 300 (subpatch) 0;
#X array wavetable-saw10 515 float 0 black black;
#X coords 0 1 514 -1 200 200 1;
#X restore 1130 310 graph;
#N canvas 0 0 450 300 (subpatch) 0;
#X array wavetable-saw11 515 float 0 black black;
#X coords 0 1 514 -1 200 200 1;
#X restore 1340 310 graph;
#X text 10 10 Sawtooth wavetables;
#X obj 130 410 soundfiler;
#X obj 100 131 bng 20 250 50 0 empty empty empty 17 7 0 10 #fcfcfc
#000000 #000000 1;
#X obj 100 100 inlet;
#X obj 100 440 outlet;
#X obj 100 160 trigger b b;
#X obj 190 630 r wavetable-size;
#X floatatom 100 660 5 0 0 1 Samples - - 0 0 1, f 5;
#X msg 100 630 16384;
#X obj 100 600 loadbang;
#X msg 130 220 read -resize \$1/saw1.wav wavetable-saw1 \, read -resize
\$1/saw2.wav wavetable-saw2 \, read -resize \$1/saw3.wav wavetable-saw3
\, read -resize \$1/saw4.wav wavetable-saw4 \, read -resize \$1/saw5.wav
wavetable-saw5 \, read -resize \$1/saw6.wav wavetable-saw6 \, read
-resize \$1/saw7.wav wavetable-saw7 \, read -resize \$1/saw8.wav wavetable-saw8
\, read -resize \$1/saw9.wav wavetable-saw9 \, read -resize \$1/saw10.wav
wavetable-saw10 \, read -resize \$1/saw11.wav wavetable-saw11 \,,
f 44;
#X obj 100 690 value \$0-size;
#X obj 130 190 value \$0-size;
#X connect 14 0 17 0;
#X connect 15 0 14 0;
#X connect 17 0 16 0;
#X connect 17 1 24 0;
#X connect 18 0 19 0;
#X connect 19 0 23 0;
#X connect 20 0 19 0;
#X connect 21 0 20 0;
#X connect 22 0 13 0;
#X connect 24 0 22 0;
