#N struct vac__voice float x float y float voice float note float velocity
float active float time float sustain float sustenuto float bg_color
float sustain_color float sustenuto_color;
#N struct vac__main float polyphony array voices vac__voice;
#N struct egui__main float x2 float y2 float dx float dy float view
array attack egui__breakpoint array release egui__breakpoint;
#N struct egui__breakpoint float x float y float prev_x float prev_y
float enabled float selected float value float duration float starttime
;
#N canvas 0 49 1920 1009 12;
#X obj -30 -30 preset_hub k12 1 %hidden%;
#N canvas 0 49 1920 1009 global_parameters 0;
#X obj 430 270 vsl 20 128 0 1 0 0 p-glb-volume empty empty 0 -11 0
12 #f0aa64 #a54141 #000000 12700 1 0 1;
#X msg 410 180 set \$1;
#X obj 840 270 vsl 20 128 0 1 0 0 in-expression empty empty 0 -11 0
12 #4078b4 #a5cdf8 #000000 12700 1 0 1;
#X msg 1030 180 set \$1;
#X obj 430 470 hsl 128 19 -1 1 0 0 p-glb-balance empty empty -2 -8
0 10 #f0aa64 #a54141 #000000 6350 1 0 1;
#X msg 450 570 set \$1;
#X floatatom 520 410 5 0 48 3 Pitchbend_Range - p-glb-pbrange 0 0 1
, f 5;
#X msg 560 180 set \$1;
#X floatatom 430 410 5 0 1 3 Volume - p-glb-volume 0 0 1, f 5;
#X floatatom 840 410 5 0 1 3 Expression - in-expression 0 0 1, f 5
;
#X floatatom 570 470 5 -1 1 3 Balance - p-glb-balance 0 0 1, f 5;
#X obj 660 270 vsl 20 128 -1 1 0 0 in-pitchbend empty empty 0 -9 0
10 #4078b4 #a5cdf8 #000000 6350 1 0 1;
#X msg 740 180 set \$1;
#X floatatom 659 410 5 -1 1 3 Pitchbend - in-pitchbend 0 0 1, f 5
;
#X obj 740 500 tgl 20 0 in-sustain empty Sustain 24 7 0 12 #fcfcfc
#be0000 #000000 0 0.598425 1;
#X obj 830 500 tgl 20 0 in-sustenuto empty Sustenuto 24 7 0 12 #fcfcfc
#be0000 #000000 0 1 1;
#X msg 680 570 set \$1;
#X msg 800 570 set \$1;
#X obj 750 270 vsl 20 128 0 1 0 0 in-modulation empty empty 0 -9 0
10 #4078b4 #a5cdf8 #000000 0 1 0 1;
#X floatatom 750 410 5 0 1 3 Modulation - in-modulation 0 0 1, f 5
;
#X msg 880 180 set \$1;
#X obj 420 240 cnv 15 220 15 empty empty Global\ Parameters 4 6 0 12
#e0e0e0 #404040 0;
#X obj 1100 270 loadbang;
#X obj 520 270 vsl 20 128 0 48 0 0 p-glb-pbrange empty empty 0 -9 0
10 #2f6036 #a6c5a6 #000000 529 1 0 1;
#X obj 650 240 cnv 15 270 15 empty empty Input\ Monitor 4 6 0 12 #e0e0e0
#404040 0;
#X obj 410 150 r p-glb-volume;
#X obj 560 150 r p-glb-pbrange;
#X obj 740 150 r in-pitchbend;
#X obj 880 150 r in-modulation;
#X obj 1030 150 r in-expression;
#X obj 680 540 r in-sustain;
#X obj 800 540 r in-sustenuto;
#X msg 1100 300 \; in-expression 1 \; in-pitchbend 0 \; in-modulation
0 \; in-sustain 0 \; in-sustenuto 0 \;;
#X obj 300 270 vu 15 200 empty empty -1 -8 0 10 #404040 #000000 1 0
;
#X obj 180 150 r out-vu-rms1;
#X obj 180 180 r out-vu-rms2;
#X obj 360 270 vu 15 200 empty empty -1 -8 0 10 #404040 #000000 1 0
;
#X obj 290 150 r out-vu-peak1;
#X obj 290 180 r out-vu-peak2;
#X obj 290 240 cnv 15 120 15 empty empty Audio\ Output 4 6 0 12 #e0e0e0
#404040 0;
#X floatatom 300 480 5 -100 36 3 Master_Volume - p-out-mastervolume
0 0 1, f 5;
#X text 340 480 dB;
#X obj 110 420 r p-out-mastervolume;
#X msg 110 449 set \$1;
#X obj 450 540 r p-glb-balance;
#X connect 1 0 8 0;
#X connect 1 0 0 0;
#X connect 3 0 9 0;
#X connect 3 0 2 0;
#X connect 5 0 10 0;
#X connect 5 0 4 0;
#X connect 7 0 23 0;
#X connect 7 0 6 0;
#X connect 12 0 11 0;
#X connect 12 0 13 0;
#X connect 16 0 14 0;
#X connect 17 0 15 0;
#X connect 18 0 19 0;
#X connect 20 0 18 0;
#X connect 20 0 19 0;
#X connect 22 0 32 0;
#X connect 25 0 1 0;
#X connect 26 0 7 0;
#X connect 27 0 12 0;
#X connect 28 0 20 0;
#X connect 29 0 3 0;
#X connect 30 0 16 0;
#X connect 31 0 17 0;
#X connect 34 0 33 0;
#X connect 35 0 36 0;
#X connect 37 0 33 1;
#X connect 38 0 36 1;
#X connect 42 0 43 0;
#X connect 43 0 40 0;
#X connect 44 0 5 0;
#X coords 0 -1 1 1 650 300 2 280 230;
#X restore 10 80 pd global_parameters;
#N canvas 0 49 1920 1009 fx_parameters 0;
#X obj 880 280 vsl 20 128 0 100 0 0 p-rev-length empty empty 0 -11
0 12 #f4f4d7 #dd9e55 #000000 4191 1 0 1;
#X msg 970 200 set \$1;
#X floatatom 880 420 5 0 100 3 Length - p-rev-length 0 0 1, f 5;
#X obj 1590 379 loadbang;
#X obj 860 250 cnv 15 270 15 empty empty Reverb 4 6 0 12 #e0e0e0 #404040
0;
#X text 920 420 %;
#X obj 960 280 vsl 20 128 0 9999 0 0 p-rev-crossover empty empty 0
-11 0 12 #f4f4d7 #dd9e55 #000000 3810 1 0 1;
#X msg 1110 200 set \$1;
#X floatatom 960 420 5 0 9999 3 Crossover - p-rev-crossover 0 0 1,
f 5;
#X text 1000 420 Hz;
#X obj 1040 280 vsl 20 128 0 100 0 0 p-rev-hfdamping empty empty 0
-11 0 12 #f4f4d7 #dd9e55 #000000 0 1 0 1;
#X msg 1270 200 set \$1;
#X floatatom 1040 420 5 0 20000 3 HF_Damping - p-rev-hfdamping 0 0
1, f 5;
#X text 1080 420 %;
#X obj 880 480 hsl 128 19 -1 1 0 0 p-rev-drywet empty empty -2 -8 0
10 #fbf6b1 #bda76b #000000 11112 1 0 1;
#X msg 1160 510 set \$1;
#X floatatom 1020 480 5 -1 1 3 Dry/Wet - p-rev-drywet 0 0 1, f 5;
#X obj 690 280 vsl 20 128 0 20 0 0 p-cho-width empty empty 0 -11 0
12 #d7def4 #5555dc #000000 1143 1 0 1;
#X msg 730 200 set \$1;
#X floatatom 690 420 5 0 20 3 Width - p-cho-width 0 0 1, f 5;
#X obj 490 250 cnv 15 360 15 empty empty Chorus 4 6 0 12 #e0e0e0 #404040
0;
#X obj 510 280 vsl 20 128 0 20 0 0 p-cho-frequency empty empty 0 -11
0 12 #d7def4 #5555dc #000000 952 1 0 1;
#X msg 470 200 set \$1;
#X floatatom 510 420 5 0 20 3 Frequency - p-cho-frequency 0 0 1, f
5;
#X text 550 420 Hz;
#X obj 510 480 hsl 128 19 -1 1 0 0 p-cho-drywet empty empty -2 -8 0
10 #98acdd #516594 #000000 11112 1 0 1;
#X msg 350 490 set \$1;
#X floatatom 650 480 5 -1 1 3 Dry/Wet - p-cho-drywet 0 0 1, f 5;
#X obj 780 280 vsl 20 128 0 100 0 0 p-cho-feedback empty empty 0 -11
0 12 #d7def4 #5555dc #000000 0 1 0 1;
#X msg 840 200 set \$1;
#X floatatom 780 420 5 0 100 3 Feedback - p-cho-feedback 0 0 1, f
5;
#X text 820 420 %;
#X obj 880 510 tgl 20 0 p-rev-enabled empty Reverb\ enabled 24 7 0
12 #fcfcfc #000000 #000000 1 1 1;
#X msg 920 580 set \$1;
#X obj 510 510 tgl 20 0 p-cho-enabled empty Chorus\ enabled 24 7 0
12 #fcfcfc #000000 #000000 1 1 1;
#X msg 540 579 set \$1;
#X obj 1590 180 loadbang;
#X obj 470 170 r p-cho-frequency;
#X obj 730 170 r p-cho-width;
#X obj 840 170 r p-cho-feedback;
#X obj 970 170 r p-rev-length;
#X obj 1110 170 r p-rev-crossover;
#X obj 1270 170 r p-rev-hfdamping;
#X obj 350 460 r p-cho-drywet;
#X obj 540 550 r p-cho-enabled;
#X obj 1160 480 r p-rev-drywet;
#X obj 920 550 r p-rev-enabled;
#X msg 1590 409 \; p-rev-length 33 \; p-rev-crossover 3000 \; p-rev-hfdamping
20 \; p-rev-drywet 0 \; p-rev-enabled 1 \;;
#X text 730 420 ms;
#X obj 600 280 vsl 20 128 0 30 0 0 p-cho-delay empty empty 0 -11 0
12 #d7def4 #5555dc #000000 12700 1 0 1;
#X msg 620 200 set \$1;
#X floatatom 600 420 5 0 30 3 Delay - p-cho-delay 0 0 1, f 5;
#X text 640 420 ms;
#X obj 620 170 r p-cho-delay;
#X msg 1590 209 \; p-cho-frequency 1.5 \; p-cho-delay 30 \; p-cho-width
1.8 \; p-cho-feedback 0 \; p-cho-drywet 0.75 \; p-cho-enabled 1 \;
;
#X connect 1 0 0 0;
#X connect 1 0 2 0;
#X connect 3 0 47 0;
#X connect 7 0 8 0;
#X connect 7 0 6 0;
#X connect 11 0 10 0;
#X connect 11 0 12 0;
#X connect 15 0 16 0;
#X connect 15 0 14 0;
#X connect 18 0 17 0;
#X connect 18 0 19 0;
#X connect 22 0 21 0;
#X connect 22 0 23 0;
#X connect 26 0 27 0;
#X connect 26 0 25 0;
#X connect 29 0 28 0;
#X connect 29 0 30 0;
#X connect 33 0 32 0;
#X connect 35 0 34 0;
#X connect 36 0 54 0;
#X connect 37 0 22 0;
#X connect 38 0 18 0;
#X connect 39 0 29 0;
#X connect 40 0 1 0;
#X connect 41 0 7 0;
#X connect 42 0 11 0;
#X connect 43 0 26 0;
#X connect 44 0 35 0;
#X connect 45 0 15 0;
#X connect 46 0 33 0;
#X connect 50 0 49 0;
#X connect 50 0 51 0;
#X connect 53 0 50 0;
#X coords 0 -1 1 1 660 300 2 480 240;
#X restore 670 80 pd fx_parameters;
#N canvas 0 49 1920 1009 dsp 0;
#X obj 0 0 cnv 15 1320 60 empty empty Unicorn\ Wave 20 23 0 30 #144678
#f5f5f5 0;
#X obj 970 18 bng 25 250 50 0 cmd-load-preset empty Load\ Preset 30
10 0 15 #144678 #79d9ec #f5f5f5 1;
#X obj 810 18 bng 25 250 50 0 cmd-save-preset empty Save\ Preset 30
10 0 15 #144678 #79d9ec #f5f5f5 1;
#X obj 10 80 ./main1;
#X text 100 80 <-- Synth enginge + preset handling;
#X obj 1130 18 bng 25 250 50 0 cmd-reset-parameters empty Reset\ Parameters
30 10 0 15 #144678 #79d9ec #f5f5f5 1;
#X coords 0 -1 1 1 1320 60 2 0 0;
#X restore 10 10 pd dsp;
#N canvas 0 49 1920 1009 partial_parameters 1;
#X obj 700 400 cnv 15 1320 30 empty empty Synthesizer\ Parameters 12
12 0 14 #144678 #f5f5f5 0;
#X msg 580 380 set \$1;
#X obj 710 520 hsl 128 19 -1 1 0 0 p-p0-panorama empty empty -2 -8
0 10 #f0aa64 #a54141 #000000 6350 1 0 1;
#X msg 580 450 set \$1;
#X floatatom 850 470 5 0 10 3 Volume - p-p0-volume 0 0 1, f 5;
#X floatatom 850 520 5 -1 1 3 Panorama - p-p0-panorama 0 0 1, f 5
;
#X obj 710 440 cnv 15 250 15 empty empty Global\ Parameters 4 6 0 12
#e0e0e0 #404040 0;
#X obj 580 350 r p-p0-volume;
#X obj 710 470 hsl 128 19 0 10 0 0 p-p0-volume empty empty -2 -8 0
10 #f0aa64 #a54141 #000000 1270 1 0 1;
#X obj 970 440 cnv 15 620 15 empty empty Carrier 4 6 0 12 #e0e0e0 #404040
0;
#X obj 1060 530 vsl 20 128 0 1 0 0 p-p0-car1-volume empty empty 0 -9
0 10 #cdafaf #825050 #000000 8000 1 0 1;
#X msg 1060 270 set \$1;
#X obj 1060 240 r p-p0-car1-volume;
#X floatatom 1060 670 5 0 1 3 - - p-p0-car1-volume 0 0 1, f 5;
#X obj 1060 500 tgl 20 0 p-p0-car1-enabled empty empty 0 27 0 12 #ffffff
#000000 #000000 1 1 1;
#X text 980 530 Volume;
#X text 980 500 Enabled;
#X msg 1060 200 set \$1;
#X obj 1060 170 r p-p0-car1-enabled;
#X obj 1120 530 vsl 20 128 0 1 0 0 p-p0-car2-volume empty empty 0 -9
0 10 #cdafaf #825050 #000000 0 1 0 1;
#X msg 1240 270 set \$1;
#X floatatom 1120 670 5 0 1 3 - - p-p0-car2-volume 0 0 1, f 5;
#X obj 1120 500 tgl 20 0 p-p0-car2-enabled empty empty 0 27 0 12 #ffffff
#000000 #000000 0 1 1;
#X msg 1240 200 set \$1;
#X obj 1180 530 vsl 20 128 0 1 0 0 p-p0-car3-volume empty empty 0 -9
0 10 #cdafaf #825050 #000000 0 1 0 1;
#X msg 1410 270 set \$1;
#X floatatom 1180 670 5 0 1 3 - - p-p0-car3-volume 0 0 1, f 5;
#X obj 1180 500 tgl 20 0 p-p0-car3-enabled empty empty 0 27 0 12 #ffffff
#000000 #000000 0 1 1;
#X msg 1410 200 set \$1;
#X obj 1240 530 vsl 21 128 0 1 0 0 p-p0-car4-volume empty empty 0 -9
0 10 #cdafaf #825050 #000000 0 1 0 1;
#X msg 1580 270 set \$1;
#X floatatom 1240 670 5 0 1 3 - - p-p0-car4-volume 0 0 1, f 5;
#X obj 1240 500 tgl 20 0 p-p0-car4-enabled empty empty 0 27 0 12 #ffffff
#000000 #000000 0 1 1;
#X msg 1580 200 set \$1;
#X obj 1300 530 vsl 20 128 0 1 0 0 p-p0-car5-volume empty empty 0 -9
0 10 #cdafaf #825050 #000000 0 1 0 1;
#X msg 1750 270 set \$1;
#X floatatom 1300 670 5 0 1 3 - - p-p0-car5-volume 0 0 1, f 5;
#X obj 1300 500 tgl 20 0 p-p0-car5-enabled empty empty 0 27 0 12 #ffffff
#000000 #000000 0 1 1;
#X msg 1750 200 set \$1;
#X obj 1360 530 vsl 20 128 0 1 0 0 p-p0-car6-volume empty empty 0 -9
0 10 #cdafaf #825050 #000000 0 1 0 1;
#X msg 1930 270 set \$1;
#X floatatom 1360 670 5 0 1 3 - - p-p0-car6-volume 0 0 1, f 5;
#X obj 1360 500 tgl 20 0 p-p0-car6-enabled empty empty 0 27 0 12 #ffffff
#000000 #000000 0 1 1;
#X msg 1930 200 set \$1;
#X obj 1420 530 vsl 20 128 0 1 0 0 p-p0-car7-volume empty empty 0 -9
0 10 #cdafaf #825050 #000000 0 1 0 1;
#X msg 2100 270 set \$1;
#X floatatom 1420 670 5 0 1 3 - - p-p0-car7-volume 0 0 1, f 5;
#X obj 1420 500 tgl 20 0 p-p0-car7-enabled empty empty 0 27 0 12 #ffffff
#000000 #000000 0 1 1;
#X msg 2100 200 set \$1;
#X obj 1480 530 vsl 20 128 0 1 0 0 p-p0-car8-volume empty empty 0 -9
0 10 #cdafaf #825050 #000000 0 1 0 1;
#X msg 2270 270 set \$1;
#X floatatom 1480 670 5 0 1 3 - - p-p0-car8-volume 0 0 1, f 5;
#X obj 1480 500 tgl 20 0 p-p0-car8-enabled empty empty 0 27 0 12 #ffffff
#000000 #000000 0 1 1;
#X msg 2270 200 set \$1;
#X obj 1240 240 r p-p0-car2-volume;
#X obj 1240 170 r p-p0-car2-enabled;
#X obj 1410 240 r p-p0-car3-volume;
#X obj 1410 170 r p-p0-car3-enabled;
#X obj 1580 240 r p-p0-car4-volume;
#X obj 1580 170 r p-p0-car4-enabled;
#X obj 1750 240 r p-p0-car5-volume;
#X obj 1750 170 r p-p0-car5-enabled;
#X obj 1930 240 r p-p0-car6-volume;
#X obj 1930 170 r p-p0-car6-enabled;
#X obj 2100 240 r p-p0-car7-volume;
#X obj 2100 170 r p-p0-car7-enabled;
#X obj 2270 240 r p-p0-car8-volume;
#X obj 2270 170 r p-p0-car8-enabled;
#X obj 1060 700 vradio 20 0 0 4 p-p0-car1-waveform empty empty 0 -8
0 10 #ffffff #000000 #000000 0 1;
#X text 980 700 Sine;
#X text 980 740 Square;
#X obj 1120 700 vradio 20 0 0 4 p-p0-car2-waveform empty empty 0 -8
0 10 #ffffff #000000 #000000 0 1;
#X obj 1180 700 vradio 20 0 0 4 p-p0-car3-waveform empty empty 0 -8
0 10 #ffffff #000000 #000000 0 1;
#X obj 1240 700 vradio 20 0 0 4 p-p0-car4-waveform empty empty 0 -8
0 10 #ffffff #000000 #000000 0 1;
#X obj 1300 700 vradio 20 0 0 4 p-p0-car5-waveform empty empty 0 -8
0 10 #ffffff #000000 #000000 0 1;
#X obj 1360 700 vradio 20 0 0 4 p-p0-car6-waveform empty empty 0 -8
0 10 #ffffff #000000 #000000 0 1;
#X obj 1420 700 vradio 20 0 0 4 p-p0-car7-waveform empty empty 0 -8
0 10 #ffffff #000000 #000000 0 1;
#X obj 1480 700 vradio 20 0 0 4 p-p0-car8-waveform empty empty 0 -8
0 10 #ffffff #000000 #000000 0 1;
#X msg 1060 340 set \$1;
#X obj 1060 310 r p-p0-car1-waveform;
#X msg 1240 340 set \$1;
#X msg 1410 340 set \$1;
#X msg 1580 340 set \$1;
#X msg 1750 340 set \$1;
#X msg 1930 340 set \$1;
#X msg 2100 340 set \$1;
#X msg 2270 340 set \$1;
#X obj 1240 310 r p-p0-car2-waveform;
#X obj 1410 310 r p-p0-car3-waveform;
#X obj 1580 310 r p-p0-car4-waveform;
#X obj 1750 310 r p-p0-car5-waveform;
#X obj 1930 310 r p-p0-car6-waveform;
#X obj 2100 310 r p-p0-car7-waveform;
#X obj 2270 310 r p-p0-car8-waveform;
#X text 980 670 Volume;
#X obj 1600 440 cnv 15 410 15 empty empty Modulator 4 6 0 12 #e0e0e0
#404040 0;
#X obj 1610 530 vsl 20 128 0 1 0 0 p-p0-mod1-volume empty empty 0 -9
0 10 #f5f5be #969600 #000000 12700 1 0 1;
#X msg 2670 270 set \$1;
#X floatatom 1610 670 5 0 1 3 - - p-p0-mod1-volume 0 0 1, f 5;
#X obj 1610 500 tgl 20 0 p-p0-mod1-enabled empty empty 0 27 0 12 #ffffff
#000000 #000000 1 1 1;
#X msg 2670 200 set \$1;
#X obj 1671 530 vsl 20 128 0 1 0 0 p-p0-mod2-volume empty empty 0 -9
0 10 #f5f5be #969600 #000000 0 1 0 1;
#X msg 2850 270 set \$1;
#X floatatom 1671 670 5 0 1 3 - - p-p0-mod2-volume 0 0 1, f 5;
#X obj 1670 500 tgl 20 0 p-p0-mod2-enabled empty empty 0 27 0 12 #ffffff
#000000 #000000 0 1 1;
#X msg 2850 200 set \$1;
#X obj 1730 530 vsl 20 128 0 1 0 0 p-p0-mod3-volume empty empty 0 -9
0 10 #f5f5be #969600 #000000 0 1 0 1;
#X msg 3020 270 set \$1;
#X floatatom 1730 670 5 0 1 3 - - p-p0-mod3-volume 0 0 1, f 5;
#X obj 1730 500 tgl 20 0 p-p0-mod3-enabled empty empty 0 27 0 12 #ffffff
#000000 #000000 0 1 1;
#X msg 3020 200 set \$1;
#X obj 1790 530 vsl 20 128 0 1 0 0 p-p0-mod4-volume empty empty 0 -9
0 10 #f5f5be #969600 #000000 0 1 0 1;
#X msg 3190 270 set \$1;
#X floatatom 1790 670 5 0 1 3 - - p-p0-mod4-volume 0 0 1, f 5;
#X obj 1790 500 tgl 20 0 p-p0-mod4-enabled empty empty 0 27 0 12 #ffffff
#000000 #000000 0 1 1;
#X msg 3190 200 set \$1;
#X obj 1610 700 vradio 20 0 0 4 p-p0-mod1-waveform empty empty 0 -8
0 10 #ffffff #000000 #000000 0 1;
#X obj 1670 700 vradio 20 0 0 4 p-p0-mod2-waveform empty empty 0 -8
0 10 #ffffff #000000 #000000 0 1;
#X obj 1730 700 vradio 20 0 0 4 p-p0-mod3-waveform empty empty 0 -8
0 10 #ffffff #000000 #000000 0 1;
#X obj 1790 700 vradio 20 0 0 4 p-p0-mod4-waveform empty empty 0 -8
0 10 #ffffff #000000 #000000 0 1;
#X msg 2670 340 set \$1;
#X msg 2850 340 set \$1;
#X msg 3020 340 set \$1;
#X msg 3190 340 set \$1;
#X obj 2670 170 r p-p0-mod1-enabled;
#X obj 2850 170 r p-p0-mod2-enabled;
#X obj 3020 170 r p-p0-mod3-enabled;
#X obj 3190 170 r p-p0-mod4-enabled;
#X obj 3192 239 r p-p0-mod4-volume;
#X obj 3022 239 r p-p0-mod3-volume;
#X obj 2850 240 r p-p0-mod2-volume;
#X obj 2672 239 r p-p0-mod1-volume;
#X obj 2670 310 r p-p0-mod1-waveform;
#X obj 2850 310 r p-p0-mod2-waveform;
#X obj 3022 309 r p-p0-mod3-waveform;
#X obj 3190 310 r p-p0-mod4-waveform;
#X text 980 470 Harmonic;
#X text 1060 470 1;
#X text 1120 470 2;
#X text 1180 470 3;
#X text 1240 470 4;
#X text 1300 470 5;
#X text 1360 470 6;
#X text 1420 470 7;
#X text 1480 470 8;
#X text 1610 470 1;
#X text 1670 470 2;
#X text 1730 470 3;
#X text 1790 470 4;
#X obj 710 570 hsl 128 19 -24 24 0 0 p-p0-transpose empty empty -2
-8 0 10 #aae1eb #4155a5 #000000 6350 1 0 1;
#X msg 580 520 set \$1;
#X floatatom 850 570 5 -24 24 3 Transpose - p-p0-transpose 0 0 1,
f 5;
#X obj 580 490 r p-p0-transpose;
#X obj 1540 530 vsl 20 128 0 1 0 0 p-p0-car-noise-volume empty empty
0 -9 0 10 #faebeb #bf7d7d #000000 0 1 0 1;
#X msg 2440 270 set \$1;
#X floatatom 1540 670 5 0 1 3 - - p-p0-car-noise-volume 0 0 1, f 5
;
#X obj 1540 500 tgl 20 0 p-p0-car-noise-enabled empty empty 0 27 0
12 #ffffff #000000 #000000 0 1 1;
#X msg 2440 200 set \$1;
#X obj 2440 170 r p-p0-car-noise-enabled;
#X obj 2440 240 r p-p0-car-noise-volume;
#X text 1540 470 Noise;
#X obj 1850 530 vsl 20 128 0 1 0 0 p-p0-mod-noise-volume empty empty
0 -9 0 10 #f9f9d7 #a6a64e #000000 0 1 0 1;
#X msg 3360 270 set \$1;
#X floatatom 1850 670 5 0 1 3 - - p-p0-mod-noise-volume 0 0 1, f 5
;
#X obj 1850 500 tgl 20 0 p-p0-mod-noise-enabled empty empty 0 27 0
12 #ffffff #000000 #000000 0 1 1;
#X msg 3360 200 set \$1;
#X text 1850 470 Noise;
#X obj 3360 170 r p-p0-mod-noise-enabled;
#X obj 3362 239 r p-p0-mod-noise-volume;
#X text 980 760 Triangle;
#X msg 740 230 set \$1;
#X floatatom 1060 800 5 0 10 3 Frequency - p-p0-car-frequency 0 0 1
, f 5;
#X obj 740 200 r p-p0-car-frequency;
#X msg 900 230 set \$1;
#X floatatom 1150 800 5 0 0 3 Detune - p-p0-car-detune 0 0 1, f 5
;
#X obj 900 200 r p-p0-car-detune;
#X msg 2040 690 set \$1;
#X floatatom 1610 800 5 0 1 3 Volume - p-p0-mod-volume 0 0 1, f 5
;
#X msg 2040 770 set \$1;
#X floatatom 1680 800 5 0 10 3 Frequency - p-p0-mod-frequency 0 0 1
, f 5;
#X msg 2210 770 set \$1;
#X floatatom 1770 800 5 0 0 3 Detune - p-p0-mod-detune 0 0 1, f 5
;
#X obj 2040 660 r p-p0-mod-volume;
#X obj 2040 740 r p-p0-mod-frequency;
#X obj 2210 740 r p-p0-mod-detune;
#X obj 710 620 hsl 128 19 -100 100 0 0 p-p0-detune empty empty -2 -8
0 10 #aae1eb #4155a5 #000000 6350 1 0 1;
#X msg 580 590 set \$1;
#X floatatom 850 620 5 -100 100 3 Detune - p-p0-detune 0 0 1, f 5
;
#X obj 580 560 r p-p0-detune;
#X text 890 620 Cents;
#X text 980 720 Sawtooth;
#X obj 580 420 r p-p0-panorama;
#X text 1190 800 Hz;
#X text 1810 800 Hz;
#X obj 710 680 cnv 15 250 15 empty empty Filters 4 7 0 12 #e0e0e0 #404040
0;
#X msg 490 660 set \$1;
#X floatatom 850 720 5 0 20 3 Cutoff - p-p0-car-flt-cutoff 0 0 1,
f 5;
#X msg 490 730 set \$1;
#X floatatom 850 770 5 0 1 3 Q - p-p0-car-flt-qfactor 0 0 1, f 5;
#X obj 490 630 r p-p0-car-flt-cutoff;
#X obj 490 700 r p-p0-car-flt-qfactor;
#X msg 490 800 set \$1;
#X obj 490 770 r p-p0-car-flt-type;
#X msg 490 880 set \$1;
#X floatatom 850 830 5 0 20 3 Cutoff - p-p0-mod-flt-cutoff 0 0 1,
f 5;
#X msg 490 950 set \$1;
#X floatatom 850 880 5 0 1 3 Q - p-p0-mod-flt-qfactor 0 0 1, f 5;
#X msg 490 1020 set \$1;
#X obj 490 990 r p-p0-mod-flt-type;
#X obj 490 850 r p-p0-mod-flt-cutoff;
#X obj 490 920 r p-p0-mod-flt-qfactor;
#X obj 910 720 vradio 20 0 0 4 p-p0-car-flt-type empty empty 0 -8 0
10 #fcfcfc #000000 #000000 0 1;
#X text 940 720 NO;
#X text 940 740 LP;
#X text 940 760 HP;
#X text 940 780 BP;
#X text 710 700 Carrier;
#X obj 910 830 vradio 20 0 0 4 p-p0-mod-flt-type empty empty 0 -8 0
10 #fcfcfc #000000 #000000 0 1;
#X text 940 830 NO;
#X text 940 850 LP;
#X text 940 870 HP;
#X text 940 890 BP;
#X obj 710 720 hsl 128 20 0.1 10 1 0 p-p0-car-flt-cutoff empty empty
-2 -8 0 10 #d7e6be #286024 #000000 12700 1 0 1;
#X obj 710 770 hsl 128 20 0 1 0 0 p-p0-car-flt-qfactor empty empty
-2 -8 0 10 #d7e6be #286024 #000000 12700 1 0 1;
#X obj 710 830 hsl 128 20 0.1 10 1 0 p-p0-mod-flt-cutoff empty empty
-2 -8 0 10 #d7e6be #286024 #000000 0 1 0 1;
#X text 710 810 Modulator;
#X obj 710 880 hsl 128 20 0 1 0 0 p-p0-mod-flt-qfactor empty empty
-2 -8 0 10 #d7e6be #286024 #000000 0 1 0 1;
#X obj 10 60 r pre-init;
#X obj 10 90 bng 20 250 50 0 empty empty empty 17 7 0 10 #fcfcfc #000000
#000000 1;
#X obj 10 10 ./envgen/envgen-gui-structs;
#X obj 10 120 s egui-initialize;
#X connect 1 0 8 0;
#X connect 1 0 4 0;
#X connect 3 0 5 0;
#X connect 3 0 2 0;
#X connect 7 0 1 0;
#X connect 11 0 10 0;
#X connect 11 0 13 0;
#X connect 12 0 11 0;
#X connect 17 0 14 0;
#X connect 18 0 17 0;
#X connect 20 0 19 0;
#X connect 20 0 21 0;
#X connect 23 0 22 0;
#X connect 25 0 24 0;
#X connect 25 0 26 0;
#X connect 28 0 27 0;
#X connect 30 0 29 0;
#X connect 30 0 31 0;
#X connect 33 0 32 0;
#X connect 35 0 34 0;
#X connect 35 0 36 0;
#X connect 38 0 37 0;
#X connect 40 0 41 0;
#X connect 40 0 39 0;
#X connect 43 0 42 0;
#X connect 45 0 44 0;
#X connect 45 0 46 0;
#X connect 48 0 47 0;
#X connect 50 0 51 0;
#X connect 50 0 49 0;
#X connect 53 0 52 0;
#X connect 54 0 20 0;
#X connect 55 0 23 0;
#X connect 56 0 25 0;
#X connect 57 0 28 0;
#X connect 58 0 30 0;
#X connect 59 0 33 0;
#X connect 60 0 35 0;
#X connect 61 0 38 0;
#X connect 62 0 40 0;
#X connect 63 0 43 0;
#X connect 64 0 45 0;
#X connect 65 0 48 0;
#X connect 66 0 50 0;
#X connect 67 0 53 0;
#X connect 78 0 68 0;
#X connect 79 0 78 0;
#X connect 80 0 71 0;
#X connect 81 0 72 0;
#X connect 82 0 73 0;
#X connect 83 0 74 0;
#X connect 84 0 75 0;
#X connect 85 0 76 0;
#X connect 86 0 77 0;
#X connect 87 0 80 0;
#X connect 88 0 81 0;
#X connect 89 0 82 0;
#X connect 90 0 83 0;
#X connect 91 0 84 0;
#X connect 92 0 85 0;
#X connect 93 0 86 0;
#X connect 97 0 96 0;
#X connect 97 0 98 0;
#X connect 100 0 99 0;
#X connect 102 0 101 0;
#X connect 102 0 103 0;
#X connect 105 0 104 0;
#X connect 107 0 106 0;
#X connect 107 0 108 0;
#X connect 110 0 109 0;
#X connect 112 0 111 0;
#X connect 112 0 113 0;
#X connect 115 0 114 0;
#X connect 120 0 116 0;
#X connect 121 0 117 0;
#X connect 122 0 118 0;
#X connect 123 0 119 0;
#X connect 124 0 100 0;
#X connect 125 0 105 0;
#X connect 126 0 110 0;
#X connect 127 0 115 0;
#X connect 128 0 112 0;
#X connect 129 0 107 0;
#X connect 130 0 102 0;
#X connect 131 0 97 0;
#X connect 132 0 120 0;
#X connect 133 0 121 0;
#X connect 134 0 122 0;
#X connect 135 0 123 0;
#X connect 150 0 151 0;
#X connect 150 0 149 0;
#X connect 152 0 150 0;
#X connect 154 0 155 0;
#X connect 154 0 153 0;
#X connect 157 0 156 0;
#X connect 158 0 157 0;
#X connect 159 0 154 0;
#X connect 162 0 161 0;
#X connect 162 0 163 0;
#X connect 165 0 164 0;
#X connect 167 0 165 0;
#X connect 168 0 162 0;
#X connect 170 0 171 0;
#X connect 172 0 170 0;
#X connect 173 0 174 0;
#X connect 175 0 173 0;
#X connect 176 0 177 0;
#X connect 178 0 179 0;
#X connect 180 0 181 0;
#X connect 182 0 176 0;
#X connect 183 0 178 0;
#X connect 184 0 180 0;
#X connect 186 0 187 0;
#X connect 186 0 185 0;
#X connect 188 0 186 0;
#X connect 191 0 3 0;
#X connect 195 0 196 0;
#X connect 195 0 222 0;
#X connect 197 0 198 0;
#X connect 197 0 223 0;
#X connect 199 0 195 0;
#X connect 200 0 197 0;
#X connect 201 0 211 0;
#X connect 202 0 201 0;
#X connect 203 0 204 0;
#X connect 205 0 206 0;
#X connect 207 0 217 0;
#X connect 208 0 207 0;
#X connect 209 0 203 0;
#X connect 210 0 205 0;
#X connect 227 0 228 0;
#X connect 228 0 230 0;
#X coords 0 -1 1 1 1320 530 2 700 400;
#X restore 10 390 pd partial_parameters;
#X text 1370 430 TODO: Carrier A.Env/F.Env \, modulator A.Env/F.Env
;
#X text 1370 460 TODO: LFOs;
#X text 1370 490 TODO: Debug aliasing issues!;
#X text 1370 400 TODO: Debug env.gens. (100% CPU + not working yet)
;
