#N canvas 0 49 1920 1009 12;
#X obj -30 -30 preset_hub k12 1 %hidden%;
#X obj 290 300 inlet;
#X obj 290 1050 phasor~;
#X obj 290 1290 tabread4~;
#X obj 0 30 cnv 15 600 180 empty empty empty 20 12 0 14 #f5f5f5 #404040
0;
#X text 10 80 \$3 must be the number of wavetables (e.g. 11 for 1/octave)
\, starting with one., f 82;
#X obj 0 0 cnv 15 600 30 empty empty Single\ carrier/modulator\ oscillator
12 12 0 14 #e0e0e0 #404040 0;
#X obj 0 210 cnv 10 600 10 empty empty empty 20 12 0 14 #e0e0e0 #404040
0;
#X text 10 130 The second inlet takes an optional modulator audio signal
for FM., f 82;
#X text 10 160 For this to work \, the synthesizer must have calcualted
the carrier and modulator wavetables with the wanted harmonics., f
82;
#X obj 390 1060 inlet~;
#X text 390 1030 Modulator Signal;
#X text 10 40 \$1 must be the prefix to receive parameters \, e.g.
"p-p1-car", f 82;
#X floatatom 390 450 5 0 0 1 Frequency_Factor - - 0 0 1, f 5;
#X floatatom 390 600 5 0 0 1 Hz - - 0 0 1, f 5;
#X text 390 510 Detune;
#X obj 390 540 r \$1-detune;
#X text 390 360 Frequency Scaling;
#X obj 290 1340 outlet~;
#X obj 290 490 *;
#X msg 390 1250 set \$1;
#X obj 390 1220 r \$0-wavetable;
#X text 390 1190 Selected Wavetable;
#X msg 390 1280 p0-modulator-5;
#X floatatom 290 670 5 0 0 1 Hz - - 0 0 1, f 5;
#X obj 290 740 trigger f f;
#X text 290 250 Frequency;
#X obj 620 20 loadbang;
#X obj 620 80 expr ceil(float(128) / 12 / \$3);
#X floatatom 620 110 5 0 0 1 Octaves/Wavetable - - 0 0 1, f 5;
#X obj 620 50 bng 20 250 50 0 empty empty empty 17 7 0 10 #fcfcfc #000000
#000000 1;
#X obj 320 770 ftom;
#X obj 320 860 symbol \$2;
#X obj 320 830 trigger b f, f 14;
#X obj 320 890 pack s f, f 14;
#X obj 320 949 s \$0-wavetable;
#X text 300 720 ---- Select wavetable ----;
#X text 300 330 ---- Calculate frequency ----;
#X text 300 1000 ---- Generate audio signal ----;
#X obj 620 141 value _\$0_octaves_per_wavetable;
#X obj 390 390 r \$1-frequency;
#X obj 390 420 ./utils/declick;
#X obj 390 570 ./utils/declick;
#X obj 320 800 expr max(1 \, ceil($f1 / 12 / _\$0_octaves_per_wavetable))
;
#X msg 320 920 symbol \$1-\$2;
#X text 10 60 \$2 must be the prefix of the wavetable arrays \, e.g.
"p1-carrier", f 82;
#X obj 290 640 +;
#X text 10 110 The first inlet takes the frequency., f 82;
#X obj 290 1090 +~;
#X obj 500 1100 r \$0-wavetable;
#X obj 500 1130 expr size("$s1") - 3;
#X obj 290 1170 *~;
#X obj 290 1199 +~ 1;
#X connect 1 0 19 0;
#X connect 2 0 48 0;
#X connect 3 0 18 0;
#X connect 10 0 48 1;
#X connect 13 0 19 1;
#X connect 14 0 46 1;
#X connect 16 0 42 0;
#X connect 19 0 46 0;
#X connect 20 0 3 0;
#X connect 20 0 23 0;
#X connect 21 0 20 0;
#X connect 24 0 25 0;
#X connect 25 0 2 0;
#X connect 25 1 31 0;
#X connect 27 0 30 0;
#X connect 28 0 29 0;
#X connect 29 0 39 0;
#X connect 30 0 28 0;
#X connect 31 0 43 0;
#X connect 32 0 34 0;
#X connect 33 0 32 0;
#X connect 33 1 34 1;
#X connect 34 0 44 0;
#X connect 40 0 41 0;
#X connect 41 0 13 0;
#X connect 42 0 14 0;
#X connect 43 0 33 0;
#X connect 44 0 35 0;
#X connect 46 0 24 0;
#X connect 48 0 51 0;
#X connect 49 0 50 0;
#X connect 50 0 51 1;
#X connect 51 0 52 0;
#X connect 52 0 3 0;
