#N canvas 0 49 1920 1009 12;
#X obj -30 -30 preset_hub k12 1 %hidden%;
#X obj 100 1150 outlet~;
#X obj 100 110 inlet;
#X obj 100 1120 *~;
#X floatatom 100 170 5 0 0 1 Note - - 0 0 1, f 5;
#X floatatom 600 170 5 0 0 1 Velocity - - 0 0 1, f 5;
#X obj 730 230 s \$0-velocity;
#X text 100 80 ==== Inlets: Frequency \, Velocity ====;
#X text 940 80 ==== General Partial Parameters ====;
#X obj 100 140 unpack f f;
#X text 10 30 \$1 must be the partial number starting at zero., f
55;
#X text 10 10 A single partial inside a voice., f 55;
#X text 100 540 ==== Oscillators ====;
#X floatatom 1140 200 5 0 0 1 Modulator_Volume - - 0 0 1, f 5;
#X obj 1140 140 ./utils/declick;
#X obj 1140 170 expr sqrt($f1);
#X obj 1140 110 r p-p\$1-mod-volume;
#X obj 1140 230 s \$0-mod-volume;
#X obj 140 200 r p-p\$1-transpose;
#X obj 290 200 r p-p\$1-detune;
#X obj 290 260 trigger b f;
#X floatatom 290 230 5 0 0 1 Detune_Cents - - 0 0 1, f 5;
#X floatatom 140 230 5 0 0 1 Transpose - - 0 0 1, f 5;
#X obj 140 260 trigger b f;
#X obj 100 320 mtof;
#X floatatom 100 350 5 0 0 1 Frequency_Hz - - 0 0 1, f 5;
#X text 620 910 Carrier;
#X text 620 630 Modulator;
#X obj 140 980 ./envgen/envgen~;
#X obj 270 980 s p-p\$1-car-aenv2;
#X obj 140 950 r p-p\$1-car-aenv1;
#X msg 600 230 release;
#X msg 670 230 attack;
#X obj 600 260 trigger a a a a;
#X obj 140 710 ./envgen/envgen~;
#X obj 140 680 r p-p\$1-mod-aenv1;
#X obj 270 710 s p-p\$1-mod-aenv2;
#X obj 100 740 *~;
#X obj 100 1010 *~;
#X floatatom 940 200 5 0 0 1 Carrier_Volume - - 0 0 1, f 5;
#X obj 940 140 ./utils/declick;
#X obj 940 170 expr sqrt($f1);
#X obj 940 110 r p-p\$1-car-volume;
#X obj 940 230 s \$0-car-volume;
#X obj 140 1120 r \$0-velocity;
#X obj 600 290 s \$0-mod-fenv1;
#X obj 730 290 s \$0-mod-aenv1;
#X obj 860 290 s \$0-car-fenv1;
#X obj 990 290 s \$0-car-aenv1;
#X obj 270 680 r \$0-mod-aenv1;
#X obj 270 950 r \$0-car-aenv1;
#X obj 600 200 moses 0.0001;
#X obj 100 599 trigger f f, f 86;
#X obj 100 880 trigger f f, f 86;
#X obj 100 380 s \$0-frequency;
#X obj 100 570 r \$0-frequency;
#X obj 100 850 r \$0-frequency;
#X obj 100 770 ./filter p-p\$1-mod-flt p-mw-mod p-lfo1-mod p-lfo2-mod
, f 86;
#X obj 100 1040 ./filter p-p\$1-car-flt p-mw-car p-lfo1-car p-lfo2-car
, f 86;
#X obj 100 630 ./oscillator p-p\$1-mod p\$1-modulator 11 p-mw-mod p-lfo1-mod
p-lfo2-mod, f 72;
#X obj 100 910 ./oscillator p-p\$1-car p\$1-carrier 11 p-mw-car p-lfo1-car
p-lfo2-car, f 72;
#X obj 100 290 expr \\$f1 + \\$f2 + ($f3 * .01) + \\$f4;
#X obj 440 200 r in-pitchbend;
#X floatatom 440 230 5 0 0 1 Pitchbend - - 0 0 1, f 5;
#X obj 440 260 trigger b f;
#X connect 2 0 9 0;
#X connect 3 0 1 0;
#X connect 4 0 61 0;
#X connect 5 0 51 0;
#X connect 9 0 4 0;
#X connect 9 1 5 0;
#X connect 13 0 17 0;
#X connect 14 0 15 0;
#X connect 15 0 13 0;
#X connect 16 0 14 0;
#X connect 18 0 22 0;
#X connect 19 0 21 0;
#X connect 20 0 61 0;
#X connect 20 1 61 2;
#X connect 21 0 20 0;
#X connect 22 0 23 0;
#X connect 23 0 61 0;
#X connect 23 1 61 1;
#X connect 24 0 25 0;
#X connect 25 0 54 0;
#X connect 28 0 38 1;
#X connect 28 2 29 0;
#X connect 30 0 28 0;
#X connect 31 0 33 0;
#X connect 32 0 33 0;
#X connect 33 0 45 0;
#X connect 33 1 46 0;
#X connect 33 2 47 0;
#X connect 33 3 48 0;
#X connect 34 0 37 1;
#X connect 34 2 36 0;
#X connect 35 0 34 0;
#X connect 37 0 57 0;
#X connect 38 0 58 0;
#X connect 39 0 43 0;
#X connect 40 0 41 0;
#X connect 41 0 39 0;
#X connect 42 0 40 0;
#X connect 44 0 3 1;
#X connect 49 0 34 0;
#X connect 50 0 28 0;
#X connect 51 0 31 0;
#X connect 51 1 32 0;
#X connect 51 1 6 0;
#X connect 52 0 59 0;
#X connect 52 1 59 0;
#X connect 52 1 57 1;
#X connect 53 0 60 0;
#X connect 53 1 58 1;
#X connect 55 0 52 0;
#X connect 56 0 53 0;
#X connect 57 0 60 1;
#X connect 58 0 3 0;
#X connect 59 0 37 0;
#X connect 60 0 38 0;
#X connect 61 0 24 0;
#X connect 62 0 63 0;
#X connect 63 0 64 0;
#X connect 64 0 61 0;
#X connect 64 1 61 3;
