#N canvas 0 49 1920 1009 12;
#X obj -30 -30 preset_hub k12 1 %hidden%;
#X text 10 30 \$1 must be the partial number starting at zero., f
69;
#X text 10 10 Pre-calculation of the carrier/modulator wavetables of
a partial., f 69;
#X obj 100 229 delay 100;
#X obj 100 200 r p\$1-carrier-recalc;
#N canvas 0 49 1920 1009 (subpatch) 0;
#X array p\$1-carrier-1 515 float 0 black black;
#X coords 0 1 514 -1 200 100 1;
#X scroll 1;
#X restore 600 200 graph;
#N canvas 0 49 1920 1009 (subpatch) 0;
#X array p\$1-carrier-2 515 float 0 black black;
#X coords 0 1 514 -1 200 100 1;
#X scroll 1;
#X restore 830 200 graph;
#N canvas 0 49 1920 1009 (subpatch) 0;
#X array p\$1-carrier-4 515 float 0 black black;
#X coords 0 1 514 -1 200 100 1;
#X scroll 1;
#X restore 1290 200 graph;
#N canvas 0 49 1920 1009 (subpatch) 0;
#X array p\$1-carrier-5 515 float 0 black black;
#X coords 0 1 514 -1 200 100 1;
#X scroll 1;
#X restore 600 320 graph;
#N canvas 0 49 1920 1009 (subpatch) 0;
#X array p\$1-carrier-3 515 float 0 black black;
#X coords 0 1 514 -1 200 100 1;
#X scroll 1;
#X restore 1060 200 graph;
#N canvas 0 49 1920 1009 (subpatch) 0;
#X array p\$1-carrier-6 515 float 0 black black;
#X coords 0 1 514 -1 200 100 1;
#X scroll 1;
#X restore 830 320 graph;
#N canvas 0 49 1920 1009 (subpatch) 0;
#X array p\$1-carrier-7 515 float 0 black black;
#X coords 0 1 514 -1 200 100 1;
#X scroll 1;
#X restore 1060 320 graph;
#N canvas 0 49 1920 1009 (subpatch) 0;
#X array p\$1-carrier-8 515 float 0 black black;
#X coords 0 1 514 -1 200 100 1;
#X scroll 1;
#X restore 1290 320 graph;
#N canvas 0 49 1920 1009 (subpatch) 0;
#X array p\$1-carrier-10 515 float 0 black black;
#X coords 0 1 514 -1 200 100 1;
#X scroll 1;
#X restore 830 450 graph;
#N canvas 0 49 1920 1009 (subpatch) 0;
#X array p\$1-carrier-11 515 float 0 black black;
#X coords 0 1 514 -1 200 100 1;
#X scroll 1;
#X restore 1060 450 graph;
#N canvas 0 49 1920 1009 (subpatch) 0;
#X array p\$1-carrier-9 515 float 0 black black;
#X coords 0 1 514 -1 200 100 1;
#X scroll 1;
#X restore 600 450 graph;
#X obj 100 280 ./partial-clear-wavetables p\$1-carrier 11;
#X obj 100 929 delay 100;
#N canvas 0 49 1920 1009 (subpatch) 0;
#X array p\$1-modulator-1 515 float 0 black black;
#X coords 0 1 514 -1 200 100 1;
#X scroll 1;
#X restore 600 900 graph;
#X obj 100 900 r p\$1-modulator-recalc;
#N canvas 0 49 1920 1009 (subpatch) 0;
#X array p\$1-modulator-2 515 float 0 black black;
#X coords 0 1 514 -1 200 100 1;
#X scroll 1;
#X restore 830 900 graph;
#N canvas 0 49 1920 1009 (subpatch) 0;
#X array p\$1-modulator-4 515 float 0 black black;
#X coords 0 1 514 -1 200 100 1;
#X scroll 1;
#X restore 1290 900 graph;
#N canvas 0 49 1920 1009 (subpatch) 0;
#X array p\$1-modulator-5 515 float 0 black black;
#X coords 0 1 514 -1 200 100 1;
#X scroll 1;
#X restore 600 1030 graph;
#N canvas 0 49 1920 1009 (subpatch) 0;
#X array p\$1-modulator-3 515 float 0 black black;
#X coords 0 1 514 -1 200 100 1;
#X scroll 1;
#X restore 1060 900 graph;
#N canvas 0 49 1920 1009 (subpatch) 0;
#X array p\$1-modulator-6 515 float 0 black black;
#X coords 0 1 514 -1 200 100 1;
#X scroll 1;
#X restore 830 1030 graph;
#N canvas 0 49 1920 1009 (subpatch) 0;
#X array p\$1-modulator-7 515 float 0 black black;
#X coords 0 1 514 -1 200 100 1;
#X scroll 1;
#X restore 1060 1030 graph;
#N canvas 0 49 1920 1009 (subpatch) 0;
#X array p\$1-modulator-8 515 float 0 black black;
#X coords 0 1 514 -1 200 100 1;
#X scroll 1;
#X restore 1290 1030 graph;
#N canvas 0 49 1920 1009 (subpatch) 0;
#X array p\$1-modulator-10 515 float 0 black black;
#X coords 0 1 514 -1 200 100 1;
#X scroll 1;
#X restore 830 1160 graph;
#N canvas 0 49 1920 1009 (subpatch) 0;
#X array p\$1-modulator-11 515 float 0 black black;
#X coords 0 1 514 -1 200 100 1;
#X scroll 1;
#X restore 1060 1160 graph;
#N canvas 0 49 1920 1009 (subpatch) 0;
#X array p\$1-modulator-9 515 float 0 black black;
#X coords 0 1 514 -1 200 100 1;
#X scroll 1;
#X restore 600 1160 graph;
#X obj 100 980 ./partial-clear-wavetables p\$1-modulator 11;
#X obj 100 100 inlet;
#X obj 100 129 outlet;
#X obj 100 330 ./partial-add-harmonic p-p\$1-car1 p\$1-carrier 11 1
16;
#X obj 100 360 ./partial-add-harmonic p-p\$1-car2 p\$1-carrier 11 2
16;
#X obj 100 390 ./partial-add-harmonic p-p\$1-car3 p\$1-carrier 11 3
16;
#X obj 100 420 ./partial-add-harmonic p-p\$1-car4 p\$1-carrier 11 4
16;
#X obj 100 450 ./partial-add-harmonic p-p\$1-car5 p\$1-carrier 11 5
16;
#X obj 100 480 ./partial-add-harmonic p-p\$1-car6 p\$1-carrier 11 6
16;
#X obj 100 510 ./partial-add-harmonic p-p\$1-car7 p\$1-carrier 11 7
16;
#X obj 100 540 ./partial-add-harmonic p-p\$1-car8 p\$1-carrier 11 8
16;
#X obj 100 1030 ./partial-add-harmonic p-p\$1-mod1 p\$1-modulator 11
1 16;
#X obj 100 1060 ./partial-add-harmonic p-p\$1-mod2 p\$1-modulator 11
2 16;
#X obj 100 1090 ./partial-add-harmonic p-p\$1-mod3 p\$1-modulator 11
3 16;
#X obj 100 1120 ./partial-add-harmonic p-p\$1-mod4 p\$1-modulator 11
4 16;
#X obj 100 1150 ./partial-add-harmonic p-p\$1-mod5 p\$1-modulator 11
5 16;
#X obj 100 1180 ./partial-add-harmonic p-p\$1-mod6 p\$1-modulator 11
6 16;
#X obj 100 1210 ./partial-add-harmonic p-p\$1-mod7 p\$1-modulator 11
7 16;
#X obj 100 1240 ./partial-add-harmonic p-p\$1-mod8 p\$1-modulator 11
8 16;
#X obj 100 570 ./partial-add-harmonic p-p\$1-car9 p\$1-carrier 11 9
16;
#X obj 100 600 ./partial-add-harmonic p-p\$1-car10 p\$1-carrier 11
10 16;
#X obj 100 630 ./partial-add-harmonic p-p\$1-car11 p\$1-carrier 11
11 16;
#X obj 100 660 ./partial-add-harmonic p-p\$1-car12 p\$1-carrier 11
12 16;
#X obj 100 690 ./partial-add-harmonic p-p\$1-car13 p\$1-carrier 11
13 16;
#X obj 100 720 ./partial-add-harmonic p-p\$1-car14 p\$1-carrier 11
14 16;
#X obj 100 750 ./partial-add-harmonic p-p\$1-car15 p\$1-carrier 11
15 16;
#X obj 100 780 ./partial-add-harmonic p-p\$1-car16 p\$1-carrier 11
16 16;
#X obj 100 1270 ./partial-add-harmonic p-p\$1-mod9 p\$1-modulator 11
9 16;
#X obj 100 1300 ./partial-add-harmonic p-p\$1-mod10 p\$1-modulator
11 10 16;
#X obj 100 1330 ./partial-add-harmonic p-p\$1-mod11 p\$1-modulator
11 11 16;
#X obj 100 1360 ./partial-add-harmonic p-p\$1-mod12 p\$1-modulator
11 12 16;
#X obj 100 1390 ./partial-add-harmonic p-p\$1-mod13 p\$1-modulator
11 13 16;
#X obj 100 1420 ./partial-add-harmonic p-p\$1-mod14 p\$1-modulator
11 14 16;
#X obj 100 1450 ./partial-add-harmonic p-p\$1-mod15 p\$1-modulator
11 15 16;
#X obj 100 1480 ./partial-add-harmonic p-p\$1-mod16 p\$1-modulator
11 16 16;
#X connect 3 0 16 0;
#X connect 4 0 3 0;
#X connect 16 0 33 0;
#X connect 17 0 30 0;
#X connect 19 0 17 0;
#X connect 30 0 41 0;
#X connect 31 0 32 0;
#X connect 33 0 34 0;
#X connect 34 0 35 0;
#X connect 35 0 36 0;
#X connect 36 0 37 0;
#X connect 37 0 38 0;
#X connect 38 0 39 0;
#X connect 39 0 40 0;
#X connect 40 0 49 0;
#X connect 41 0 42 0;
#X connect 42 0 43 0;
#X connect 43 0 44 0;
#X connect 44 0 45 0;
#X connect 45 0 46 0;
#X connect 46 0 47 0;
#X connect 47 0 48 0;
#X connect 48 0 57 0;
#X connect 49 0 50 0;
#X connect 50 0 51 0;
#X connect 51 0 52 0;
#X connect 52 0 53 0;
#X connect 53 0 54 0;
#X connect 54 0 55 0;
#X connect 55 0 56 0;
#X connect 57 0 58 0;
#X connect 58 0 59 0;
#X connect 59 0 60 0;
#X connect 60 0 61 0;
#X connect 61 0 62 0;
#X connect 62 0 63 0;
#X connect 63 0 64 0;
