#N canvas 0 49 1920 1009 12;
#X obj -30 -30 preset_hub k12 1 %hidden%;
#X obj 100 1220 outlet~;
#X obj 100 110 inlet;
#X obj 100 1190 *~;
#X floatatom 100 170 5 0 0 1 Note - - 0 0 1, f 5;
#X floatatom 460 170 5 0 0 1 Velocity - - 0 0 1, f 5;
#X obj 490 240 s \$0-velocity;
#X text 100 80 ==== Inlets: Frequency \, Velocity ====;
#X text 800 80 ==== General Partial Parameters ====;
#X obj 100 140 unpack f f;
#X text 10 30 \$1 must be the partial number starting at zero., f
55;
#X text 10 10 A single partial inside a voice., f 55;
#X text 100 540 ==== Oscillators ====;
#X obj 100 570 r \$0-frequency;
#X floatatom 1000 200 5 0 0 1 Modulator_Volume - - 0 0 1, f 5;
#X obj 1000 140 ./utils/declick;
#X obj 1000 170 expr sqrt($f1);
#X obj 1000 110 r p-p\$1-mod-volume;
#X obj 1000 230 s \$0-mod-volume;
#X obj 130 800 *~;
#X obj 170 800 r \$0-mod-volume;
#X obj 100 380 s \$0-frequency;
#X obj 140 200 r p-p\$1-transpose;
#X obj 290 200 r p-p\$1-detune;
#X obj 290 260 trigger b f;
#X floatatom 290 230 5 0 0 1 Detune_Cents - - 0 0 1, f 5;
#X floatatom 140 230 5 0 0 1 Transpose - - 0 0 1, f 5;
#X obj 100 290 expr \\$f1 + \\$f2 + ($f3 / 100);
#X obj 140 260 trigger b f;
#X obj 100 320 mtof;
#X floatatom 100 350 5 0 0 1 Frequency_Hz - - 0 0 1, f 5;
#X obj 130 630 ./oscillator p-p\$1-mod p\$1-modulator 11;
#X obj 100 880 ./oscillator p-p\$1-car p\$1-carrier 11;
#X obj 1300 110 r in-modulation;
#X floatatom 1300 139 5 0 0 0 - - - 0 0 1, f 5;
#X text 1300 170 TODO: Mod Wheel;
#X text 370 880 Carrier;
#X text 410 630 Modulator;
#X obj 100 1010 filter p-p\$1-car-flt, f 77;
#X obj 130 770 filter p-p\$1-mod-flt, f 67;
#X obj 100 599 trigger f f f f, f 77;
#X obj 140 950 ./envgen/envgen~;
#X obj 270 950 s p-p\$1-car-aenv2;
#X obj 140 920 r p-p\$1-car-aenv1;
#X obj 690 890 ./envgen/envgen~;
#X obj 690 860 r p-p\$1-car-fenv1;
#X obj 820 890 s p-p\$1-car-fenv2;
#X obj 460 320 moses 1;
#X msg 460 350 release;
#X msg 530 350 attack;
#X obj 460 200 trigger f f;
#X obj 460 380 trigger a a a a;
#X obj 690 640 ./envgen/envgen~;
#X obj 690 610 r p-p\$1-mod-fenv1;
#X obj 690 920 snapshot~;
#X obj 660 830 metro 10;
#X obj 660 800 r reinit;
#X obj 170 710 ./envgen/envgen~;
#X obj 170 680 r p-p\$1-mod-aenv1;
#X obj 300 710 s p-p\$1-mod-aenv2;
#X obj 690 670 snapshot~;
#X obj 660 580 metro 10;
#X obj 660 550 r reinit;
#X obj 690 700 trigger b f;
#X obj 690 950 trigger b f;
#X obj 460 290 expr if($f1 == 0 \, 0 \, 1);
#X obj 820 640 s p-p\$1-mod-fenv2;
#X text 950 640 Filter envelope;
#X text 950 890 Filter envelope;
#X obj 130 740 *~;
#X obj 100 980 *~;
#X floatatom 800 200 5 0 0 1 Carrier_Volume - - 0 0 1, f 5;
#X obj 800 140 ./utils/declick;
#X obj 800 170 expr sqrt($f1);
#X obj 800 110 r p-p\$1-car-volume;
#X obj 800 230 s \$0-car-volume;
#X obj 140 1130 *;
#X obj 180 1070 r \$0-velocity;
#X obj 140 1040 r \$0-car-volume;
#X floatatom 140 1160 5 0 0 0 - - - 0 0 1, f 5;
#X obj 180 1100 trigger b f;
#X obj 460 410 s \$0-mod-fenv1;
#X obj 590 410 s \$0-mod-aenv1;
#X obj 720 410 s \$0-car-fenv1;
#X obj 850 410 s \$0-car-aenv1;
#X obj 300 680 r \$0-mod-aenv1;
#X obj 270 920 r \$0-car-aenv1;
#X obj 590 730 *;
#X obj 640 980 *;
#X connect 2 0 9 0;
#X connect 3 0 1 0;
#X connect 4 0 27 0;
#X connect 5 0 50 0;
#X connect 9 0 4 0;
#X connect 9 1 5 0;
#X connect 13 0 40 0;
#X connect 14 0 18 0;
#X connect 15 0 16 0;
#X connect 16 0 14 0;
#X connect 17 0 15 0;
#X connect 19 0 32 1;
#X connect 20 0 19 1;
#X connect 22 0 26 0;
#X connect 23 0 25 0;
#X connect 24 0 27 0;
#X connect 24 1 27 2;
#X connect 25 0 24 0;
#X connect 26 0 28 0;
#X connect 27 0 29 0;
#X connect 28 0 27 0;
#X connect 28 1 27 1;
#X connect 29 0 30 0;
#X connect 30 0 21 0;
#X connect 31 0 69 0;
#X connect 32 0 70 0;
#X connect 33 0 34 0;
#X connect 38 0 3 0;
#X connect 39 0 19 0;
#X connect 40 0 32 0;
#X connect 40 1 31 0;
#X connect 40 2 87 0;
#X connect 40 3 88 0;
#X connect 41 0 70 1;
#X connect 41 2 42 0;
#X connect 43 0 41 0;
#X connect 44 0 54 0;
#X connect 44 2 46 0;
#X connect 45 0 44 0;
#X connect 47 0 48 0;
#X connect 47 1 49 0;
#X connect 48 0 51 0;
#X connect 49 0 51 0;
#X connect 50 0 65 0;
#X connect 50 1 6 0;
#X connect 51 0 81 0;
#X connect 51 1 82 0;
#X connect 51 2 83 0;
#X connect 51 3 84 0;
#X connect 52 0 60 0;
#X connect 52 2 66 0;
#X connect 53 0 52 0;
#X connect 54 0 64 0;
#X connect 55 0 54 0;
#X connect 56 0 55 0;
#X connect 57 0 69 1;
#X connect 57 2 59 0;
#X connect 58 0 57 0;
#X connect 60 0 63 0;
#X connect 61 0 60 0;
#X connect 62 0 61 0;
#X connect 63 0 87 0;
#X connect 63 1 87 1;
#X connect 64 0 88 0;
#X connect 64 1 88 1;
#X connect 65 0 47 0;
#X connect 69 0 39 0;
#X connect 70 0 38 0;
#X connect 71 0 75 0;
#X connect 72 0 73 0;
#X connect 73 0 71 0;
#X connect 74 0 72 0;
#X connect 76 0 79 0;
#X connect 77 0 80 0;
#X connect 78 0 76 0;
#X connect 79 0 3 1;
#X connect 80 0 76 0;
#X connect 80 1 76 1;
#X connect 85 0 57 0;
#X connect 86 0 41 0;
#X connect 87 0 39 1;
#X connect 88 0 38 1;
