#N canvas 0 49 1920 1009 12;
#X obj -30 -30 preset_hub k12 1 %hidden%;
#X obj 100 300 outlet~;
#X obj 100 100 inlet;
#X obj 100 150 unpack f f;
#X floatatom 100 180 5 0 0 1 Note - - 0 0 1, f 5;
#X floatatom 230 180 5 0 0 1 Velocity - - 0 0 1, f 5;
#X text 10 10 Single synthesizer voice to play a note;
#X obj 100 270 ./partial 0;
#X obj 230 210 expr sqrt($f1);
#X obj 100 240 pack f f;
#X connect 2 0 3 0;
#X connect 3 0 4 0;
#X connect 3 1 5 0;
#X connect 4 0 9 0;
#X connect 5 0 8 0;
#X connect 7 0 1 0;
#X connect 8 0 9 1;
#X connect 9 0 7 0;
