#N canvas 0 49 1920 1009 12;
#X obj -30 -30 preset_hub k12 1 %hidden%;
#X text 10 10 A single synthesizer voice;
#X obj 100 101 inlet;
#X floatatom 100 160 5 0 0 1 Note - - 0 0 1, f 5;
#X floatatom 500 160 5 0 0 1 Velocity - - 0 0 1, f 5;
#X obj 100 220 mtof;
#X obj 800 260 expr sqrt($f1/127);
#X floatatom 100 249 5 0 0 1 Frequency - - 0 0 1, f 5;
#X floatatom 800 289 5 0 0 1 Amplitude - - 0 0 1, f 5;
#X obj 140 589 vline~;
#X obj 100 649 *~;
#X obj 100 729 *~;
#X obj 100 759 outlet~;
#X obj 100 130 unpack f f;
#X obj 500 190 moses 1;
#X text 910 400 Target Value \, Ramp Time [ms] \, Initial Delay [ms]
;
#X text 910 420 Don't forget to set the initial delay after the first
value!;
#X text 910 440 It must skip all previous ramps (sum of the ramp times).
;
#X text 910 460 Otherwise the ramp will just jump to the last value!
;
#X obj 100 389 phasor~;
#X obj 100 329 trigger f f;
#X obj 180 388 osc~;
#X obj 100 449 +~;
#X obj 100 479 cos~;
#X text 550 370 Release envelope;
#X obj 500 340 bang;
#X obj 800 317 s \$0-amplitude;
#X obj 140 729 r \$0-amplitude;
#X obj 500 400 s \$0-envelope;
#X obj 140 559 r \$0-envelope;
#X text 910 370 Attack envelope;
#X obj 700 230 trigger b f;
#X obj 180 359 * 3;
#X obj 180 419 *~ 0.125;
#X obj 140 619 *~;
#X text 110 529 --- Quadratic Envelope ---;
#X text 110 699 --- Peak Amplitude ---;
#X obj 100 190 moses 1;
#X text 160 190 (sustain release sends note 0!);
#X msg 700 370 1 10 \, 0.8 30 10 \, 0 5000 40;
#X msg 500 370 0 330;
#X text 110 299 --- Toy FM Voice ---;
#X connect 2 0 13 0;
#X connect 3 0 37 0;
#X connect 4 0 14 0;
#X connect 5 0 7 0;
#X connect 6 0 8 0;
#X connect 7 0 20 0;
#X connect 8 0 26 0;
#X connect 9 0 34 1;
#X connect 9 0 34 0;
#X connect 10 0 11 0;
#X connect 11 0 12 0;
#X connect 13 0 3 0;
#X connect 13 1 4 0;
#X connect 14 0 25 0;
#X connect 14 1 31 0;
#X connect 19 0 22 0;
#X connect 20 0 19 0;
#X connect 20 1 32 0;
#X connect 21 0 33 0;
#X connect 22 0 23 0;
#X connect 23 0 10 0;
#X connect 25 0 40 0;
#X connect 27 0 11 1;
#X connect 29 0 9 0;
#X connect 31 0 39 0;
#X connect 31 1 6 0;
#X connect 32 0 21 0;
#X connect 33 0 22 1;
#X connect 34 0 10 1;
#X connect 37 1 5 0;
#X connect 39 0 28 0;
#X connect 40 0 28 0;
