#N canvas 0 49 1920 1009 12;
#X obj -30 -30 preset_hub k12 1 %hidden%;
#X text 10 10 Internal abstraction to convert the internal breakpoint
scalar array into a plain list \, that can e.g. be sent to an [envgen~]
object \, or can be used to mutate the underlying data., f 69;
#X text 10 130 A bang on the inlet starts the iteration., f 69;
#X text 10 80 Argument \$1 must be \$0 of the calling [envgen-gui]
instance., f 69;
#X text 10 100 \$2 must be the name of the array (attack or release).
, f 69;
#X obj 130 550 get egui__breakpoint value duration;
#X obj 130 670 spigot;
#X obj 230 610 r \$0-list-clear;
#X text 430 500 Last iteration;
#X obj 200 670 r \$0-send-data;
#X msg 420 520 \; \$0-send-data 1;
#X obj 130 580 pack f f;
#X obj 130 520 spigot;
#X text 190 520 Skip dummy;
#X obj 100 700 list trim;
#X obj 100 300 inlet;
#X obj 100 750 outlet;
#X obj 100 350 trigger b b;
#X text 10 150 The list of [value \, duration \, ...] pairs will appear
at the outlet., f 69;
#X obj 100 490 ./egui-foreach-breakpoint \$1 \$2;
#X listbox 130 640 20 0 0 0 - - - 0 0 1, f 20;
#X obj 130 610 list prepend;
#X obj 130 380 \$0;
#X msg 130 410 \; \$1-list-clear bang \; \$1-send-data 0;
#X connect 5 0 11 0;
#X connect 5 1 11 1;
#X connect 6 0 14 0;
#X connect 7 0 21 1;
#X connect 9 0 6 1;
#X connect 11 0 21 0;
#X connect 12 0 5 0;
#X connect 14 0 16 0;
#X connect 15 0 17 0;
#X connect 17 0 19 0;
#X connect 17 1 22 0;
#X connect 19 0 12 0;
#X connect 19 1 12 1;
#X connect 19 2 10 0;
#X connect 20 0 6 0;
#X connect 20 0 21 1;
#X connect 21 0 20 0;
#X connect 22 0 23 0;
