#N canvas 0 49 1920 1009 12;
#X obj -30 -30 preset_hub k12 1 %hidden%;
#X obj 400 200 inlet;
#X obj 440 260 unpack f;
#X text 10 70 Parameters:, f 68;
#X obj 100 200 loadbang;
#X obj 100 230 bng 20 250 50 0 empty empty empty 17 7 0 10 #fcfcfc
#000000 #000000 1;
#X obj 100 320 value _\$0_max;
#X floatatom 100 290 5 0 0 1 Max_Voice_Number - - 0 0 1, f 5;
#X obj 400 320 spigot;
#X obj 400 230 trigger a a;
#X text 450 200 Voice \, Pitch \, Velocity;
#X obj 400 380 outlet~;
#X text 10 10 Small wrapper around [clone] useful for multi-processing
to split voice instances accross multiple processes. Makes sure than
only voices between a given number range are played., f 68;
#X text 10 100 \$1 - Starting voice number: e.g. 0 \, 8 \, 16 \, ...
, f 68;
#X text 10 120 \$2 - How many voice instances: e.g. 8, f 68;
#X obj 100 260 expr \$1 + \$2 - 1;
#X obj 440 290 expr \\$f1 >= \$1 && \\$f1 <= _\$0_max;
#X text 10 480 NOTE: It seems \, that the name of the cloned patch
must be hard-coded in [clone] and cannot be set with dollar-variables.
Thus we cannot refactor this patch into a general purpose utility object.
;
#X obj 400 350 clone -s \$1 voice \$2;
#X connect 1 0 9 0;
#X connect 2 0 16 0;
#X connect 4 0 5 0;
#X connect 5 0 15 0;
#X connect 7 0 6 0;
#X connect 8 0 18 0;
#X connect 9 0 8 0;
#X connect 9 1 2 0;
#X connect 15 0 7 0;
#X connect 16 0 8 1;
#X connect 18 0 11 0;
