#N canvas 0 49 1920 1009 12;
#X obj -30 -30 preset_hub k12 1 %hidden%;
#X obj 10 120 ./main2;
#X obj 0 0 cnv 15 500 30 empty empty Mini\ Clavier:\ Headless\ with\ Preset\ Handling
10 12 0 14 #e0e0e0 #404040 0;
#X obj 100 230 ./preset/preset-manager pm;
#X obj 400 200 r cmd-load-preset;
#X msg 400 230 load-file;
#X obj 600 200 r cmd-save-preset;
#X msg 600 229 save-file;
#X text 710 230 <---- Click messages to load or save preset files;
#X obj 100 430 ./preset/preset-value pm float p-glb-volume;
#X obj 100 490 ./preset/preset-value pm float p-glb-pbrange;
#X obj 100 590 ./preset/preset-value pm float p-cho-frequency;
#X obj 100 620 ./preset/preset-value pm float p-cho-delay;
#X obj 100 650 ./preset/preset-value pm float p-cho-width;
#X obj 100 680 ./preset/preset-value pm float p-cho-feedback;
#X obj 100 710 ./preset/preset-value pm float p-cho-drywet;
#X obj 100 740 ./preset/preset-value pm float p-cho-enabled;
#X obj 100 840 ./preset/preset-value pm float p-rev-length;
#X obj 100 870 ./preset/preset-value pm float p-rev-crossover;
#X obj 100 900 ./preset/preset-value pm float p-rev-hfdamping;
#X obj 100 930 ./preset/preset-value pm float p-rev-drywet;
#X obj 100 960 ./preset/preset-value pm float p-rev-enabled;
#X text 100 400 ---- Global Parameters ----;
#X text 100 560 ---- Chorus ----;
#X text 100 810 ---- Reverb ----;
#X obj 400 320 s reinit;
#X obj 400 260 trigger b a;
#X obj 600 260 s \$0-preset-manager;
#X obj 100 200 r \$0-preset-manager;
#X obj 420 290 s \$0-preset-manager;
#X obj 100 460 ./preset/preset-value pm float p-glb-panorama;
#X text 500 400 ---- LFO 1 ----;
#X obj 500 430 ./preset/preset-value pm float p-lfo1-frequency;
#X text 500 620 ---- LFO 2 ----;
#X obj 500 650 ./preset/preset-value pm float p-lfo2-frequency;
#X text 500 840 ---- Mod. Wheel ----;
#X obj 500 990 ./preset/preset-value pm float p-mw-lfo1;
#X obj 500 1020 ./preset/preset-value pm float p-mw-lfo2;
#X text 10 40 This is basically the Mini Clavier synthesizer without
the GUI (to save CPU cycles or where the GUI cannot be used anyway).
Technically it wraps the synth enginge (main2.pd) and adds a mechanism
to save and load presets., f 68;
#X obj 1400 980 ./preset/preset-value pm float p-p1-car-1-volume;
#X obj 1000 1010 ./preset/preset-value pm float p-p1-car-2-ratio;
#X obj 1000 1040 ./preset/preset-value pm float p-p1-car-3-ratio;
#X obj 1000 1070 ./preset/preset-value pm float p-p1-car-4-ratio;
#X obj 1000 1100 ./preset/preset-value pm float p-p1-car-5-ratio;
#X obj 1000 1130 ./preset/preset-value pm float p-p1-car-6-ratio;
#X obj 1000 1160 ./preset/preset-value pm float p-p1-car-7-ratio;
#X obj 1000 1190 ./preset/preset-value pm float p-p1-car-8-ratio;
#X obj 1000 1220 ./preset/preset-value pm float p-p1-car-9-ratio;
#X obj 1000 1250 ./preset/preset-value pm float p-p1-car-10-ratio;
#X obj 1000 1280 ./preset/preset-value pm float p-p1-car-11-ratio;
#X obj 1000 1310 ./preset/preset-value pm float p-p1-car-12-ratio;
#X obj 1000 1340 ./preset/preset-value pm float p-p1-car-13-ratio;
#X obj 1000 1370 ./preset/preset-value pm float p-p1-car-14-ratio;
#X obj 1000 1400 ./preset/preset-value pm float p-p1-car-15-ratio;
#X obj 1000 1430 ./preset/preset-value pm float p-p1-car-16-ratio;
#X obj 1400 1010 ./preset/preset-value pm float p-p1-car-2-volume;
#X obj 1400 1040 ./preset/preset-value pm float p-p1-car-3-volume;
#X obj 1400 1070 ./preset/preset-value pm float p-p1-car-4-volume;
#X obj 1400 1100 ./preset/preset-value pm float p-p1-car-5-volume;
#X obj 1400 1130 ./preset/preset-value pm float p-p1-car-6-volume;
#X obj 1400 1160 ./preset/preset-value pm float p-p1-car-7-volume;
#X obj 1400 1190 ./preset/preset-value pm float p-p1-car-8-volume;
#X obj 1400 1220 ./preset/preset-value pm float p-p1-car-9-volume;
#X obj 1400 1250 ./preset/preset-value pm float p-p1-car-10-volume
;
#X obj 1400 1280 ./preset/preset-value pm float p-p1-car-11-volume
;
#X obj 1400 1310 ./preset/preset-value pm float p-p1-car-12-volume
;
#X obj 1400 1340 ./preset/preset-value pm float p-p1-car-13-volume
;
#X obj 1400 1370 ./preset/preset-value pm float p-p1-car-14-volume
;
#X obj 1400 1400 ./preset/preset-value pm float p-p1-car-15-volume
;
#X obj 1400 1430 ./preset/preset-value pm float p-p1-car-16-volume
;
#X obj 500 460 ./preset/preset-value pm float p-lfo1-p1-car-volume
;
#X obj 500 490 ./preset/preset-value pm float p-lfo1-p1-car-frequency
;
#X obj 500 520 ./preset/preset-value pm float p-lfo1-p1-mod-volume
;
#X obj 500 550 ./preset/preset-value pm float p-lfo1-p1-mod-frequency
;
#X obj 500 680 ./preset/preset-value pm float p-lfo2-p1-car-volume
;
#X obj 500 710 ./preset/preset-value pm float p-lfo2-p1-car-frequency
;
#X obj 500 740 ./preset/preset-value pm float p-lfo2-p1-mod-volume
;
#X obj 500 770 ./preset/preset-value pm float p-lfo2-p1-mod-frequency
;
#X obj 500 870 ./preset/preset-value pm float p-mw-p1-car-volume;
#X obj 500 900 ./preset/preset-value pm float p-mw-p1-car-frequency
;
#X obj 500 930 ./preset/preset-value pm float p-mw-p1-mod-volume;
#X obj 500 960 ./preset/preset-value pm float p-mw-p1-mod-frequency
;
#X obj 1000 980 ./preset/preset-value pm float p-p1-car-1-ratio;
#X obj 1000 720 ./preset/preset-value pm float p-p1-mod-1-ratio;
#X obj 1400 720 ./preset/preset-value pm float p-p1-mod-1-volume;
#X text 1000 530 ---- Partial 1: Modulator ----;
#X text 1000 790 ---- Partial 1: Carrier ----;
#X obj 1000 590 ./preset/preset-value pm float p-p1-mod-attack-level
;
#X obj 1400 590 ./preset/preset-value pm float p-p1-mod-attack-time
;
#X obj 1000 560 ./preset/preset-value pm float p-p1-mod-initial-level
;
#X obj 1400 560 ./preset/preset-value pm float p-p1-mod-initial-time
;
#X obj 1000 620 ./preset/preset-value pm float p-p1-mod-decay1-level
;
#X obj 1000 650 ./preset/preset-value pm float p-p1-mod-decay2-level
;
#X obj 1400 620 ./preset/preset-value pm float p-p1-mod-decay1-time
;
#X obj 1400 650 ./preset/preset-value pm float p-p1-mod-decay2-time
;
#X obj 1000 820 ./preset/preset-value pm float p-p1-car-initial-level
;
#X obj 1000 850 ./preset/preset-value pm float p-p1-car-attack-level
;
#X obj 1000 880 ./preset/preset-value pm float p-p1-car-decay1-level
;
#X obj 1000 910 ./preset/preset-value pm float p-p1-car-decay2-level
;
#X obj 1400 820 ./preset/preset-value pm float p-p1-car-initial-time
;
#X obj 1400 850 ./preset/preset-value pm float p-p1-car-attack-time
;
#X obj 1400 880 ./preset/preset-value pm float p-p1-car-decay1-time
;
#X obj 1400 910 ./preset/preset-value pm float p-p1-car-decay2-time
;
#X obj 1000 430 ./preset/preset-value pm float p-p1-transpose;
#X obj 1000 460 ./preset/preset-value pm float p-p1-detune;
#X text 1000 400 ---- Partial 1: Tuning ----;
#X obj 1000 680 ./preset/preset-value pm float p-p1-mod-release-level
;
#X obj 1400 680 ./preset/preset-value pm float p-p1-mod-release-time
;
#X obj 1000 940 ./preset/preset-value pm float p-p1-car-release-level
;
#X obj 1400 940 ./preset/preset-value pm float p-p1-car-release-time
;
#X connect 4 0 5 0;
#X connect 5 0 26 0;
#X connect 6 0 7 0;
#X connect 7 0 27 0;
#X connect 26 0 25 0;
#X connect 26 1 29 0;
#X connect 28 0 3 0;
