#N canvas 0 49 1920 1009 12;
#X obj -30 -30 preset_hub k12 1 %hidden%;
#X obj 10 200 ./main2;
#X obj 0 0 cnv 15 500 30 empty empty Mini\ Clavier:\ Headless\ with\ Preset\ Handling
10 12 0 14 #e0e0e0 #404040 0;
#X obj 100 280 ./preset/preset-manager pm;
#X obj 400 250 r cmd-load-preset;
#X msg 400 280 load-file;
#X obj 600 250 r cmd-save-preset;
#X msg 600 279 save-file;
#X text 710 280 <---- Click messages to load or save preset files;
#X text 100 450 ---- Global Parameters ----;
#X text 100 610 ---- Chorus ----;
#X text 100 860 ---- Reverb ----;
#X obj 400 370 s reinit;
#X obj 400 310 trigger b a;
#X obj 600 310 s \$0-preset-manager;
#X obj 100 250 r \$0-preset-manager;
#X obj 420 340 s \$0-preset-manager;
#X text 500 450 ---- LFO 1 ----;
#X text 500 670 ---- LFO 2 ----;
#X text 500 890 ---- Mod. Wheel ----;
#X text 10 40 This is basically the Mini Clavier synthesizer without
the GUI (to save CPU cycles or where the GUI cannot be used anyway).
Technically it wraps the synth enginge (main2.pd) and adds a mechanism
to save and load presets., f 68;
#X obj 500 510 ./preset/preset-value1 tg pm float p-lfo1-p1-car-volume
;
#X obj 500 540 ./preset/preset-value1 tg pm float p-lfo1-p1-car-frequency
;
#X obj 500 570 ./preset/preset-value1 tg pm float p-lfo1-p1-mod-volume
;
#X obj 500 600 ./preset/preset-value1 tg pm float p-lfo1-p1-mod-frequency
;
#X obj 500 730 ./preset/preset-value1 tg pm float p-lfo2-p1-car-volume
;
#X obj 500 760 ./preset/preset-value1 tg pm float p-lfo2-p1-car-frequency
;
#X obj 500 790 ./preset/preset-value1 tg pm float p-lfo2-p1-mod-volume
;
#X obj 500 820 ./preset/preset-value1 tg pm float p-lfo2-p1-mod-frequency
;
#X obj 500 920 ./preset/preset-value1 tg pm float p-mw-p1-car-volume
;
#X obj 500 950 ./preset/preset-value1 tg pm float p-mw-p1-car-frequency
;
#X obj 500 980 ./preset/preset-value1 tg pm float p-mw-p1-mod-volume
;
#X obj 500 1010 ./preset/preset-value1 tg pm float p-mw-p1-mod-frequency
;
#X text 1000 450 ---- Partials ----;
#X obj 1000 480 ./partial-parameters p1;
#X obj 1000 510 ./partial-parameters p2;
#X obj 1000 540 ./partial-parameters p3;
#X obj 1000 570 ./partial-parameters p4;
#X text 10 120 IMPORTANT NOTE, f 54;
#X text 10 150 [preset-value] = Paramters handled in main process,
f 55;
#X text 10 170 [preset-value1] = Paramters handled in sub-processes
, f 55;
#X obj 100 480 ./preset/preset-value pm float p-glb-volume;
#X obj 100 510 ./preset/preset-value pm float p-glb-panorama;
#X obj 100 540 ./preset/preset-value pm float p-glb-pbrange;
#X obj 100 640 ./preset/preset-value pm float p-cho-frequency;
#X obj 100 670 ./preset/preset-value pm float p-cho-delay;
#X obj 100 700 ./preset/preset-value pm float p-cho-width;
#X obj 100 730 ./preset/preset-value pm float p-cho-feedback;
#X obj 100 760 ./preset/preset-value pm float p-cho-drywet;
#X obj 100 790 ./preset/preset-value pm float p-cho-enabled;
#X obj 100 890 ./preset/preset-value pm float p-rev-length;
#X obj 100 920 ./preset/preset-value pm float p-rev-crossover;
#X obj 100 950 ./preset/preset-value pm float p-rev-hfdamping;
#X obj 100 980 ./preset/preset-value pm float p-rev-drywet;
#X obj 100 1010 ./preset/preset-value pm float p-rev-enabled;
#X obj 500 480 ./preset/preset-value pm float p-lfo1-frequency;
#X obj 500 700 ./preset/preset-value pm float p-lfo2-frequency;
#X obj 500 1040 ./preset/preset-value pm float p-mw-lfo1;
#X obj 500 1070 ./preset/preset-value pm float p-mw-lfo2;
#X connect 4 0 5 0;
#X connect 5 0 13 0;
#X connect 6 0 7 0;
#X connect 7 0 14 0;
#X connect 13 0 12 0;
#X connect 13 1 16 0;
#X connect 15 0 3 0;
