#N canvas 0 49 1920 1009 12;
#X obj -30 -30 preset_hub k12 1 %hidden%;
#N canvas 0 49 1920 1009 chorus 0;
#X obj 100 100 inlet~;
#X obj 230 100 inlet~;
#X obj 100 920 outlet~;
#X obj 600 920 outlet~;
#X floatatom 1120 160 5 0 0 1 Dry/Wet - - 0 0 1, f 5;
#X floatatom 940 160 5 0 0 1 Feedback_% - - 0 0 1, f 5;
#X floatatom 560 160 5 0 0 1 LFO_Frequency_Hz - - 0 0 1, f 5;
#X floatatom 760 160 5 0 0 1 LFO_Width_ms - - 0 0 1, f 5;
#X floatatom 1270 160 5 0 0 1 Enabled - - 0 0 1, f 5;
#X obj 560 100 r p-cho-frequency;
#X obj 760 100 r p-cho-width;
#X obj 940 100 r p-cho-feedback;
#X obj 1120 100 r p-cho-drywet;
#X obj 1270 100 r p-cho-enabled;
#X obj 100 130 s~ cho-s-dry1;
#X obj 230 130 s~ cho-s-dry2;
#X obj 270 840 r~ cho-s-dry1;
#X obj 100 300 r~ cho-s-dry1;
#X obj 100 600 s~ cho-s-wet1;
#X obj 100 700 r~ cho-s-dry1;
#X obj 210 700 r~ cho-s-wet1;
#X obj 600 700 r~ cho-s-dry2;
#X obj 750 700 r~ cho-s-wet2;
#X floatatom 400 160 5 0 0 1 Delay_ms - - 0 0 1, f 5;
#X obj 400 100 r p-cho-delay;
#X obj 1270 187 s cho-enabled;
#X obj 380 840 r cho-enabled;
#X obj 560 187 s cho-frequency;
#X obj 400 187 s cho-delay;
#X obj 760 187 s cho-width;
#X obj 940 187 s cho-feedback;
#X obj 170 390 r cho-frequency;
#X obj 150 360 r cho-delay;
#X obj 190 420 r cho-width;
#X obj 210 450 r cho-feedback;
#X obj 270 870 expr~ \\$v1 * ($f2 - 1) * -1;
#X obj 120 840 r cho-enabled;
#X obj 100 870 *~;
#X obj 100 800 +~;
#X obj 840 840 r cho-enabled;
#X obj 730 870 expr~ \\$v1 * ($f2 - 1) * -1;
#X obj 620 840 r cho-enabled;
#X obj 600 870 *~;
#X obj 600 800 +~;
#X obj 730 840 r~ cho-s-dry2;
#X text 10 10 Simple chorus/flanger effect;
#X obj 560 130 ./utils/declick;
#X obj 400 130 ./utils/declick;
#X obj 760 128 ./utils/declick;
#X obj 940 128 ./utils/declick;
#X obj 1120 130 ./utils/declick;
#X obj 1270 128 ./utils/declick;
#X obj 100 520 ./chorus/chorus;
#X obj 120 330 r~ cho-s-dry2;
#X obj 220 600 s~ cho-s-wet2;
#X obj 100 750 ./utils/balance-stereo;
#X obj 270 750 r cho-drywet;
#X obj 600 750 ./utils/balance-stereo;
#X obj 770 750 r cho-drywet;
#X obj 1120 189 s cho-drywet;
#X connect 0 0 14 0;
#X connect 1 0 15 0;
#X connect 4 0 59 0;
#X connect 5 0 30 0;
#X connect 6 0 27 0;
#X connect 7 0 29 0;
#X connect 8 0 25 0;
#X connect 9 0 46 0;
#X connect 10 0 48 0;
#X connect 11 0 49 0;
#X connect 12 0 50 0;
#X connect 13 0 51 0;
#X connect 16 0 35 0;
#X connect 17 0 52 0;
#X connect 19 0 55 0;
#X connect 20 0 55 1;
#X connect 21 0 57 0;
#X connect 22 0 57 1;
#X connect 23 0 28 0;
#X connect 24 0 47 0;
#X connect 26 0 35 1;
#X connect 31 0 52 3;
#X connect 32 0 52 2;
#X connect 33 0 52 4;
#X connect 34 0 52 5;
#X connect 35 0 2 0;
#X connect 36 0 37 1;
#X connect 37 0 2 0;
#X connect 38 0 37 0;
#X connect 39 0 40 1;
#X connect 40 0 3 0;
#X connect 41 0 42 1;
#X connect 42 0 3 0;
#X connect 43 0 42 0;
#X connect 44 0 40 0;
#X connect 46 0 6 0;
#X connect 47 0 23 0;
#X connect 48 0 7 0;
#X connect 49 0 5 0;
#X connect 50 0 4 0;
#X connect 51 0 8 0;
#X connect 52 0 18 0;
#X connect 52 1 54 0;
#X connect 53 0 52 1;
#X connect 55 0 38 0;
#X connect 55 1 38 1;
#X connect 56 0 55 2;
#X connect 57 0 43 0;
#X connect 57 1 43 1;
#X connect 58 0 57 2;
#X restore 800 270 pd chorus;
#N canvas 0 49 1920 1009 reverb 0;
#X obj 100 100 inlet~;
#X obj 220 100 inlet~;
#X obj 100 1020 outlet~;
#X obj 800 1020 outlet~;
#X obj 100 580 rev3~ 100;
#X floatatom 400 160 5 0 0 1 Dry/Wet - - 0 0 1, f 5;
#X floatatom 350 420 5 0 100 1 % - - 0 0 1, f 5;
#X floatatom 570 480 5 0 0 1 Hz - - 0 0 1, f 5;
#X floatatom 730 420 5 0 100 1 % - - 0 0 1, f 5;
#X obj 350 480 expr cbrt($f1 / 100) * 100;
#X floatatom 350 510 5 0 0 1 % - - 0 0 1, f 5;
#X floatatom 730 510 5 0 0 1 % - - 0 0 1, f 5;
#X obj 730 480 expr sqrt($f1 / 100) * 100;
#X floatatom 550 160 5 0 0 1 Enabled - - 0 0 1, f 5;
#X obj 100 130 s~ rev-s-dry1;
#X obj 220 130 s~ rev-s-dry2;
#X obj 400 100 r p-rev-drywet;
#X obj 550 100 r p-rev-enabled;
#X obj 100 390 r~ rev-s-dry1;
#X obj 220 390 r~ rev-s-dry2;
#X obj 350 390 r p-rev-length;
#X obj 570 450 r p-rev-crossover;
#X obj 730 390 r p-rev-hfdamping;
#X obj 100 680 s~ rev-s-wet1;
#X obj 230 680 s~ rev-s-wet2;
#X obj 100 800 r~ rev-s-dry1;
#X obj 210 800 r~ rev-s-wet1;
#X obj 800 800 r~ rev-s-dry2;
#X obj 950 800 r~ rev-s-wet2;
#X obj 550 189 s rev-enabled;
#X obj 230 970 expr~ \\$v1 * ($f2 - 1) * -1;
#X obj 100 970 *~;
#X obj 100 900 +~;
#X obj 120 940 r rev-enabled;
#X obj 230 940 r~ rev-s-dry1;
#X obj 340 940 r rev-enabled;
#X obj 930 970 expr~ \\$v1 * ($f2 - 1) * -1;
#X obj 800 970 *~;
#X obj 800 900 +~;
#X obj 820 940 r rev-enabled;
#X obj 1040 940 r rev-enabled;
#X obj 930 940 r~ rev-s-dry2;
#X text 10 10 Even simpler reverb effect using PD's [rev3~];
#X obj 400 130 ./utils/declick;
#X obj 550 132 ./utils/declick;
#X obj 350 450 ./utils/declick;
#X obj 730 450 ./utils/declick;
#X obj 570 508 ./utils/declick;
#X obj 400 187 s rev-drywet;
#X obj 100 850 ./utils/balance-stereo;
#X obj 270 850 r rev-drywet;
#X obj 800 850 ./utils/balance-stereo;
#X obj 970 850 r rev-drywet;
#X connect 0 0 14 0;
#X connect 1 0 15 0;
#X connect 4 0 23 0;
#X connect 4 1 24 0;
#X connect 5 0 48 0;
#X connect 6 0 45 0;
#X connect 7 0 47 0;
#X connect 8 0 46 0;
#X connect 9 0 10 0;
#X connect 10 0 4 3;
#X connect 11 0 4 5;
#X connect 12 0 11 0;
#X connect 13 0 29 0;
#X connect 16 0 43 0;
#X connect 17 0 44 0;
#X connect 18 0 4 0;
#X connect 19 0 4 1;
#X connect 20 0 6 0;
#X connect 21 0 7 0;
#X connect 22 0 8 0;
#X connect 25 0 49 0;
#X connect 26 0 49 1;
#X connect 27 0 51 0;
#X connect 28 0 51 1;
#X connect 30 0 2 0;
#X connect 31 0 2 0;
#X connect 32 0 31 0;
#X connect 33 0 31 1;
#X connect 34 0 30 0;
#X connect 35 0 30 1;
#X connect 36 0 3 0;
#X connect 37 0 3 0;
#X connect 38 0 37 0;
#X connect 39 0 37 1;
#X connect 40 0 36 1;
#X connect 41 0 36 0;
#X connect 43 0 5 0;
#X connect 44 0 13 0;
#X connect 45 0 9 0;
#X connect 46 0 12 0;
#X connect 47 0 4 4;
#X connect 49 0 32 0;
#X connect 49 1 32 1;
#X connect 50 0 49 2;
#X connect 51 0 38 0;
#X connect 51 1 38 1;
#X connect 52 0 51 2;
#X restore 800 300 pd reverb;
#N canvas 0 49 1920 1009 midi_input 1;
#X obj 100 200 notein 1;
#X floatatom 100 230 5 0 0 1 Note - - 0 0 1, f 5;
#X floatatom 200 230 5 0 0 1 Velocity - - 0 0 1, f 5;
#X obj 900 200 ctlin 64 1;
#X floatatom 900 230 5 0 0 1 Sustain - - 0 0 1, f 5;
#X obj 100 500 ctlin 7 1;
#X floatatom 100 530 5 0 0 1 Volume_MSB - - 0 0 0, f 5;
#X obj 430 500 ctlin 11 1;
#X floatatom 430 530 5 0 0 1 Expression_MSB - - 0 0 1, f 5;
#X obj 400 200 bendin 1 1;
#X floatatom 400 230 5 0 0 1 Pitchbend - - 0 0 0, f 5;
#X obj 200 260 / 127;
#X obj 900 260 / 127;
#X obj 100 560 / 127;
#X obj 430 560 / 127;
#X text 10 10 MIDI Input Handling;
#X text 10 90 All objects below are listening in MIDI channel 1;
#X floatatom 830 530 5 0 0 1 Panorama_MSB - - 0 0 1, f 5;
#X obj 830 560 / 127;
#X obj 830 500 ctlin 10 1;
#X floatatom 240 530 5 0 0 1 Volume_LSB - - 0 0 0, f 5;
#X obj 240 500 ctlin 39 1;
#X obj 100 630 +;
#X obj 240 560 / 16384;
#X obj 240 590 trigger b f;
#X floatatom 610 530 5 0 0 1 Expression_LSB - - 0 0 0, f 5;
#X obj 610 560 / 16384;
#X obj 610 590 trigger b f;
#X obj 610 500 ctlin 43 1;
#X obj 430 640 +;
#X floatatom 1000 530 5 0 0 1 Panorama_LSB - - 0 0 0, f 5;
#X obj 1000 560 / 16384;
#X obj 1000 590 trigger b f;
#X obj 1000 500 ctlin 42 1;
#X obj 830 640 +;
#X floatatom 200 290 5 0 0 0 - - - 0 0 1, f 5;
#X floatatom 900 290 5 0 0 0 - - - 0 0 1, f 5;
#X floatatom 100 660 5 0 0 0 - - - 0 0 1, f 5;
#X floatatom 430 670 5 0 0 0 - - - 0 0 1, f 5;
#X floatatom 830 670 5 0 0 0 - - - 0 0 1, f 5;
#X floatatom 1200 530 5 0 0 1 Modulation_MSB - - 0 0 1, f 5;
#X obj 1200 560 / 127;
#X floatatom 1370 530 5 0 0 1 Modulation_LSB - - 0 0 0, f 5;
#X obj 1370 560 / 16384;
#X obj 1370 590 trigger b f;
#X obj 1200 630 +;
#X floatatom 1200 660 5 0 0 0 - - - 0 0 1, f 5;
#X obj 1200 500 ctlin 1 1;
#X obj 1370 500 ctlin 33 1;
#X obj 100 320 s in-note;
#X obj 200 320 s in-velocity;
#X obj 400 380 s in-pitchbend;
#X obj 900 320 s in-sustain;
#X obj 100 690 s p-glb-volume;
#X obj 830 700 s p-glb-panorama;
#X obj 1200 690 s in-modulation;
#X obj 430 700 s in-expression;
#X text 10 40 This subpatch receives the MIDI input \, normalizes it
and sends the resulting values to everybody who wants to receive them.
, f 63;
#X obj 400 260 expr (($f1 / 16383) * 2) - 1;
#X floatatom 630 260 5 0 0 1 Pitchbend_Range - - 0 0 1, f 5;
#X obj 400 290 *;
#X obj 630 230 r p-glb-pbrange;
#X obj 400 350 ./utils/declick;
#X floatatom 400 320 5 0 0 0 - - - 0 0 1, f 5;
#X obj 1200 260 s tg;
#X obj 1200 200 ./pd~/forward in-pitchbend;
#X obj 1230 230 ./pd~/forward in-modulation;
#X text 1200 170 ==== Forwarding to tone generator sub-processes ====
;
#X text 100 170 ==== Note On/Off ====;
#X text 400 170 ==== Pitchbend ====;
#X text 900 170 ==== Sustain ====;
#X text 430 470 ==== CC 11/43: Expression ====;
#X text 1200 470 ==== CC 1/33: Modulation ====;
#X text 830 470 ==== CC 10/42: Panorama ====;
#X text 100 470 ==== CC 7/39: Volume ====;
#X text 100 720 Automatically forwarded;
#X text 830 730 Automatically forwarded;
#X text 900 350 No forwarding needed;
#X text 430 730 No forwarding needed;
#X text 100 350 No forwarding needed;
#X connect 0 0 1 0;
#X connect 0 1 2 0;
#X connect 1 0 49 0;
#X connect 2 0 11 0;
#X connect 3 0 4 0;
#X connect 4 0 12 0;
#X connect 5 0 6 0;
#X connect 6 0 13 0;
#X connect 7 0 8 0;
#X connect 8 0 14 0;
#X connect 9 0 10 0;
#X connect 10 0 58 0;
#X connect 11 0 35 0;
#X connect 12 0 36 0;
#X connect 13 0 22 0;
#X connect 14 0 29 0;
#X connect 17 0 18 0;
#X connect 18 0 34 0;
#X connect 19 0 17 0;
#X connect 20 0 23 0;
#X connect 21 0 20 0;
#X connect 22 0 37 0;
#X connect 23 0 24 0;
#X connect 24 0 22 0;
#X connect 24 1 22 1;
#X connect 25 0 26 0;
#X connect 26 0 27 0;
#X connect 27 0 29 0;
#X connect 27 1 29 1;
#X connect 28 0 25 0;
#X connect 29 0 38 0;
#X connect 30 0 31 0;
#X connect 31 0 32 0;
#X connect 32 0 34 0;
#X connect 32 1 34 1;
#X connect 33 0 30 0;
#X connect 34 0 39 0;
#X connect 35 0 50 0;
#X connect 36 0 52 0;
#X connect 37 0 53 0;
#X connect 38 0 56 0;
#X connect 39 0 54 0;
#X connect 40 0 41 0;
#X connect 41 0 45 0;
#X connect 42 0 43 0;
#X connect 43 0 44 0;
#X connect 44 0 45 0;
#X connect 44 1 45 1;
#X connect 45 0 46 0;
#X connect 46 0 55 0;
#X connect 47 0 40 0;
#X connect 48 0 42 0;
#X connect 58 0 60 0;
#X connect 59 0 60 1;
#X connect 60 0 63 0;
#X connect 61 0 59 0;
#X connect 62 0 51 0;
#X connect 63 0 62 0;
#X connect 65 0 64 0;
#X connect 66 0 64 0;
#X coords 0 0 1 1 95 60 0;
#X restore 800 130 pd midi_input;
#N canvas 0 49 1920 1009 audio_output 0;
#X obj 100 100 inlet~;
#X obj 100 200 hip~ 1;
#X obj 100 229 clip~ -1 1;
#X obj 230 290 dac~;
#X obj 400 100 inlet~;
#X obj 400 200 hip~ 1;
#X obj 400 229 clip~ -1 1;
#X text 600 200 Remove DC Bias;
#X text 600 230 Clip output to [-1 \, 1];
#X text 10 10 Final output stage to remove DC bias and clip values
;
#X obj 100 400 s out-vu-rms1;
#X obj 130 370 s out-vu-peak1;
#X obj 430 368 s out-vu-peak2;
#X obj 400 398 s out-vu-rms2;
#X obj 100 340 ./utils/rms-peak;
#X obj 400 338 ./utils/rms-peak;
#X obj 100 150 *~;
#X obj 400 150 *~;
#X obj 900 100 r p-out-mastervolume;
#X obj 900 130 expr pow(10 \, \\$f1 / 20);
#X text 1070 130 Conversion from dB;
#X obj 900 260 s \$0-aout-matervolume;
#X obj 440 150 r \$0-aout-matervolume;
#X obj 140 150 r \$0-aout-matervolume;
#X text 600 150 Apply master volume;
#X text 600 340 VU Meters;
#X floatatom 900 180 5 0 0 1 Beta - - 0 0 1, f 5;
#X obj 900 230 ./utils/declick;
#X connect 0 0 16 0;
#X connect 1 0 2 0;
#X connect 2 0 3 0;
#X connect 2 0 14 0;
#X connect 4 0 17 0;
#X connect 5 0 6 0;
#X connect 6 0 3 1;
#X connect 6 0 15 0;
#X connect 14 0 10 0;
#X connect 14 1 11 0;
#X connect 15 0 13 0;
#X connect 15 1 12 0;
#X connect 16 0 1 0;
#X connect 17 0 5 0;
#X connect 18 0 19 0;
#X connect 19 0 26 0;
#X connect 22 0 17 1;
#X connect 23 0 16 1;
#X connect 26 0 27 0;
#X connect 27 0 21 0;
#X restore 800 330 pd audio_output;
#X obj 100 130 loadbang;
#X text 800 100 ---- Signal flow ----;
#X obj 100 160 delay 100;
#X obj 210 160 r cmd-reset-parameters;
#X obj 100 190 bng 20 250 50 0 empty empty empty 17 7 0 10 #fcfcfc
#000000 #000000 1;
#N canvas 0 49 1920 1009 volume_and_balance 0;
#X obj 100 400 inlet~;
#X obj 100 550 outlet~;
#X obj 300 550 outlet~;
#X floatatom 100 160 5 0 0 1 Volume - - 0 0 1, f 5;
#X floatatom 300 160 5 0 0 1 Expression - - 0 0 1, f 5;
#X floatatom 500 160 5 0 0 1 Panorama - - 0 0 1, f 5;
#X obj 300 190 trigger b f;
#X obj 100 450 *~;
#X obj 100 100 r p-glb-volume;
#X obj 300 100 r in-expression;
#X obj 100 130 ./utils/declick;
#X obj 300 130 ./utils/declick;
#X obj 500 130 ./utils/declick;
#X text 10 10 Total volume and balance handling;
#X obj 100 240 *;
#X floatatom 100 298 5 0 0 0 - - - 0 0 1, f 5;
#X obj 100 326 s \$0-vab-volume;
#X obj 140 450 r \$0-vab-volume;
#X obj 100 269 expr sqrt($f1);
#X obj 500 100 r p-glb-panorama;
#X obj 500 190 s \$0-vab-panorama;
#X obj 230 500 r \$0-vab-panorama;
#X obj 100 500 ./utils/pan-mono;
#X connect 0 0 7 0;
#X connect 3 0 14 0;
#X connect 4 0 6 0;
#X connect 5 0 20 0;
#X connect 6 0 14 0;
#X connect 6 1 14 1;
#X connect 7 0 22 0;
#X connect 8 0 10 0;
#X connect 9 0 11 0;
#X connect 10 0 3 0;
#X connect 11 0 4 0;
#X connect 12 0 5 0;
#X connect 14 0 18 0;
#X connect 15 0 16 0;
#X connect 17 0 7 1;
#X connect 18 0 15 0;
#X connect 19 0 12 0;
#X connect 21 0 22 1;
#X connect 22 0 1 0;
#X connect 22 1 2 0;
#X restore 800 240 pd volume_and_balance;
#X text 100 100 ---- Initialization ----;
#N canvas 0 49 1920 1009 lfo 0;
#X text 10 10 LFO Generators;
#X obj 500 220 ./utils/lfo;
#X obj 1000 220 ./utils/lfo;
#X text 500 80 ==== LFO 1 ====;
#X obj 700 100 r p-mw-lfo1;
#X obj 500 330 *;
#X obj 1000 330 *;
#X text 1000 80 ==== LFO 2 ====;
#X obj 500 110 r p-lfo1-frequency;
#X floatatom 500 140 5 0 0 1 Hz - - 0 0 1, f 5;
#X floatatom 1000 140 5 0 0 1 Hz - - 0 0 1, f 5;
#X obj 1000 110 r p-lfo2-frequency;
#X obj 700 159 moses 1;
#X msg 700 219 1;
#X obj 200 110 r in-modulation;
#X floatatom 200 140 5 0 0 1 Mod.Wheel_Position - - 0 0 0, f 5;
#X obj 300 200 value \$0-mod-wheel;
#X floatatom 700 130 5 0 0 1 M.W._LFO1 - - 0 0 0, f 5;
#X obj 760 189 bang;
#X obj 760 219 value \$0-mod-wheel;
#X floatatom 700 250 5 0 0 1 LFO1_Amplitude - - 0 0 1, f 5;
#X text 200 80 ==== Modulation Wheel ====;
#X obj 1200 159 moses 1;
#X msg 1200 219 1;
#X floatatom 1200 129 5 0 0 1 M.W._LFO2 - - 0 0 0, f 5;
#X obj 1260 189 bang;
#X obj 1260 219 value \$0-mod-wheel;
#X floatatom 1200 250 5 0 0 1 LFO2_Amplitude - - 0 0 1, f 5;
#X obj 1200 100 r p-mw-lfo2;
#X obj 500 390 hsl 128 15 -1 1 0 0 empty empty -1\ …\ 1 10 -8 0 10
#fcfcfc #000000 #000000 6350 1 0 1;
#X obj 1000 390 hsl 128 15 -1 1 0 0 empty empty -1\ …\ 1 10 -8 0
10 #fcfcfc #000000 #000000 11816 1 0 1;
#X obj 200 170 trigger b f;
#X obj 200 200 s \$0-update;
#X obj 800 100 r \$0-update;
#X obj 1300 100 r \$0-update;
#X obj 500 420 s lfo1;
#X obj 1000 420 s lfo2;
#X text 200 500 ==== Forwarding to tone generator sub-processes ====
;
#X obj 200 530 ./pd~/forward lfo1;
#X obj 210 560 ./pd~/forward lfo2;
#X obj 200 590 s tg;
#X connect 1 0 5 0;
#X connect 2 0 6 0;
#X connect 4 0 17 0;
#X connect 5 0 29 0;
#X connect 6 0 30 0;
#X connect 8 0 9 0;
#X connect 9 0 1 0;
#X connect 10 0 2 0;
#X connect 11 0 10 0;
#X connect 12 0 13 0;
#X connect 12 1 18 0;
#X connect 13 0 20 0;
#X connect 14 0 15 0;
#X connect 15 0 31 0;
#X connect 17 0 12 0;
#X connect 18 0 19 0;
#X connect 19 0 20 0;
#X connect 20 0 5 1;
#X connect 22 0 23 0;
#X connect 22 1 25 0;
#X connect 23 0 27 0;
#X connect 24 0 22 0;
#X connect 25 0 26 0;
#X connect 26 0 27 0;
#X connect 27 0 6 1;
#X connect 28 0 24 0;
#X connect 29 0 35 0;
#X connect 30 0 36 0;
#X connect 31 0 32 0;
#X connect 31 1 16 0;
#X connect 33 0 17 0;
#X connect 34 0 24 0;
#X connect 38 0 40 0;
#X connect 39 0 40 0;
#X restore 800 160 pd lfo;
#N canvas 0 49 1920 1009 init-parameters 0;
#X text 10 10 Initialize synth parameters with default values;
#X obj 100 180 inlet;
#X obj 100 880 outlet;
#X msg 360 240 \; p-lfo1-frequency 5 \; p-lfo1-p1-car-volume 0.2 \;
p-lfo1-p1-car-frequency 0 \; p-lfo1-p1-mod-volume 0 \; p-lfo1-p1-mod-frequency
0 \; \; p-lfo2-p1-car-volume 0 \; p-lfo2-p1-car-frequency 0 \; p-lfo2-p1-mod-volume
0 \; p-lfo2-p1-mod-frequency 0 \; p-lfo2-frequency 0.5 \; \; p-mw-p1-car-volume
0 \; p-mw-p1-car-frequency 0 \; p-mw-p1-mod-volume 0 \; p-mw-p1-mod-frequency
0 \; p-mw-lfo1 1 \; p-mw-lfo2 0 \;;
#X msg 130 240 \; p-out-mastervolume 20 \; \; p-glb-volume 1 \; p-glb-panorama
0 \; p-glb-pbrange 2 \; \; in-expression 1 \; in-pitchbend 0 \; in-modulation
0 \; in-sustain 0 \; \; p-cho-frequency 1.5 \; p-cho-delay 30 \; p-cho-width
1.8 \; p-cho-feedback 0 \; p-cho-drywet 0.75 \; p-cho-enabled 1 \;
\; p-rev-length 33 \; p-rev-crossover 3000 \; p-rev-hfdamping 0 \;
p-rev-drywet 0.75 \; p-rev-enabled 1 \;;
#X msg 900 240 \; p-p2-enabled 0 \; p-p2-transpose 0 \; p-p2-detune
0 \; \; p-p2-car-penv-range 0 \; p-p2-car-penv-time 0 \; \; p-p2-car-initial-level
0 \; p-p2-car-initial-time 0 \; p-p2-car-attack-level 1 \; p-p2-car-attack-time
50 \; p-p2-car-decay1-level 0.9 \; p-p2-car-decay1-time 25 \; p-p2-car-decay2-level
0.75 \; p-p2-car-decay2-time 50 \; p-p2-car-release-level 0 \; p-p2-car-release-time
400 \; \; p-p2-car-1-ratio 1 \; p-p2-car-1-volume 1 \; p-p2-car-2-ratio
2 \; p-p2-car-2-volume 0 \; p-p2-car-3-ratio 3 \; p-p2-car-3-volume
0 \; p-p2-car-4-ratio 4 \; p-p2-car-4-volume 0 \; p-p2-car-5-ratio
5 \; p-p2-car-5-volume 0 \; p-p2-car-6-ratio 6 \; p-p2-car-6-volume
0 \; p-p2-car-7-ratio 7 \; p-p2-car-7-volume 0 \; p-p2-car-8-ratio
8 \; p-p2-car-8-volume 0 \; p-p2-car-9-ratio 9 \; p-p2-car-9-volume
0 \; p-p2-car-10-ratio 10 \; p-p2-car-10-volume 0 \; p-p2-car-11-ratio
11 \; p-p2-car-11-volume 0 \; p-p2-car-12-ratio 12 \; p-p2-car-12-volume
0 \; p-p2-car-13-ratio 13 \; p-p2-car-13-volume 0 \; p-p2-car-14-ratio
14 \; p-p2-car-14-volume 0 \; p-p2-car-15-ratio 15 \; p-p2-car-15-volume
0 \; p-p2-car-16-ratio 16 \; p-p2-car-16-volume 0 \; \; p-p2-mod-penv-range
0 \; p-p2-mod-penv-time 0 \; \; p-p2-mod-initial-level 0 \; p-p2-mod-initial-time
0 \; p-p2-mod-attack-level 1 \; p-p2-mod-attack-time 1000 \; p-p2-mod-decay1-level
1 \; p-p2-mod-decay1-time 0 \; p-p2-mod-decay2-level 1 \; p-p2-mod-decay2-time
0 \; p-p2-mod-release-level 0 \; p-p2-mod-release-time 400 \; \; p-p2-mod-1-ratio
1 \; p-p2-mod-1-volume 1 \;;
#X msg 1170 240 \; p-p3-enabled 0 \; p-p3-transpose 0 \; p-p3-detune
0 \; \; p-p3-car-penv-range 0 \; p-p3-car-penv-time 0 \; \; p-p3-car-initial-level
0 \; p-p3-car-initial-time 0 \; p-p3-car-attack-level 1 \; p-p3-car-attack-time
50 \; p-p3-car-decay1-level 0.9 \; p-p3-car-decay1-time 25 \; p-p3-car-decay2-level
0.75 \; p-p3-car-decay2-time 50 \; p-p3-car-release-level 0 \; p-p3-car-release-time
400 \; \; p-p3-car-1-ratio 1 \; p-p3-car-1-volume 1 \; p-p3-car-2-ratio
2 \; p-p3-car-2-volume 0 \; p-p3-car-3-ratio 3 \; p-p3-car-3-volume
0 \; p-p3-car-4-ratio 4 \; p-p3-car-4-volume 0 \; p-p3-car-5-ratio
5 \; p-p3-car-5-volume 0 \; p-p3-car-6-ratio 6 \; p-p3-car-6-volume
0 \; p-p3-car-7-ratio 7 \; p-p3-car-7-volume 0 \; p-p3-car-8-ratio
8 \; p-p3-car-8-volume 0 \; p-p3-car-9-ratio 9 \; p-p3-car-9-volume
0 \; p-p3-car-10-ratio 10 \; p-p3-car-10-volume 0 \; p-p3-car-11-ratio
11 \; p-p3-car-11-volume 0 \; p-p3-car-12-ratio 12 \; p-p3-car-12-volume
0 \; p-p3-car-13-ratio 13 \; p-p3-car-13-volume 0 \; p-p3-car-14-ratio
14 \; p-p3-car-14-volume 0 \; p-p3-car-15-ratio 15 \; p-p3-car-15-volume
0 \; p-p3-car-16-ratio 16 \; p-p3-car-16-volume 0 \; \; p-p3-mod-penv-range
0 \; p-p3-mod-penv-time 0 \; \; p-p3-mod-initial-level 0 \; p-p3-mod-initial-time
0 \; p-p3-mod-attack-level 1 \; p-p3-mod-attack-time 1000 \; p-p3-mod-decay1-level
1 \; p-p3-mod-decay1-time 0 \; p-p3-mod-decay2-level 1 \; p-p3-mod-decay2-time
0 \; p-p3-mod-release-level 0 \; p-p3-mod-release-time 400 \; \; p-p3-mod-1-ratio
1 \; p-p3-mod-1-volume 1 \;;
#X msg 640 240 \; p-p1-enabled 1 \; p-p1-transpose 0 \; p-p1-detune
0 \; \; p-p1-car-penv-range 4 \; p-p1-car-penv-time 75 \; \; p-p1-car-initial-level
0 \; p-p1-car-initial-time 0 \; p-p1-car-attack-level 1 \; p-p1-car-attack-time
50 \; p-p1-car-decay1-level 0.9 \; p-p1-car-decay1-time 25 \; p-p1-car-decay2-level
0.75 \; p-p1-car-decay2-time 50 \; p-p1-car-release-level 0 \; p-p1-car-release-time
400 \; \; p-p1-car-1-ratio 1 \; p-p1-car-1-volume 1 \; p-p1-car-2-ratio
2 \; p-p1-car-2-volume 0 \; p-p1-car-3-ratio 3 \; p-p1-car-3-volume
0 \; p-p1-car-4-ratio 4 \; p-p1-car-4-volume 0 \; p-p1-car-5-ratio
5 \; p-p1-car-5-volume 0 \; p-p1-car-6-ratio 6 \; p-p1-car-6-volume
0 \; p-p1-car-7-ratio 7 \; p-p1-car-7-volume 0 \; p-p1-car-8-ratio
8 \; p-p1-car-8-volume 0 \; p-p1-car-9-ratio 9 \; p-p1-car-9-volume
0 \; p-p1-car-10-ratio 10 \; p-p1-car-10-volume 0 \; p-p1-car-11-ratio
11 \; p-p1-car-11-volume 0 \; p-p1-car-12-ratio 12 \; p-p1-car-12-volume
0 \; p-p1-car-13-ratio 13 \; p-p1-car-13-volume 0 \; p-p1-car-14-ratio
14 \; p-p1-car-14-volume 0 \; p-p1-car-15-ratio 15 \; p-p1-car-15-volume
0 \; p-p1-car-16-ratio 16 \; p-p1-car-16-volume 0 \; \; p-p1-mod-penv-range
4 \; p-p1-mod-penv-time 75 \; \; p-p1-mod-initial-level 0 \; p-p1-mod-initial-time
0 \; p-p1-mod-attack-level 1 \; p-p1-mod-attack-time 1000 \; p-p1-mod-decay1-level
1 \; p-p1-mod-decay1-time 0 \; p-p1-mod-decay2-level 1 \; p-p1-mod-decay2-time
0 \; p-p1-mod-release-level 0 \; p-p1-mod-release-time 400 \; \; p-p1-mod-1-ratio
1 \; p-p1-mod-1-volume 1 \;;
#X obj 100 210 trigger b b b b b b b;
#X msg 1440 240 \; p-p4-enabled 0 \; p-p4-transpose 0 \; p-p4-detune
0 \; \; p-p4-car-penv-range 0 \; p-p4-car-penv-time 0 \; \; p-p4-car-initial-level
0 \; p-p4-car-initial-time 0 \; p-p4-car-attack-level 1 \; p-p4-car-attack-time
50 \; p-p4-car-decay1-level 0.9 \; p-p4-car-decay1-time 25 \; p-p4-car-decay2-level
0.75 \; p-p4-car-decay2-time 50 \; p-p4-car-release-level 0 \; p-p4-car-release-time
400 \; \; p-p4-car-1-ratio 1 \; p-p4-car-1-volume 1 \; p-p4-car-2-ratio
2 \; p-p4-car-2-volume 0 \; p-p4-car-3-ratio 3 \; p-p4-car-3-volume
0 \; p-p4-car-4-ratio 4 \; p-p4-car-4-volume 0 \; p-p4-car-5-ratio
5 \; p-p4-car-5-volume 0 \; p-p4-car-6-ratio 6 \; p-p4-car-6-volume
0 \; p-p4-car-7-ratio 7 \; p-p4-car-7-volume 0 \; p-p4-car-8-ratio
8 \; p-p4-car-8-volume 0 \; p-p4-car-9-ratio 9 \; p-p4-car-9-volume
0 \; p-p4-car-10-ratio 10 \; p-p4-car-10-volume 0 \; p-p4-car-11-ratio
11 \; p-p4-car-11-volume 0 \; p-p4-car-12-ratio 12 \; p-p4-car-12-volume
0 \; p-p4-car-13-ratio 13 \; p-p4-car-13-volume 0 \; p-p4-car-14-ratio
14 \; p-p4-car-14-volume 0 \; p-p4-car-15-ratio 15 \; p-p4-car-15-volume
0 \; p-p4-car-16-ratio 16 \; p-p4-car-16-volume 0 \; \; p-p4-mod-penv-range
0 \; p-p4-mod-penv-time 0 \; \; p-p4-mod-initial-level 0 \; p-p4-mod-initial-time
0 \; p-p4-mod-attack-level 1 \; p-p4-mod-attack-time 1000 \; p-p4-mod-decay1-level
1 \; p-p4-mod-decay1-time 0 \; p-p4-mod-decay2-level 1 \; p-p4-mod-decay2-time
0 \; p-p4-mod-release-level 0 \; p-p4-mod-release-time 400 \; \; p-p4-mod-1-ratio
1 \; p-p4-mod-1-volume 1 \;;
#X connect 1 0 8 0;
#X connect 8 0 2 0;
#X connect 8 1 4 0;
#X connect 8 2 3 0;
#X connect 8 3 7 0;
#X connect 8 4 5 0;
#X connect 8 5 6 0;
#X connect 8 6 9 0;
#X restore 100 220 pd init-parameters;
#X text 10 10 Mini Clavier Synthesizer (backend without the GUI);
#X obj 800 190 ./tonegen-multi-process;
#X text 1040 190 ./tonegen-single-process;
#X text 1040 210 ./tonegen-multi-process;
#X text 1230 190 <-- 1 Process \, 8 Note Polyphony;
#X text 1230 210 <-- 4 Processes \, 32 Note Polyphony;
#X connect 1 0 2 0;
#X connect 1 1 2 1;
#X connect 2 0 4 0;
#X connect 2 1 4 1;
#X connect 5 0 7 0;
#X connect 7 0 9 0;
#X connect 8 0 9 0;
#X connect 9 0 13 0;
#X connect 10 0 1 0;
#X connect 10 1 1 1;
#X connect 15 0 10 0;
