#N canvas 0 49 1920 1009 12;
#X obj -30 -30 preset_hub k12 1 %hidden%;
#X text 10 10 Oscillator bank which implements the FM synthesis;
#X obj 300 200 inlet;
#X obj 300 690 phasor~;
#X obj 300 750 cos~;
#X obj 1500 200 inlet~;
#X text 350 200 Pitch and velocity;
#X obj 300 720 +~;
#X obj 300 630 *;
#X obj 300 780 *~;
#X obj 600 690 phasor~;
#X obj 600 750 cos~;
#X obj 600 720 +~;
#X obj 600 630 *;
#X obj 600 780 *~;
#X obj 900 690 phasor~;
#X obj 900 750 cos~;
#X obj 900 720 +~;
#X obj 900 630 *;
#X obj 900 780 *~;
#X obj 1200 690 phasor~;
#X obj 1200 750 cos~;
#X obj 1200 720 +~;
#X obj 1200 630 *;
#X obj 1200 780 *~;
#X obj 1500 689 phasor~;
#X obj 1500 750 cos~;
#X obj 1500 720 +~;
#X obj 1500 630 *;
#X obj 1500 780 *~;
#X obj 1800 689 phasor~;
#X obj 1800 750 cos~;
#X obj 1800 720 +~;
#X obj 1800 630 *;
#X obj 1800 780 *~;
#X obj 2100 689 phasor~;
#X obj 2100 750 cos~;
#X obj 2100 720 +~;
#X obj 2100 630 *;
#X obj 2100 780 *~;
#X obj 2400 689 phasor~;
#X obj 2400 750 cos~;
#X obj 2400 720 +~;
#X obj 2400 630 *;
#X obj 2400 780 *~;
#X obj 2700 689 phasor~;
#X obj 2700 750 cos~;
#X obj 2700 720 +~;
#X obj 2700 630 *;
#X obj 2700 780 *~;
#X obj 3000 689 phasor~;
#X obj 3000 750 cos~;
#X obj 3000 720 +~;
#X obj 3000 630 *;
#X obj 3000 780 *~;
#X obj 3300 689 phasor~;
#X obj 3300 750 cos~;
#X obj 3300 720 +~;
#X obj 3300 630 *;
#X obj 3300 780 *~;
#X obj 3600 689 phasor~;
#X obj 3600 750 cos~;
#X obj 3600 720 +~;
#X obj 3600 630 *;
#X obj 3600 780 *~;
#X obj 3900 690 phasor~;
#X obj 3900 750 cos~;
#X obj 3900 720 +~;
#X obj 3900 630 *;
#X obj 3900 780 *~;
#X obj 4200 688 phasor~;
#X obj 4200 750 cos~;
#X obj 4200 720 +~;
#X obj 4200 630 *;
#X obj 4200 780 *~;
#X obj 4500 688 phasor~;
#X obj 4500 750 cos~;
#X obj 4500 720 +~;
#X obj 4500 630 *;
#X obj 4500 780 *~;
#X obj 4800 690 phasor~;
#X obj 4800 750 cos~;
#X obj 4800 719 +~;
#X obj 4800 630 *;
#X obj 4800 780 *~;
#X obj 690 630 r p-\$1-\$2-2-ratio;
#X obj 990 630 r p-\$1-\$2-3-ratio;
#X obj 1290 630 r p-\$1-\$2-4-ratio;
#X obj 1590 630 r p-\$1-\$2-5-ratio;
#X obj 1890 629 r p-\$1-\$2-6-ratio;
#X obj 2190 630 r p-\$1-\$2-7-ratio;
#X obj 2490 629 r p-\$1-\$2-8-ratio;
#X obj 2790 630 r p-\$1-\$2-9-ratio;
#X obj 3090 629 r p-\$1-\$2-10-ratio;
#X obj 3390 629 r p-\$1-\$2-11-ratio;
#X obj 3690 629 r p-\$1-\$2-12-ratio;
#X obj 3990 628 r p-\$1-\$2-13-ratio;
#X obj 4290 628 r p-\$1-\$2-14-ratio;
#X obj 4590 630 r p-\$1-\$2-15-ratio;
#X obj 4890 630 r p-\$1-\$2-16-ratio;
#X obj 300 950 *~;
#X obj 300 1190 outlet~;
#X obj 340 1040 r \$0-velocity;
#X obj 100 200 loadbang;
#X obj 100 229 samplerate~;
#X obj 100 260 / 2;
#X obj 100 320 value _\$0_maxf;
#X obj 300 660 expr if($f1 <= _\$0_maxf \, \\$f1 \, 0);
#X obj 600 660 expr if($f1 <= _\$0_maxf \, \\$f1 \, 0);
#X obj 900 660 expr if($f1 <= _\$0_maxf \, \\$f1 \, 0);
#X obj 1200 660 expr if($f1 <= _\$0_maxf \, \\$f1 \, 0);
#X obj 1500 660 expr if($f1 <= _\$0_maxf \, \\$f1 \, 0);
#X obj 1800 660 expr if($f1 <= _\$0_maxf \, \\$f1 \, 0);
#X obj 2100 660 expr if($f1 <= _\$0_maxf \, \\$f1 \, 0);
#X obj 2400 660 expr if($f1 <= _\$0_maxf \, \\$f1 \, 0);
#X obj 2700 660 expr if($f1 <= _\$0_maxf \, \\$f1 \, 0);
#X obj 3000 660 expr if($f1 <= _\$0_maxf \, \\$f1 \, 0);
#X obj 3300 660 expr if($f1 <= _\$0_maxf \, \\$f1 \, 0);
#X obj 3600 660 expr if($f1 <= _\$0_maxf \, \\$f1 \, 0);
#X obj 3900 660 expr if($f1 <= _\$0_maxf \, \\$f1 \, 0);
#X obj 4200 660 expr if($f1 <= _\$0_maxf \, \\$f1 \, 0);
#X obj 4500 660 expr if($f1 <= _\$0_maxf \, \\$f1 \, 0);
#X obj 4800 660 expr if($f1 <= _\$0_maxf \, \\$f1 \, 0);
#X obj 390 630 r p-\$1-\$2-1-ratio;
#X text 10 40 Parameters:, f 49;
#X obj 690 780 r p-\$1-\$2-2-volume;
#X obj 990 780 r p-\$1-\$2-3-volume;
#X obj 1290 780 r p-\$1-\$2-4-volume;
#X obj 1590 780 r p-\$1-\$2-5-volume;
#X obj 1890 780 r p-\$1-\$2-6-volume;
#X obj 2190 780 r p-\$1-\$2-7-volume;
#X obj 2490 780 r p-\$1-\$2-8-volume;
#X obj 2790 780 r p-\$1-\$2-9-volume;
#X obj 3090 780 r p-\$1-\$2-10-volume;
#X obj 3390 780 r p-\$1-\$2-11-volume;
#X obj 3690 780 r p-\$1-\$2-12-volume;
#X obj 3990 780 r p-\$1-\$2-13-volume;
#X obj 4290 781 r p-\$1-\$2-14-volume;
#X obj 4590 780 r p-\$1-\$2-15-volume;
#X obj 4890 780 r p-\$1-\$2-16-volume;
#X text 100 170 ==== Initialization ====;
#X text 300 170 ==== Inlets: (Frequency \, Velocity) \, FM Modulator
====;
#X floatatom 300 260 5 0 0 1 Note - - 0 0 1, f 5;
#X floatatom 800 260 5 0 0 1 Velocity - - 0 0 1, f 5;
#X obj 930 441 s \$0-velocity;
#X obj 300 230 unpack f f;
#X obj 490 380 trigger b f;
#X floatatom 490 350 5 0 0 1 Detune_Cents - - 0 0 1, f 5;
#X floatatom 340 350 5 0 0 1 Transpose - - 0 0 1, f 5;
#X obj 340 380 trigger b f;
#X obj 300 440 mtof;
#X msg 800 441 release;
#X msg 870 441 attack;
#X obj 800 411 moses 0.0001;
#X floatatom 300 470 5 0 0 1 Frequency_Hz - - 0 0 1, f 5;
#X obj 800 471 s \$0-aenv;
#X obj 340 950 r \$0-aenv;
#X obj 300 1130 *~;
#X floatatom 100 290 5 0 0 0 - - - 0 0 1, f 5;
#X text 10 70 \$1 Partial number (p1 \, p2 \, ...), f 49;
#X text 10 90 \$2 Oscillator type (mod \, car \, ...), f 49;
#X obj 340 320 r p-\$1-transpose;
#X obj 490 320 r p-\$1-detune;
#X obj 300 550 ./apply-modulation p-mw-\$1-\$2 p-lfo1-\$1-\$2 p-lfo2-\$1-\$2
frequency, f 71;
#X obj 340 1100 ./apply-modulation p-mw-\$1-\$2 p-lfo1-\$1-\$2 p-lfo2-\$1-\$2
volume, f 65;
#X text 1550 200 FM Modulator;
#X obj 340 980 ./envgen/iaddr~ p-\$1-\$2;
#X obj 390 780 r p-\$1-\$2-1-volume;
#X obj 340 1070 * 0.0625;
#X text 410 1070 <--- /16 Oscillators;
#X obj 300 410 expr \\$f1 + \\$f2 + ($f3 * .01) + \\$f4;
#X obj 650 320 r in-pitchbend;
#X floatatom 650 350 5 0 0 1 Pitchbend - - 0 0 1, f 5;
#X obj 650 380 trigger b f;
#X obj 300 290 ./pitch-env p-\$1-\$2;
#X obj 850 290 r p-\$1-enabled;
#X obj 800 381 *;
#X obj 850 350 trigger b f;
#X obj 300 1160 hip~ 1;
#X floatatom 340 630 5 0 0 0 - - - 0 0 1, f 5;
#X floatatom 340 780 5 0 0 0 - - - 0 0 1, f 5;
#X floatatom 3340 630 5 0 0 0 - - - 0 0 1, f 5;
#X floatatom 3340 780 5 0 0 0 - - - 0 0 1, f 5;
#X floatatom 3640 630 5 0 0 0 - - - 0 0 1, f 5;
#X floatatom 3640 780 5 0 0 0 - - - 0 0 1, f 5;
#X floatatom 3940 630 5 0 0 0 - - - 0 0 1, f 5;
#X floatatom 3940 780 5 0 0 0 - - - 0 0 1, f 5;
#X floatatom 4240 630 5 0 0 0 - - - 0 0 1, f 5;
#X floatatom 4240 780 5 0 0 0 - - - 0 0 1, f 5;
#X floatatom 4540 630 5 0 0 0 - - - 0 0 1, f 5;
#X floatatom 4540 780 5 0 0 0 - - - 0 0 1, f 5;
#X floatatom 4840 630 5 0 0 0 - - - 0 0 1, f 5;
#X floatatom 4840 780 5 0 0 0 - - - 0 0 1, f 5;
#X floatatom 1840 630 5 0 0 0 - - - 0 0 1, f 5;
#X floatatom 1840 780 5 0 0 0 - - - 0 0 1, f 5;
#X floatatom 2140 630 5 0 0 0 - - - 0 0 1, f 5;
#X floatatom 2140 780 5 0 0 0 - - - 0 0 1, f 5;
#X floatatom 2440 630 5 0 0 0 - - - 0 0 1, f 5;
#X floatatom 2440 780 5 0 0 0 - - - 0 0 1, f 5;
#X floatatom 2740 630 5 0 0 0 - - - 0 0 1, f 5;
#X floatatom 2740 780 5 0 0 0 - - - 0 0 1, f 5;
#X floatatom 3040 630 5 0 0 0 - - - 0 0 1, f 5;
#X floatatom 3040 780 5 0 0 0 - - - 0 0 1, f 5;
#X floatatom 640 630 5 0 0 0 - - - 0 0 1, f 5;
#X floatatom 640 780 5 0 0 0 - - - 0 0 1, f 5;
#X floatatom 940 630 5 0 0 0 - - - 0 0 1, f 5;
#X floatatom 940 780 5 0 0 0 - - - 0 0 1, f 5;
#X floatatom 1240 630 5 0 0 0 - - - 0 0 1, f 5;
#X floatatom 1240 780 5 0 0 0 - - - 0 0 1, f 5;
#X floatatom 1540 630 5 0 0 0 - - - 0 0 1, f 5;
#X floatatom 1540 780 5 0 0 0 - - - 0 0 1, f 5;
#X obj 850 320 tgl 20 0 empty empty Enabled 25 7 0 10 #fcfcfc #000000
#000000 0 1 1;
#X obj 300 500 ./utils/declick;
#X connect 2 0 145 0;
#X connect 3 0 7 0;
#X connect 4 0 9 0;
#X connect 5 0 7 1;
#X connect 5 0 12 1;
#X connect 5 0 17 1;
#X connect 5 0 22 1;
#X connect 5 0 27 1;
#X connect 5 0 32 1;
#X connect 5 0 37 1;
#X connect 5 0 42 1;
#X connect 5 0 47 1;
#X connect 5 0 57 1;
#X connect 5 0 62 1;
#X connect 5 0 67 1;
#X connect 5 0 72 1;
#X connect 5 0 77 1;
#X connect 5 0 82 1;
#X connect 5 0 52 1;
#X connect 7 0 4 0;
#X connect 8 0 107 0;
#X connect 9 0 100 0;
#X connect 10 0 12 0;
#X connect 11 0 14 0;
#X connect 12 0 11 0;
#X connect 13 0 108 0;
#X connect 14 0 100 0;
#X connect 15 0 17 0;
#X connect 16 0 19 0;
#X connect 17 0 16 0;
#X connect 18 0 109 0;
#X connect 19 0 100 0;
#X connect 20 0 22 0;
#X connect 21 0 24 0;
#X connect 22 0 21 0;
#X connect 23 0 110 0;
#X connect 24 0 100 0;
#X connect 25 0 27 0;
#X connect 26 0 29 0;
#X connect 27 0 26 0;
#X connect 28 0 111 0;
#X connect 29 0 100 0;
#X connect 30 0 32 0;
#X connect 31 0 34 0;
#X connect 32 0 31 0;
#X connect 33 0 112 0;
#X connect 34 0 100 0;
#X connect 35 0 37 0;
#X connect 36 0 39 0;
#X connect 37 0 36 0;
#X connect 38 0 113 0;
#X connect 39 0 100 0;
#X connect 40 0 42 0;
#X connect 41 0 44 0;
#X connect 42 0 41 0;
#X connect 43 0 114 0;
#X connect 44 0 100 0;
#X connect 45 0 47 0;
#X connect 46 0 49 0;
#X connect 47 0 46 0;
#X connect 48 0 115 0;
#X connect 49 0 100 0;
#X connect 50 0 52 0;
#X connect 51 0 54 0;
#X connect 52 0 51 0;
#X connect 53 0 116 0;
#X connect 54 0 100 0;
#X connect 55 0 57 0;
#X connect 56 0 59 0;
#X connect 57 0 56 0;
#X connect 58 0 117 0;
#X connect 59 0 100 0;
#X connect 60 0 62 0;
#X connect 61 0 64 0;
#X connect 62 0 61 0;
#X connect 63 0 118 0;
#X connect 64 0 100 0;
#X connect 65 0 67 0;
#X connect 66 0 69 0;
#X connect 67 0 66 0;
#X connect 68 0 119 0;
#X connect 69 0 100 0;
#X connect 70 0 72 0;
#X connect 71 0 74 0;
#X connect 72 0 71 0;
#X connect 73 0 120 0;
#X connect 74 0 100 0;
#X connect 75 0 77 0;
#X connect 76 0 79 0;
#X connect 77 0 76 0;
#X connect 78 0 121 0;
#X connect 79 0 100 0;
#X connect 80 0 82 0;
#X connect 81 0 84 0;
#X connect 82 0 81 0;
#X connect 83 0 122 0;
#X connect 84 0 100 0;
#X connect 85 0 203 0;
#X connect 86 0 205 0;
#X connect 87 0 207 0;
#X connect 88 0 209 0;
#X connect 89 0 193 0;
#X connect 90 0 195 0;
#X connect 91 0 197 0;
#X connect 92 0 199 0;
#X connect 93 0 201 0;
#X connect 94 0 181 0;
#X connect 95 0 183 0;
#X connect 96 0 185 0;
#X connect 97 0 187 0;
#X connect 98 0 189 0;
#X connect 99 0 191 0;
#X connect 100 0 157 0;
#X connect 102 0 168 0;
#X connect 103 0 104 0;
#X connect 104 0 105 0;
#X connect 105 0 158 0;
#X connect 107 0 3 0;
#X connect 108 0 10 0;
#X connect 109 0 15 0;
#X connect 110 0 20 0;
#X connect 111 0 25 0;
#X connect 112 0 30 0;
#X connect 113 0 35 0;
#X connect 114 0 40 0;
#X connect 115 0 45 0;
#X connect 116 0 50 0;
#X connect 117 0 55 0;
#X connect 118 0 60 0;
#X connect 119 0 65 0;
#X connect 120 0 70 0;
#X connect 121 0 75 0;
#X connect 122 0 80 0;
#X connect 123 0 179 0;
#X connect 125 0 204 0;
#X connect 126 0 206 0;
#X connect 127 0 208 0;
#X connect 128 0 210 0;
#X connect 129 0 194 0;
#X connect 130 0 196 0;
#X connect 131 0 198 0;
#X connect 132 0 200 0;
#X connect 133 0 202 0;
#X connect 134 0 182 0;
#X connect 135 0 184 0;
#X connect 136 0 186 0;
#X connect 137 0 188 0;
#X connect 138 0 190 0;
#X connect 139 0 192 0;
#X connect 142 0 174 0;
#X connect 143 0 176 0;
#X connect 145 0 142 0;
#X connect 145 1 143 0;
#X connect 146 0 170 0;
#X connect 146 1 170 2;
#X connect 147 0 146 0;
#X connect 148 0 149 0;
#X connect 149 0 170 0;
#X connect 149 1 170 1;
#X connect 150 0 154 0;
#X connect 151 0 155 0;
#X connect 152 0 155 0;
#X connect 153 0 151 0;
#X connect 153 1 152 0;
#X connect 153 1 144 0;
#X connect 154 0 212 0;
#X connect 156 0 166 0;
#X connect 157 0 178 0;
#X connect 158 0 106 0;
#X connect 161 0 148 0;
#X connect 162 0 147 0;
#X connect 163 0 83 0;
#X connect 163 0 78 0;
#X connect 163 0 73 0;
#X connect 163 0 68 0;
#X connect 163 0 63 0;
#X connect 163 0 58 0;
#X connect 163 0 53 0;
#X connect 163 0 48 0;
#X connect 163 0 43 0;
#X connect 163 0 38 0;
#X connect 163 0 33 0;
#X connect 163 0 28 0;
#X connect 163 0 23 0;
#X connect 163 0 18 0;
#X connect 163 0 13 0;
#X connect 163 0 8 0;
#X connect 164 0 157 1;
#X connect 166 0 100 1;
#X connect 167 0 180 0;
#X connect 168 0 164 0;
#X connect 170 0 150 0;
#X connect 171 0 172 0;
#X connect 172 0 173 0;
#X connect 173 0 170 0;
#X connect 173 1 170 3;
#X connect 174 0 170 0;
#X connect 175 0 211 0;
#X connect 176 0 153 0;
#X connect 177 0 176 0;
#X connect 177 1 176 1;
#X connect 178 0 101 0;
#X connect 179 0 8 1;
#X connect 180 0 9 1;
#X connect 181 0 58 1;
#X connect 182 0 59 1;
#X connect 183 0 63 1;
#X connect 184 0 64 1;
#X connect 185 0 68 1;
#X connect 186 0 69 1;
#X connect 187 0 73 1;
#X connect 188 0 74 1;
#X connect 189 0 78 1;
#X connect 190 0 79 1;
#X connect 191 0 83 1;
#X connect 192 0 84 1;
#X connect 193 0 33 1;
#X connect 194 0 34 1;
#X connect 195 0 38 1;
#X connect 196 0 39 1;
#X connect 197 0 43 1;
#X connect 198 0 44 1;
#X connect 199 0 48 1;
#X connect 200 0 49 1;
#X connect 201 0 53 1;
#X connect 202 0 54 1;
#X connect 203 0 13 1;
#X connect 204 0 14 1;
#X connect 205 0 18 1;
#X connect 206 0 19 1;
#X connect 207 0 23 1;
#X connect 208 0 24 1;
#X connect 209 0 28 1;
#X connect 210 0 29 1;
#X connect 211 0 177 0;
#X connect 212 0 163 0;
