#N canvas 0 49 1920 1009 12;
#X obj -30 -30 preset_hub k12 1 %hidden%;
#X text 10 10 A simplified oscillator for the modulator, f 49;
#X obj 400 630 *;
#X obj 400 720 *~;
#X obj 400 940 *~;
#X obj 400 1000 outlet~;
#X obj 440 880 r \$0-velocity;
#X obj 100 200 loadbang;
#X obj 100 229 samplerate~;
#X obj 100 260 / 2;
#X obj 100 320 value _\$0_maxf;
#X obj 400 660 expr if($f1 <= _\$0_maxf \, \\$f1 \, 0);
#X obj 400 690 osc~;
#X text 10 40 Parameters:, f 49;
#X obj 400 200 inlet;
#X floatatom 400 260 5 0 0 1 Note - - 0 0 1, f 5;
#X floatatom 950 260 5 0 0 1 Velocity - - 0 0 1, f 5;
#X obj 1080 410 s \$0-velocity;
#X text 400 170 ==== Inlets: Frequency \, Velocity ====;
#X obj 400 230 unpack f f;
#X obj 590 380 trigger b f;
#X floatatom 590 350 5 0 0 1 Detune_Cents - - 0 0 1, f 5;
#X floatatom 440 350 5 0 0 1 Transpose - - 0 0 1, f 5;
#X obj 440 380 trigger b f;
#X obj 400 440 mtof;
#X msg 950 410 release;
#X msg 1020 410 attack;
#X obj 950 380 moses 0.0001;
#X floatatom 400 470 5 0 0 1 Frequency_Hz - - 0 0 1, f 5;
#X obj 440 770 r \$0-aenv;
#X obj 950 440 s \$0-aenv;
#X obj 400 830 *~;
#X text 100 170 ==== Initialization ====;
#X floatatom 100 290 5 0 0 0 - - - 0 0 1, f 5;
#X text 10 90 \$2 Oscillator type (mod \, car \, ...), f 49;
#X obj 440 910 ./apply-modulation p-mw-\$1-\$2 p-lfo1-\$1-\$2 p-lfo2-\$1-\$2
volume, f 65;
#X obj 760 320 r in-pitchbend;
#X floatatom 760 350 5 0 0 1 Pitchbend - - 0 0 1, f 5;
#X obj 760 380 trigger b f;
#X obj 400 410 expr \\$f1 + \\$f2 + ($f3 * .01) + \\$f4;
#X obj 440 800 ./envgen/iaddr~ p-\$1-\$2;
#X obj 400 580 ./apply-modulation p-mw-\$1-\$2 p-lfo1-\$1-\$2 p-lfo2-\$1-\$2
frequency, f 71;
#X obj 440 320 r p-\$1-transpose;
#X obj 590 320 r p-\$1-detune;
#X obj 400 290 ./pitch-env p-\$1-\$2;
#X text 10 70 \$1 Partial number (p1 \, p2 \, ...), f 49;
#X obj 490 630 r p-\$1-\$2-1-ratio;
#X obj 490 720 r p-\$1-\$2-1-volume;
#X obj 1000 290 r p-\$1-enabled;
#X obj 950 350 *;
#X obj 1000 320 trigger b f;
#X obj 400 970 hip~ 1;
#X floatatom 440 630 5 0 0 0 - - - 0 0 1, f 5;
#X floatatom 440 720 5 0 0 0 - - - 0 0 1, f 5;
#X connect 2 0 11 0;
#X connect 3 0 31 0;
#X connect 4 0 51 0;
#X connect 6 0 35 0;
#X connect 7 0 8 0;
#X connect 8 0 9 0;
#X connect 9 0 33 0;
#X connect 11 0 12 0;
#X connect 12 0 3 0;
#X connect 14 0 19 0;
#X connect 15 0 44 0;
#X connect 16 0 49 0;
#X connect 19 0 15 0;
#X connect 19 1 16 0;
#X connect 20 0 39 0;
#X connect 20 1 39 2;
#X connect 21 0 20 0;
#X connect 22 0 23 0;
#X connect 23 0 39 0;
#X connect 23 1 39 1;
#X connect 24 0 28 0;
#X connect 25 0 30 0;
#X connect 26 0 30 0;
#X connect 27 0 25 0;
#X connect 27 1 26 0;
#X connect 27 1 17 0;
#X connect 28 0 41 0;
#X connect 29 0 40 0;
#X connect 31 0 4 0;
#X connect 33 0 10 0;
#X connect 35 0 4 1;
#X connect 36 0 37 0;
#X connect 37 0 38 0;
#X connect 38 0 39 0;
#X connect 38 1 39 3;
#X connect 39 0 24 0;
#X connect 40 0 31 1;
#X connect 41 0 2 0;
#X connect 42 0 22 0;
#X connect 43 0 21 0;
#X connect 44 0 39 0;
#X connect 46 0 52 0;
#X connect 47 0 53 0;
#X connect 48 0 50 0;
#X connect 49 0 27 0;
#X connect 50 0 49 0;
#X connect 50 1 49 1;
#X connect 51 0 5 0;
#X connect 52 0 2 1;
#X connect 53 0 3 1;
