#N canvas 0 49 1920 1009 12;
#X obj -30 -30 preset_hub k12 1 %hidden%;
#X text 10 10 Minimalistic Pitch Envelope Generator, f 55;
#X obj 500 100 inlet;
#X obj 500 360 outlet;
#X floatatom 1090 130 5 0 0 1 Pitch_Env_Range - - 0 0 1, f 5;
#X floatatom 1270 130 5 0 0 1 Pitch_Env_Time - - 0 0 1, f 5;
#X text 10 40 Parameters:, f 55;
#X obj 1090 100 r \$1-penv-range;
#X obj 1270 101 r \$1-penv-time;
#X text 10 70 \$1 Prefix for receive obejcts \, e.g. "p-p1-mod", f
55;
#X obj 500 330 +;
#X obj 1090 158 value _\$0_range;
#X obj 1270 158 value _\$0_time;
#X obj 670 200 value _\$0_range;
#X obj 540 200 value _\$0_time;
#X obj 540 260 line 5;
#X msg 670 230 \$1 0;
#X obj 500 160 trigger f b b, f 25;
#X msg 540 230 0 \$1;
#X obj 540 290 trigger b f;
#X obj 500 130 change;
#X connect 2 0 20 0;
#X connect 4 0 11 0;
#X connect 5 0 12 0;
#X connect 7 0 4 0;
#X connect 8 0 5 0;
#X connect 10 0 3 0;
#X connect 13 0 16 0;
#X connect 14 0 18 0;
#X connect 15 0 19 0;
#X connect 16 0 15 0;
#X connect 17 0 10 0;
#X connect 17 1 14 0;
#X connect 17 2 13 0;
#X connect 18 0 15 0;
#X connect 19 0 10 0;
#X connect 19 1 10 1;
#X connect 20 0 17 0;
