#N canvas 0 49 1920 1009 12;
#X obj -30 -30 preset_hub k12 1 %hidden%;
#X obj 100 100 r in-note;
#X obj 190 100 r in-velocity;
#X obj 310 100 r in-sustain;
#X obj 100 160 ./clone-voice 0 10;
#X obj 100 190 outlet~;
#X text 10 10 Tone Generator: Single-Process Version (8 Notes Polyphony)
;
#X obj 100 130 ./utils/poly-sustain 8;
#X connect 1 0 7 0;
#X connect 2 0 7 1;
#X connect 3 0 7 2;
#X connect 4 0 5 0;
#X connect 7 0 4 0;
