#N canvas 0 49 1920 1009 12;
#X obj -30 -30 preset_hub k12 1 %hidden%;
#X obj 100 610 outlet~;
#X obj 100 100 inlet;
#X obj 100 150 unpack f f;
#X floatatom 100 210 5 0 0 1 Note - - 0 0 1, f 5;
#X floatatom 460 180 5 0 0 1 Velocity - - 0 0 1, f 5;
#X text 10 10 Single synthesizer voice to play a note;
#X obj 460 210 expr sqrt($f1);
#X obj 100 280 pack f f;
#X obj 100 309 trigger a a;
#X obj 140 370 ./osc-modulator p1 mod;
#X obj 100 400 ./osc-carrier p1 car;
#X obj 100 180 moses 1;
#X text 160 180 (sustain release sends note 0!);
#X obj 130 250 trigger b f;
#X obj 400 400 ./osc-carrier p2 car;
#X obj 440 370 ./osc-modulator p2 mod;
#X obj 700 410 ./osc-carrier p3 car;
#X obj 740 380 ./osc-modulator p3 mod;
#X obj 100 580 *~ 0.5;
#X obj 1039 389 ./osc-modulator p4 mod;
#X obj 1020 420 ./osc-carrier p4 car;
#X obj 150 460 r p-p1-volume;
#X obj 100 520 *~ 1;
#X obj 400 520 *~ 1;
#X obj 700 530 *~ 1;
#X obj 1020 540 *~ 1;
#X floatatom 150 490 5 0 0 0 - - - 0 0 1, f 5;
#X floatatom 440 490 5 0 0 0 - - - 0 0 1, f 5;
#X floatatom 740 500 5 0 0 0 - - - 0 0 1, f 5;
#X floatatom 1060 510 4 0 0 0 - - - 0 0 1, f 4;
#X obj 440 460 r p-p2-volume;
#X obj 740 470 r p-p3-volume;
#X obj 1060 480 r p-p4-volume;
#X connect 2 0 3 0;
#X connect 3 0 12 0;
#X connect 3 1 5 0;
#X connect 4 0 8 0;
#X connect 5 0 7 0;
#X connect 7 0 14 0;
#X connect 8 0 9 0;
#X connect 9 0 11 0;
#X connect 9 0 15 0;
#X connect 9 0 17 0;
#X connect 9 0 21 0;
#X connect 9 1 10 0;
#X connect 9 1 16 0;
#X connect 9 1 18 0;
#X connect 9 1 20 0;
#X connect 10 0 11 1;
#X connect 11 0 23 0;
#X connect 12 1 4 0;
#X connect 14 0 8 0;
#X connect 14 1 8 1;
#X connect 15 0 24 0;
#X connect 16 0 15 1;
#X connect 17 0 25 0;
#X connect 18 0 17 1;
#X connect 19 0 1 0;
#X connect 20 0 21 1;
#X connect 21 0 26 0;
#X connect 22 0 27 0;
#X connect 23 0 19 0;
#X connect 24 0 19 0;
#X connect 25 0 19 0;
#X connect 26 0 19 0;
#X connect 27 0 23 1;
#X connect 28 0 24 1;
#X connect 29 0 25 1;
#X connect 30 0 26 1;
#X connect 31 0 28 0;
#X connect 32 0 29 0;
#X connect 33 0 30 0;
