#N canvas 0 49 1920 1009 12;
#X obj -30 -30 preset_hub k12 1 %hidden%;
#X obj 100 570 outlet~;
#X obj 100 100 inlet;
#X obj 100 150 unpack f f;
#X floatatom 100 210 5 0 0 1 Note - - 0 0 1, f 5;
#X floatatom 460 180 5 0 0 1 Velocity - - 0 0 1, f 5;
#X text 10 10 Single synthesizer voice to play a note;
#X obj 460 210 expr sqrt($f1);
#X obj 100 280 pack f f;
#X obj 100 309 trigger a a;
#X obj 140 370 ./osc-modulator p1 mod;
#X obj 100 400 ./osc-carrier p1 car;
#X obj 100 180 moses 1;
#X text 160 180 (sustain release sends note 0!);
#X obj 130 250 trigger b f;
#X obj 340 400 ./osc-carrier p2 car;
#X obj 380 370 ./osc-modulator p2 mod;
#X obj 600 410 ./osc-carrier p3 car;
#X obj 640 380 ./osc-modulator p3 mod;
#X obj 100 480 *~ 0.5;
#X connect 2 0 3 0;
#X connect 3 0 12 0;
#X connect 3 1 5 0;
#X connect 4 0 8 0;
#X connect 5 0 7 0;
#X connect 7 0 14 0;
#X connect 8 0 9 0;
#X connect 9 0 11 0;
#X connect 9 0 15 0;
#X connect 9 0 17 0;
#X connect 9 1 10 0;
#X connect 9 1 16 0;
#X connect 9 1 18 0;
#X connect 10 0 11 1;
#X connect 11 0 19 0;
#X connect 12 1 4 0;
#X connect 14 0 8 0;
#X connect 14 1 8 1;
#X connect 15 0 19 0;
#X connect 16 0 15 1;
#X connect 17 0 19 0;
#X connect 18 0 17 1;
#X connect 19 0 1 0;
