#N canvas 0 49 1920 1009 12;
#X obj -30 -30 preset_hub k12 1 %hidden%;
#X obj 260 290 *~;
#X obj 100 310 s \$0-frequency;
#X obj 700 100 r \$0-frequency;
#X obj 700 200 * 1;
#X obj 700 229 osc~;
#X obj 740 160 trigger b f;
#X obj 1000 100 r \$0-frequency;
#X obj 1000 229 osc~;
#X obj 1040 160 trigger b f;
#X obj 1300 100 r \$0-frequency;
#X obj 1300 229 osc~;
#X obj 1340 160 trigger b f;
#X obj 1600 100 r \$0-frequency;
#X obj 1600 229 osc~;
#X obj 1640 160 trigger b f;
#X obj 1000 200 * 2;
#X obj 1300 200 * 3;
#X obj 1600 200 * 4;
#X obj 700 350 r \$0-frequency;
#X obj 700 479 osc~;
#X obj 740 410 trigger b f;
#X obj 1000 350 r \$0-frequency;
#X obj 1000 479 osc~;
#X obj 1040 410 trigger b f;
#X obj 1300 350 r \$0-frequency;
#X obj 1300 479 osc~;
#X obj 1340 410 trigger b f;
#X obj 1600 350 r \$0-frequency;
#X obj 1600 479 osc~;
#X obj 1640 410 trigger b f;
#X obj 700 450 * 5;
#X obj 1000 450 * 6;
#X obj 1300 450 * 7;
#X obj 1600 450 * 8;
#X obj 700 600 r \$0-frequency;
#X obj 700 729 osc~;
#X obj 740 660 trigger b f;
#X obj 1000 600 r \$0-frequency;
#X obj 1000 729 osc~;
#X obj 1040 660 trigger b f;
#X obj 1300 600 r \$0-frequency;
#X obj 1300 729 osc~;
#X obj 1340 660 trigger b f;
#X obj 1600 600 r \$0-frequency;
#X obj 1600 729 osc~;
#X obj 1640 660 trigger b f;
#X obj 700 850 r \$0-frequency;
#X obj 700 979 osc~;
#X obj 740 910 trigger b f;
#X obj 1000 850 r \$0-frequency;
#X obj 1000 979 osc~;
#X obj 1040 910 trigger b f;
#X obj 1300 850 r \$0-frequency;
#X obj 1300 979 osc~;
#X obj 1340 910 trigger b f;
#X obj 1600 850 r \$0-frequency;
#X obj 1600 979 osc~;
#X obj 1640 910 trigger b f;
#X obj 700 700 * 9;
#X obj 1000 700 * 10;
#X obj 1300 700 * 11;
#X obj 1600 700 * 12;
#X obj 700 950 * 13;
#X obj 1000 950 * 14;
#X obj 1300 950 * 15;
#X obj 1600 950 * 16;
#N canvas 0 49 1920 1009 resynthesis 0;
#X text 10 10 Resynthesis sequencer: Controls the oscillators during
playback of a resynthesized note;
#X obj 100 160 moses 0.0001;
#X obj 500 1198 list prepend \$0;
#X text 630 1198 \$0 \, harmonic \, ratio \, amplitude;
#X msg 500 1228 \; \$1-car-\$2-ratio \$3 \; \$1-car-\$2-volume \$4
;
#X text 100 70 ==== Velocity triggers note on/off ====;
#X obj 170 510 text sequence resynthesis -w wait;
#X msg 180 271 line 0;
#X obj 140 1660 spigot;
#X obj 140 1600 value release_line;
#X msg 140 1690 line \$1;
#X text 110 1550 ---- Jump to release segment \, if defined ----;
#X text 150 221 ---- Jump to sequence start ----;
#X obj 140 241 trigger b b;
#X obj 100 1440 trigger b b;
#X obj 140 191 bang;
#X obj 100 1390 bang;
#X obj 140 481 r \$0-sequence-control;
#X obj 180 301 s \$0-sequence-control;
#X obj 140 1719 s \$0-sequence-control;
#X msg 140 1470 0;
#X obj 140 1500 value _\$0_keep_playing;
#X text 110 1420 ---- Break frame loop ----;
#X text 150 351 ---- Start playing ---;
#X obj 170 1138 list trim;
#X obj 170 1168 route frame harmonic;
#X obj 210 1229 value _\$0_current_frame;
#X text 210 1249 (Remember currently playing frame);
#X text 500 1288 (Set oscillator parameters);
#X obj 180 431 value _\$0_keep_playing;
#X msg 180 401 1;
#X obj 290 839 spigot;
#X obj 290 899 s \$0-sequence-control;
#X obj 290 779 value loop_start_line;
#X text 260 619 ---- Wait for the duration of the frame ----;
#X obj 370 431 value _\$0_frame_wait_ms;
#X obj 250 669 value _\$0_frame_wait_ms;
#X obj 250 699 delay;
#X obj 570 431 value _\$0_current_frame;
#X msg 570 401 -1;
#X obj 140 371 trigger b b;
#X obj 210 1068 s \$0-sequence-control;
#X text 220 1019 ---- Skip initialization blocks before the first frame
---;
#X obj 210 560 value _\$0_current_frame;
#X obj 250 969 s \$0-sequence-control;
#X text 260 949 ---- Continue with next frame ----;
#X text 260 729 ---- Jump to loop start when note is active and loop
end has been reached ---, f 78;
#X text 180 1118 ---- Handle current message ----;
#X floatatom 100 130 5 0 0 0 - - - 0 0 1, f 5;
#X obj 100 100 inlet;
#X obj 210 1038 bang;
#X obj 210 590 moses 0;
#X text 220 539 ---- Handle end of current message block ----;
#X obj 370 402 expr frame_ms / speed;
#X msg 290 869 line \$1;
#X obj 250 749 trigger b b b, f 29;
#X obj 450 809 expr _\$0_keep_playing && (_\$0_current_frame == loop_end_frame)
&& (loop_start_frame != loop_end_frame), f 103;
#X obj 100 1570 trigger b b b, f 27;
#X obj 280 1631 expr release_frame > 0;
#X obj 170 1340 s \$0-frame-ms;
#X obj 250 639 bang;
#X obj 170 1199 trigger f f;
#X text 280 1339 (Set ramp time for amplitude changes);
#X text 180 191 (Note On);
#X text 140 1390 (Note Off);
#X obj 170 1309 expr if($f1 == 0 \, 2 \, _\$0_frame_wait_ms);
#X connect 1 0 16 0;
#X connect 1 1 15 0;
#X connect 2 0 4 0;
#X connect 6 0 24 0;
#X connect 6 1 43 0;
#X connect 7 0 18 0;
#X connect 8 0 10 0;
#X connect 9 0 8 0;
#X connect 10 0 19 0;
#X connect 13 0 40 0;
#X connect 13 1 7 0;
#X connect 14 0 57 0;
#X connect 14 1 20 0;
#X connect 15 0 13 0;
#X connect 16 0 14 0;
#X connect 17 0 6 0;
#X connect 20 0 21 0;
#X connect 24 0 25 0;
#X connect 25 0 61 0;
#X connect 25 1 2 0;
#X connect 30 0 29 0;
#X connect 31 0 54 0;
#X connect 33 0 31 0;
#X connect 36 0 37 0;
#X connect 37 0 55 0;
#X connect 39 0 38 0;
#X connect 40 0 17 0;
#X connect 40 1 30 0;
#X connect 40 1 39 0;
#X connect 40 1 53 0;
#X connect 43 0 51 0;
#X connect 48 0 1 0;
#X connect 49 0 48 0;
#X connect 50 0 41 0;
#X connect 51 0 50 0;
#X connect 51 1 60 0;
#X connect 53 0 35 0;
#X connect 54 0 32 0;
#X connect 55 0 44 0;
#X connect 55 1 33 0;
#X connect 55 2 56 0;
#X connect 56 0 31 1;
#X connect 57 1 9 0;
#X connect 57 2 58 0;
#X connect 58 0 8 1;
#X connect 60 0 36 0;
#X connect 61 0 65 0;
#X connect 61 1 26 0;
#X connect 65 0 59 0;
#X restore 520 220 pd resynthesis;
#X obj 100 100 inlet;
#X floatatom 100 159 5 0 0 0 - - - 0 0 1, f 5;
#X floatatom 420 160 5 0 0 0 - - - 0 0 1, f 5;
#X obj 260 380 outlet~;
#X text 10 10 A single oscillator;
#X obj 770 230 r \$0-car-1-volume;
#X obj 740 130 r \$0-car-1-ratio;
#X obj 1040 130 r \$0-car-2-ratio;
#X obj 1070 230 r \$0-car-2-volume;
#X obj 1340 130 r \$0-car-3-ratio;
#X obj 1370 230 r \$0-car-3-volume;
#X obj 1640 130 r \$0-car-4-ratio;
#X obj 1670 230 r \$0-car-4-volume;
#X obj 740 380 r \$0-car-5-ratio;
#X obj 770 480 r \$0-car-5-volume;
#X obj 1040 380 r \$0-car-6-ratio;
#X obj 1070 480 r \$0-car-6-volume;
#X obj 1340 380 r \$0-car-7-ratio;
#X obj 1370 480 r \$0-car-7-volume;
#X obj 1640 380 r \$0-car-8-ratio;
#X obj 1670 480 r \$0-car-8-volume;
#X obj 740 630 r \$0-car-9-ratio;
#X obj 770 730 r \$0-car-9-volume;
#X obj 1040 630 r \$0-car-10-ratio;
#X obj 1070 730 r \$0-car-10-volume;
#X obj 1340 630 r \$0-car-11-ratio;
#X obj 1370 730 r \$0-car-11-volume;
#X obj 1640 630 r \$0-car-12-ratio;
#X obj 1670 730 r \$0-car-12-volume;
#X obj 740 880 r \$0-car-13-ratio;
#X obj 770 980 r \$0-car-13-volume;
#X obj 1040 880 r \$0-car-14-ratio;
#X obj 1070 980 r \$0-car-14-volume;
#X obj 1340 880 r \$0-car-15-ratio;
#X obj 1370 980 r \$0-car-15-volume;
#X obj 1640 880 r \$0-car-16-ratio;
#X obj 1670 980 r \$0-car-16-volume;
#X obj 260 190 catch~ \$0-oscbank;
#X obj 700 290 throw~ \$0-oscbank;
#X obj 1000 290 throw~ \$0-oscbank;
#X obj 1300 290 throw~ \$0-oscbank;
#X obj 1600 290 throw~ \$0-oscbank;
#X obj 1600 540 throw~ \$0-oscbank;
#X obj 1300 540 throw~ \$0-oscbank;
#X obj 1000 540 throw~ \$0-oscbank;
#X obj 700 540 throw~ \$0-oscbank;
#X obj 700 790 throw~ \$0-oscbank;
#X obj 1000 790 throw~ \$0-oscbank;
#X obj 1300 790 throw~ \$0-oscbank;
#X obj 1600 790 throw~ \$0-oscbank;
#X obj 700 1040 throw~ \$0-oscbank;
#X obj 1000 1040 throw~ \$0-oscbank;
#X obj 1300 1040 throw~ \$0-oscbank;
#X obj 1600 1040 throw~ \$0-oscbank;
#X obj 100 130 unpack f f;
#X obj 420 190 trigger f f;
#X obj 420 220 moses 0.0001;
#X obj 700 260 ./oscillator-line~ \$0-frame-ms;
#X obj 1000 260 ./oscillator-line~ \$0-frame-ms;
#X obj 1300 260 ./oscillator-line~ \$0-frame-ms;
#X obj 1600 260 ./oscillator-line~ \$0-frame-ms;
#X obj 1600 510 ./oscillator-line~ \$0-frame-ms;
#X obj 1300 510 ./oscillator-line~ \$0-frame-ms;
#X obj 1000 510 ./oscillator-line~ \$0-frame-ms;
#X obj 700 510 ./oscillator-line~ \$0-frame-ms;
#X obj 700 760 ./oscillator-line~ \$0-frame-ms;
#X obj 1000 760 ./oscillator-line~ \$0-frame-ms;
#X obj 1300 760 ./oscillator-line~ \$0-frame-ms;
#X obj 1600 760 ./oscillator-line~ \$0-frame-ms;
#X obj 1600 1010 ./oscillator-line~ \$0-frame-ms;
#X obj 1300 1010 ./oscillator-line~ \$0-frame-ms;
#X obj 1000 1010 ./oscillator-line~ \$0-frame-ms;
#X obj 700 1010 ./oscillator-line~ \$0-frame-ms;
#X obj 140 220 value detune;
#X obj 100 250 *;
#X obj 100 190 trigger f b;
#X floatatom 100 279 5 0 0 0 - - - 0 0 1, f 5;
#X obj 300 320 ./envgen/iaddr~ p-resynth;
#X obj 260 350 *~;
#X msg 370 290 attack;
#X msg 300 290 release;
#X obj 450 250 trigger f b;
#X connect 1 0 146 0;
#X connect 3 0 4 0;
#X connect 4 0 5 0;
#X connect 5 0 125 0;
#X connect 6 0 4 0;
#X connect 6 1 4 1;
#X connect 7 0 16 0;
#X connect 8 0 126 0;
#X connect 9 0 16 0;
#X connect 9 1 16 1;
#X connect 10 0 17 0;
#X connect 11 0 127 0;
#X connect 12 0 17 0;
#X connect 12 1 17 1;
#X connect 13 0 18 0;
#X connect 14 0 128 0;
#X connect 15 0 18 0;
#X connect 15 1 18 1;
#X connect 16 0 8 0;
#X connect 17 0 11 0;
#X connect 18 0 14 0;
#X connect 19 0 31 0;
#X connect 20 0 132 0;
#X connect 21 0 31 0;
#X connect 21 1 31 1;
#X connect 22 0 32 0;
#X connect 23 0 131 0;
#X connect 24 0 32 0;
#X connect 24 1 32 1;
#X connect 25 0 33 0;
#X connect 26 0 130 0;
#X connect 27 0 33 0;
#X connect 27 1 33 1;
#X connect 28 0 34 0;
#X connect 29 0 129 0;
#X connect 30 0 34 0;
#X connect 30 1 34 1;
#X connect 31 0 20 0;
#X connect 32 0 23 0;
#X connect 33 0 26 0;
#X connect 34 0 29 0;
#X connect 35 0 59 0;
#X connect 36 0 133 0;
#X connect 37 0 59 0;
#X connect 37 1 59 1;
#X connect 38 0 60 0;
#X connect 39 0 134 0;
#X connect 40 0 60 0;
#X connect 40 1 60 1;
#X connect 41 0 61 0;
#X connect 42 0 135 0;
#X connect 43 0 61 0;
#X connect 43 1 61 1;
#X connect 44 0 62 0;
#X connect 45 0 136 0;
#X connect 46 0 62 0;
#X connect 46 1 62 1;
#X connect 47 0 63 0;
#X connect 48 0 140 0;
#X connect 49 0 63 0;
#X connect 49 1 63 1;
#X connect 50 0 64 0;
#X connect 51 0 139 0;
#X connect 52 0 64 0;
#X connect 52 1 64 1;
#X connect 53 0 65 0;
#X connect 54 0 138 0;
#X connect 55 0 65 0;
#X connect 55 1 65 1;
#X connect 56 0 66 0;
#X connect 57 0 137 0;
#X connect 58 0 66 0;
#X connect 58 1 66 1;
#X connect 59 0 36 0;
#X connect 60 0 39 0;
#X connect 61 0 42 0;
#X connect 62 0 45 0;
#X connect 63 0 48 0;
#X connect 64 0 51 0;
#X connect 65 0 54 0;
#X connect 66 0 57 0;
#X connect 68 0 122 0;
#X connect 69 0 143 0;
#X connect 70 0 123 0;
#X connect 73 0 125 1;
#X connect 74 0 6 0;
#X connect 75 0 9 0;
#X connect 76 0 126 1;
#X connect 77 0 12 0;
#X connect 78 0 127 1;
#X connect 79 0 15 0;
#X connect 80 0 128 1;
#X connect 81 0 21 0;
#X connect 82 0 132 1;
#X connect 83 0 24 0;
#X connect 84 0 131 1;
#X connect 85 0 27 0;
#X connect 86 0 130 1;
#X connect 87 0 30 0;
#X connect 88 0 129 1;
#X connect 89 0 37 0;
#X connect 90 0 133 1;
#X connect 91 0 40 0;
#X connect 92 0 134 1;
#X connect 93 0 43 0;
#X connect 94 0 135 1;
#X connect 95 0 46 0;
#X connect 96 0 136 1;
#X connect 97 0 49 0;
#X connect 98 0 140 1;
#X connect 99 0 52 0;
#X connect 100 0 139 1;
#X connect 101 0 55 0;
#X connect 102 0 138 1;
#X connect 103 0 58 0;
#X connect 104 0 137 1;
#X connect 105 0 1 0;
#X connect 122 0 69 0;
#X connect 122 1 70 0;
#X connect 123 0 124 0;
#X connect 123 1 67 0;
#X connect 124 0 148 0;
#X connect 124 1 149 0;
#X connect 125 0 106 0;
#X connect 126 0 107 0;
#X connect 127 0 108 0;
#X connect 128 0 109 0;
#X connect 129 0 110 0;
#X connect 130 0 111 0;
#X connect 131 0 112 0;
#X connect 132 0 113 0;
#X connect 133 0 114 0;
#X connect 134 0 115 0;
#X connect 135 0 116 0;
#X connect 136 0 117 0;
#X connect 137 0 121 0;
#X connect 138 0 120 0;
#X connect 139 0 119 0;
#X connect 140 0 118 0;
#X connect 141 0 142 1;
#X connect 142 0 144 0;
#X connect 143 0 142 0;
#X connect 143 1 141 0;
#X connect 144 0 2 0;
#X connect 145 0 146 1;
#X connect 146 0 71 0;
#X connect 147 0 145 0;
#X connect 148 0 145 0;
#X connect 149 0 1 1;
#X connect 149 1 147 0;
