#N canvas 960 25 960 1033 12;
#X obj -30 -30 preset_hub k12 1 %hidden%;
#X msg 640 290 \$1 \$2;
#X obj 640 260 pack f f;
#X obj 640 230 inlet;
#X text 10 40 Arguments:, f 71;
#X text 10 90 Inlets:, f 71;
#X text 10 160 Outlets:, f 71;
#X text 10 10 Audio ramp to mitigate staircase effect of the synthesizes
frames., f 71;
#X text 10 130 2 - New target value, f 71;
#X text 10 180 1 - Ramped sigal, f 71;
#X text 10 110 1 - Audio signal (harmonic amplitude), f 71;
#X obj 640 320 line~;
#X obj 600 350 *~;
#X obj 600 380 outlet~;
#X obj 600 200 inlet~;
#X text 10 60 \$1 Receive name with the length of the ramp in ms \,
e.g. "frame_ms", f 71;
#X obj 760 260 r \$1;
#X floatatom 710 260 5 0 0 0 - - - 0 0 1, f 5;
#X connect 1 0 11 0;
#X connect 2 0 1 0;
#X connect 3 0 2 0;
#X connect 11 0 12 1;
#X connect 12 0 13 0;
#X connect 14 0 12 0;
#X connect 16 0 17 0;
#X connect 17 0 2 1;
