#N canvas 0 49 640 1033 12;
#X obj -30 -30 preset_hub k12 1 %hidden%;
#X obj 220 160 s \$0-velocity;
#X obj 400 130 *~;
#X obj 450 130 r \$0-velocity;
#X obj 100 160 s \$0-frequency;
#X obj 700 100 r \$0-frequency;
#X obj 700 200 * 1;
#X obj 700 229 osc~;
#X obj 700 260 *~ 0;
#X obj 740 160 trigger b f;
#X obj 1000 100 r \$0-frequency;
#X obj 1000 229 osc~;
#X obj 1000 260 *~ 0;
#X obj 1040 160 trigger b f;
#X obj 1300 100 r \$0-frequency;
#X obj 1300 229 osc~;
#X obj 1300 260 *~ 0;
#X obj 1340 160 trigger b f;
#X obj 1600 100 r \$0-frequency;
#X obj 1600 229 osc~;
#X obj 1600 260 *~ 0;
#X obj 1640 160 trigger b f;
#X obj 1000 200 * 2;
#X obj 1300 200 * 3;
#X obj 1600 200 * 4;
#X obj 700 350 r \$0-frequency;
#X obj 700 479 osc~;
#X obj 700 510 *~ 0;
#X obj 740 410 trigger b f;
#X obj 1000 350 r \$0-frequency;
#X obj 1000 479 osc~;
#X obj 1000 510 *~ 0;
#X obj 1040 410 trigger b f;
#X obj 1300 350 r \$0-frequency;
#X obj 1300 479 osc~;
#X obj 1300 510 *~ 0;
#X obj 1340 410 trigger b f;
#X obj 1600 350 r \$0-frequency;
#X obj 1600 479 osc~;
#X obj 1600 510 *~ 0;
#X obj 1640 410 trigger b f;
#X obj 700 450 * 5;
#X obj 1000 450 * 6;
#X obj 1300 450 * 7;
#X obj 1600 450 * 8;
#X obj 700 600 r \$0-frequency;
#X obj 700 729 osc~;
#X obj 700 760 *~ 0;
#X obj 740 660 trigger b f;
#X obj 1000 600 r \$0-frequency;
#X obj 1000 729 osc~;
#X obj 1000 760 *~ 0;
#X obj 1040 660 trigger b f;
#X obj 1300 600 r \$0-frequency;
#X obj 1300 729 osc~;
#X obj 1300 760 *~ 0;
#X obj 1340 660 trigger b f;
#X obj 1600 600 r \$0-frequency;
#X obj 1600 729 osc~;
#X obj 1600 760 *~ 0;
#X obj 1640 660 trigger b f;
#X obj 700 850 r \$0-frequency;
#X obj 700 979 osc~;
#X obj 700 1010 *~ 0;
#X obj 740 910 trigger b f;
#X obj 1000 850 r \$0-frequency;
#X obj 1000 979 osc~;
#X obj 1000 1010 *~ 0;
#X obj 1040 910 trigger b f;
#X obj 1300 850 r \$0-frequency;
#X obj 1300 979 osc~;
#X obj 1300 1010 *~ 0;
#X obj 1340 910 trigger b f;
#X obj 1600 850 r \$0-frequency;
#X obj 1600 979 osc~;
#X obj 1600 1010 *~ 0;
#X obj 1640 910 trigger b f;
#X obj 700 700 * 9;
#X obj 1000 700 * 10;
#X obj 1300 700 * 11;
#X obj 1600 700 * 12;
#X obj 700 950 * 13;
#X obj 1000 950 * 14;
#X obj 1300 950 * 15;
#X obj 1600 950 * 16;
#N canvas 0 49 1920 1009 resynthesis 1;
#X text 10 10 Resynthesis sequencer: Controls the oscillators during
playback of a resynthesized note;
#X obj 100 100 r \$0-velocity;
#X obj 100 129 moses 0.0001;
#X obj 190 360 print;
#X obj 190 270 until;
#X msg 190 300 step;
#X obj 270 360 s \$0-stop-loop;
#X obj 190 330 text sequence resynthesis -w wait;
#X obj 240 270 r \$0-stop-loop;
#X obj 160 240 until 2;
#X text 140 190 ---- Skip initialization parameters ----;
#X obj 700 100 r \$0-message;
#X text 140 410 ---- Initialize frame counters ----;
#X obj 340 490 value _\$0_loop_start_line;
#X obj 540 490 value _\$0_loop_end_line;
#X obj 160 490 value _\$0_current_frame;
#X text 210 160 (Note On);
#X obj 700 130 list trim;
#X obj 700 160 route harmonic;
#X obj 700 190 list prepend \$0;
#X text 820 190 \$0 \, harmonic \, ratio \, amplitude;
#X msg 700 220 \; \$1-car-\$2-ratio \$3 \; \$1-car-\$2-volume \$4;
#X text 100 70 ==== Velocity triggers note on/off ====;
#X text 700 70 ==== Set harmonic oscillator parameters ====;
#X text 140 580 ---- Loop through the note ----;
#X obj 130 160 bang;
#X obj 130 210 trigger b b;
#X obj 130 430 trigger b b;
#X obj 130 600 until;
#X obj 130 630 text sequence resynthesis -w wait;
#X obj 180 600 r \$0-stop-note;
#X obj 340 660 s \$0-stop-note;
#X msg 160 460 0;
#X obj 370 810 expr _\$0_current_frame + 1;
#X obj 370 840 value _\$0_current_frame;
#X text 450 660 Stop note at the end of the sequence;
#X connect 1 0 2 0;
#X connect 2 1 25 0;
#X connect 4 0 5 0;
#X connect 5 0 7 0;
#X connect 7 0 3 0;
#X connect 7 1 6 0;
#X connect 7 2 6 0;
#X connect 8 0 4 1;
#X connect 9 0 4 0;
#X connect 11 0 17 0;
#X connect 17 0 18 0;
#X connect 18 0 19 0;
#X connect 19 0 21 0;
#X connect 25 0 26 0;
#X connect 26 0 27 0;
#X connect 26 1 9 0;
#X connect 27 0 28 0;
#X connect 27 1 32 0;
#X connect 28 0 29 0;
#X connect 29 2 31 0;
#X connect 30 0 28 1;
#X connect 32 0 13 0;
#X connect 32 0 14 0;
#X connect 32 0 15 0;
#X connect 33 0 34 0;
#X restore 100 280 pd resynthesis;
#X obj 100 100 inlet;
#X floatatom 100 129 5 0 0 0 - - - 0 0 1, f 5;
#X obj 220 100 inlet;
#X floatatom 220 130 5 0 0 0 - - - 0 0 1, f 5;
#X obj 400 160 outlet~;
#X text 10 10 A single oscillator;
#X obj 750 260 r \$0-car-1-volume;
#X obj 740 130 r \$0-car-1-ratio;
#X obj 1040 130 r \$0-car-2-ratio;
#X obj 1050 260 r \$0-car-2-volume;
#X obj 1340 130 r \$0-car-3-ratio;
#X obj 1350 260 r \$0-car-3-volume;
#X obj 1640 130 r \$0-car-4-ratio;
#X obj 1650 260 r \$0-car-4-volume;
#X obj 740 380 r \$0-car-5-ratio;
#X obj 750 510 r \$0-car-5-volume;
#X obj 1040 380 r \$0-car-6-ratio;
#X obj 1050 510 r \$0-car-6-volume;
#X obj 1340 380 r \$0-car-7-ratio;
#X obj 1350 510 r \$0-car-7-volume;
#X obj 1640 380 r \$0-car-8-ratio;
#X obj 1650 510 r \$0-car-8-volume;
#X obj 740 630 r \$0-car-9-ratio;
#X obj 750 760 r \$0-car-9-volume;
#X obj 1040 630 r \$0-car-10-ratio;
#X obj 1050 760 r \$0-car-10-volume;
#X obj 1340 630 r \$0-car-11-ratio;
#X obj 1350 760 r \$0-car-11-volume;
#X obj 1640 630 r \$0-car-12-ratio;
#X obj 1650 760 r \$0-car-12-volume;
#X obj 740 880 r \$0-car-13-ratio;
#X obj 750 1010 r \$0-car-13-volume;
#X obj 1040 880 r \$0-car-14-ratio;
#X obj 1050 1010 r \$0-car-14-volume;
#X obj 1340 880 r \$0-car-15-ratio;
#X obj 1350 1010 r \$0-car-15-volume;
#X obj 1640 880 r \$0-car-16-ratio;
#X obj 1650 1010 r \$0-car-16-volume;
#X obj 400 100 catch~ \$0-oscbank;
#X obj 700 290 throw~ \$0-oscbank;
#X obj 1000 290 throw~ \$0-oscbank;
#X obj 1300 290 throw~ \$0-oscbank;
#X obj 1600 290 throw~ \$0-oscbank;
#X obj 1600 540 throw~ \$0-oscbank;
#X obj 1300 540 throw~ \$0-oscbank;
#X obj 1000 540 throw~ \$0-oscbank;
#X obj 700 540 throw~ \$0-oscbank;
#X obj 700 790 throw~ \$0-oscbank;
#X obj 1000 790 throw~ \$0-oscbank;
#X obj 1300 790 throw~ \$0-oscbank;
#X obj 1600 790 throw~ \$0-oscbank;
#X obj 700 1040 throw~ \$0-oscbank;
#X obj 1000 1040 throw~ \$0-oscbank;
#X obj 1300 1040 throw~ \$0-oscbank;
#X obj 1600 1040 throw~ \$0-oscbank;
#X connect 2 0 90 0;
#X connect 3 0 2 1;
#X connect 5 0 6 0;
#X connect 6 0 7 0;
#X connect 7 0 8 0;
#X connect 8 0 125 0;
#X connect 9 0 6 0;
#X connect 9 1 6 1;
#X connect 10 0 22 0;
#X connect 11 0 12 0;
#X connect 12 0 126 0;
#X connect 13 0 22 0;
#X connect 13 1 22 1;
#X connect 14 0 23 0;
#X connect 15 0 16 0;
#X connect 16 0 127 0;
#X connect 17 0 23 0;
#X connect 17 1 23 1;
#X connect 18 0 24 0;
#X connect 19 0 20 0;
#X connect 20 0 128 0;
#X connect 21 0 24 0;
#X connect 21 1 24 1;
#X connect 22 0 11 0;
#X connect 23 0 15 0;
#X connect 24 0 19 0;
#X connect 25 0 41 0;
#X connect 26 0 27 0;
#X connect 27 0 132 0;
#X connect 28 0 41 0;
#X connect 28 1 41 1;
#X connect 29 0 42 0;
#X connect 30 0 31 0;
#X connect 31 0 131 0;
#X connect 32 0 42 0;
#X connect 32 1 42 1;
#X connect 33 0 43 0;
#X connect 34 0 35 0;
#X connect 35 0 130 0;
#X connect 36 0 43 0;
#X connect 36 1 43 1;
#X connect 37 0 44 0;
#X connect 38 0 39 0;
#X connect 39 0 129 0;
#X connect 40 0 44 0;
#X connect 40 1 44 1;
#X connect 41 0 26 0;
#X connect 42 0 30 0;
#X connect 43 0 34 0;
#X connect 44 0 38 0;
#X connect 45 0 77 0;
#X connect 46 0 47 0;
#X connect 47 0 133 0;
#X connect 48 0 77 0;
#X connect 48 1 77 1;
#X connect 49 0 78 0;
#X connect 50 0 51 0;
#X connect 51 0 134 0;
#X connect 52 0 78 0;
#X connect 52 1 78 1;
#X connect 53 0 79 0;
#X connect 54 0 55 0;
#X connect 55 0 135 0;
#X connect 56 0 79 0;
#X connect 56 1 79 1;
#X connect 57 0 80 0;
#X connect 58 0 59 0;
#X connect 59 0 136 0;
#X connect 60 0 80 0;
#X connect 60 1 80 1;
#X connect 61 0 81 0;
#X connect 62 0 63 0;
#X connect 63 0 137 0;
#X connect 64 0 81 0;
#X connect 64 1 81 1;
#X connect 65 0 82 0;
#X connect 66 0 67 0;
#X connect 67 0 138 0;
#X connect 68 0 82 0;
#X connect 68 1 82 1;
#X connect 69 0 83 0;
#X connect 70 0 71 0;
#X connect 71 0 139 0;
#X connect 72 0 83 0;
#X connect 72 1 83 1;
#X connect 73 0 84 0;
#X connect 74 0 75 0;
#X connect 75 0 140 0;
#X connect 76 0 84 0;
#X connect 76 1 84 1;
#X connect 77 0 46 0;
#X connect 78 0 50 0;
#X connect 79 0 54 0;
#X connect 80 0 58 0;
#X connect 81 0 62 0;
#X connect 82 0 66 0;
#X connect 83 0 70 0;
#X connect 84 0 74 0;
#X connect 86 0 87 0;
#X connect 87 0 4 0;
#X connect 88 0 89 0;
#X connect 89 0 1 0;
#X connect 92 0 8 1;
#X connect 93 0 9 0;
#X connect 94 0 13 0;
#X connect 95 0 12 1;
#X connect 96 0 17 0;
#X connect 97 0 16 1;
#X connect 98 0 21 0;
#X connect 99 0 20 1;
#X connect 100 0 28 0;
#X connect 101 0 27 1;
#X connect 102 0 32 0;
#X connect 103 0 31 1;
#X connect 104 0 36 0;
#X connect 105 0 35 1;
#X connect 106 0 40 0;
#X connect 107 0 39 1;
#X connect 108 0 48 0;
#X connect 109 0 47 1;
#X connect 110 0 52 0;
#X connect 111 0 51 1;
#X connect 112 0 56 0;
#X connect 113 0 55 1;
#X connect 114 0 60 0;
#X connect 115 0 59 1;
#X connect 116 0 64 0;
#X connect 117 0 63 1;
#X connect 118 0 68 0;
#X connect 119 0 67 1;
#X connect 120 0 72 0;
#X connect 121 0 71 1;
#X connect 122 0 76 0;
#X connect 123 0 75 1;
#X connect 124 0 2 0;
