#N canvas 0 49 1920 1009 12;
#X obj -30 -30 preset_hub k12 1 %hidden%;
#X text 10 10 === Tuning Fork: Backend without the GUI ===;
#X obj 120 330 notein 1;
#X obj 100 130 r trigger-bing;
#X obj 100 100 bng 20 250 50 0 empty empty empty 17 7 0 10 #fcfcfc
#000000 #000000 1;
#X floatatom 100 400 5 0 0 1 Voice - - 0 0 1, f 5;
#X floatatom 190 400 5 0 0 1 Note - - 0 0 1, f 5;
#X floatatom 270 400 5 0 0 1 Velocity - - 0 0 1, f 5;
#X obj 100 190 makenote 127 500;
#X msg 100 160 69;
#X obj 100 219 pack f f;
#X text 140 160 Note number;
#X text 230 190 Velocity \, Duration [ms];
#X text 130 100 <--- Manual trigger;
#X text 190 330 <--- MIDI Input;
#X obj 100 568 dac~;
#X obj 100 428 pack f f f;
#X obj 100 360 poly 16 1;
#X obj 100 510 clone -s 1 voice 16;
#X text 250 510 <--- 16 (polyphony);
#X text 180 360 <--- 16 (polyphony);
#X obj 100 540 *~ 0.2;
#X connect 2 0 17 0;
#X connect 2 1 17 1;
#X connect 3 0 9 0;
#X connect 4 0 3 0;
#X connect 5 0 16 0;
#X connect 6 0 16 1;
#X connect 7 0 16 2;
#X connect 8 0 10 0;
#X connect 8 1 10 1;
#X connect 9 0 8 0;
#X connect 10 0 17 0;
#X connect 16 0 18 0;
#X connect 17 0 5 0;
#X connect 17 1 6 0;
#X connect 17 2 7 0;
#X connect 18 0 21 0;
#X connect 21 0 15 0;
#X connect 21 0 15 1;
