#N canvas 0 49 1920 1009 12;
#X obj -30 -30 preset_hub k12 1 %hidden%;
#X text 10 10 Multi-Processing Example: Main patch, f 69;
#X obj 200 130 notein 1;
#X text 200 100 ==== MIDI Input ====;
#X text 500 100 ==== Some GUI Parameters ====;
#X obj 500 130 loadbang;
#X obj 800 130 loadbang;
#X floatatom 500 190 5 0 0 1 Transpose_1 - - 0 0 1, f 5;
#X floatatom 800 190 5 0 0 1 Transpose_2 - - 0 0 1, f 5;
#X obj 200 160 ./utils/poly-sustain 8;
#X obj 200 190 s in-voice;
#X obj 730 930 dac~;
#X obj 200 760 pd~ -ninsig 0 -noutsig 1;
#X obj 200 430 loadbang;
#X text 560 220 Handled by sub-process 1;
#X text 860 220 Handled by sub-process 2;
#X text 240 650 Forward messages to sub-process (not done automatically)
;
#X obj 240 670 ./pd~/forward in-voice;
#X text 210 480 Init message handled in wrapper to pass \\$-arguments
;
#X text 240 550 Instantiate custom object in sub-process;
#X obj 1100 760 pd~ -ninsig 0 -noutsig 1;
#X obj 1100 430 loadbang;
#X text 1140 650 Forward messages to sub-process (not done automatically)
;
#X obj 1140 670 ./pd~/forward in-voice;
#X text 1110 480 Init message handled in wrapper to pass \\$-arguments
;
#X text 1140 550 Instantiate custom object in sub-process;
#X obj 200 790 route PD_READY;
#X obj 1100 790 route PD_READY;
#X msg 1100 500 pd~ start -rt -nogui ./pd~/wrapper.pd, f 38;
#X obj 320 790 print PD1;
#X obj 1220 790 print PD2;
#X obj 500 220 s p-t1;
#X obj 800 220 s p-t2;
#X msg 240 600 init ../subprocess 8 p-t1;
#X msg 1140 600 init ../subprocess 8 p-t2;
#X obj 240 700 ./pd~/forward p-t1;
#X obj 240 730 ./pd~/forward p-t2;
#X obj 1140 700 ./pd~/forward p-t1;
#X obj 1140 730 ./pd~/forward p-t2;
#X msg 500 160 0;
#X msg 200 500 pd~ start -rt -nogui ./pd~/wrapper.pd, f 38;
#X obj 730 900 *~ 0.33;
#X obj 340 850 s \$0-pd1-ready;
#X obj 200 850 s \$0-resend-params;
#X obj 240 570 r \$0-pd1-ready;
#X obj 1140 570 r \$0-pd2-ready;
#X obj 200 820 trigger b b;
#X obj 1100 850 s \$0-resend-params;
#X obj 1100 820 trigger b b;
#X obj 1240 850 s \$0-pd2-ready;
#X obj 550 160 r \$0-resend-params;
#X obj 850 160 r \$0-resend-params;
#X msg 800 160 7;
#X obj 370 130 ctlin 64 1;
#X obj 320 130 / 127;
#X connect 2 0 9 0;
#X connect 2 1 9 1;
#X connect 5 0 39 0;
#X connect 6 0 52 0;
#X connect 7 0 31 0;
#X connect 8 0 32 0;
#X connect 9 0 10 0;
#X connect 12 0 26 0;
#X connect 12 0 29 0;
#X connect 12 1 41 0;
#X connect 13 0 40 0;
#X connect 17 0 12 0;
#X connect 20 0 27 0;
#X connect 20 0 30 0;
#X connect 20 1 41 0;
#X connect 21 0 28 0;
#X connect 23 0 20 0;
#X connect 26 0 46 0;
#X connect 27 0 48 0;
#X connect 28 0 20 0;
#X connect 33 0 12 0;
#X connect 34 0 20 0;
#X connect 35 0 12 0;
#X connect 36 0 12 0;
#X connect 37 0 20 0;
#X connect 38 0 20 0;
#X connect 39 0 7 0;
#X connect 40 0 12 0;
#X connect 41 0 11 0;
#X connect 41 0 11 1;
#X connect 44 0 33 0;
#X connect 45 0 34 0;
#X connect 46 0 43 0;
#X connect 46 1 42 0;
#X connect 48 0 47 0;
#X connect 48 1 49 0;
#X connect 50 0 7 0;
#X connect 51 0 8 0;
#X connect 52 0 8 0;
#X connect 53 0 54 0;
#X connect 54 0 9 2;
