#N canvas 0 49 1920 1009 12;
#X obj 0 130 cnv 15 400 60 empty empty empty 20 12 0 14 #f5f5f5 #404040
0;
#X obj -30 -30 preset_hub k12 1 %hidden%;
#X obj 0 290 cnv 15 400 170 empty empty empty 20 12 0 14 #f5f5f5 #404040
0;
#X obj 0 200 cnv 15 400 80 empty empty empty 20 12 0 14 #f5f5f5 #404040
0;
#X obj 0 30 cnv 15 400 90 empty empty empty 20 12 0 14 #f5f5f5 #404040
0;
#X obj 0 0 cnv 15 400 30 empty empty Voice-Allocator\ with\ Sustain\ Handling
10 12 0 14 #e0e0e0 #404040 0;
#X obj 0 280 cnv 15 400 15 empty empty Outlets 9 5 0 12 #e0e0e0 #404040
0;
#X obj 0 190 cnv 15 400 15 empty empty Inlets 10 6 0 12 #e0e0e0 #404040
0;
#X text 10 40 This is a small wrapper around [poly] to correctly handle
sustain pedal events. Pushing the sutain pedal down will hold all currently
and future playing notes until the pedal is released again., f 54
;
#X text 10 210 1 - Pitch, f 54;
#X text 10 230 2 - Velocity, f 54;
#X text 10 250 3 - Sustain Pedal (0 or 1), f 54;
#X obj 600 100 inlet;
#X obj 800 100 inlet;
#X obj 1000 100 inlet;
#X obj 600 740 outlet;
#X floatatom 600 129 5 0 0 1 Pitch - - 0 0 1, f 5;
#X floatatom 800 129 5 0 0 1 Velocity - - 0 0 1, f 5;
#X floatatom 1000 129 5 0 0 1 Sustain_Pedal - - 0 0 1, f 5;
#X text 10 300 1 - List with voice number \, pitch and velocity, f
54;
#X obj 600 180 poly \$1 \$2;
#X obj 0 120 cnv 15 400 15 empty empty Parameters 10 6 0 12 #e0e0e0
#404040 0;
#X text 10 330 Unlike [poly] the first voice number is zero \, making
it easier to use the voice allocator with [clone]., f 54;
#X text 10 140 \$1 - Maximum number of voices, f 54;
#X text 10 160 \$2 - Voice stealing on/off (0 or 1), f 54;
#X floatatom 600 260 5 0 0 1 Voice - - 0 0 1, f 5;
#X obj 600 288 s \$0-voice;
#X obj 690 288 s \$0-note;
#X obj 770 288 s \$0-velocity;
#X obj 600 230 - 1;
#X obj 1000 220 s \$0-sustain;
#X obj 1040 160 loadbang;
#X msg 1040 189 0;
#X text 600 70 --- Basic Voice Allocation with PD's [poly] ---;
#X obj 600 640 pack f f f;
#X text 1100 370 --- Sustain Pedal ---;
#X obj 1100 670 bag, f 25;
#X obj 1100 490 spigot;
#X obj 1140 430 r \$0-velocity;
#X obj 1100 400 r \$0-voice;
#X obj 1150 579 moses 1, f 18;
#X msg 1150 640 flush;
#X obj 640 430 r \$0-velocity;
#X obj 640 460 > 0;
#X obj 600 580 spigot;
#X obj 600 400 r \$0-voice;
#X obj 650 610 r \$0-note;
#X obj 730 610 r \$0-velocity;
#X msg 1100 700 \$1 0 0;
#X obj 640 550 ||;
#X obj 680 520 < 1;
#X text 600 370 --- Note On/Off ---;
#X text 740 430 (note on);
#X text 780 490 (or sustain pedal not pressed);
#X text 1240 430 (note off);
#X obj 680 490 r \$0-sustain;
#X obj 1150 550 r \$0-sustain;
#X text 1290 640 (1 = put voice number in bag \, 0 = release voices)
;
#X text 10 380 BEWARE: When the sustain pedal is released \, the pitch
will be lost. The held note-offs will report zero pitch. Usually this
means to you need a [moses 1] in your voice patch to keep the pitch
set during note-on., f 54;
#X obj 1140 460 < 0.0001;
#X obj 1150 610 trigger b b;
#X msg 1220 640 0;
#X connect 12 0 16 0;
#X connect 13 0 17 0;
#X connect 14 0 18 0;
#X connect 16 0 20 0;
#X connect 17 0 20 1;
#X connect 18 0 30 0;
#X connect 20 0 29 0;
#X connect 20 1 27 0;
#X connect 20 2 28 0;
#X connect 25 0 26 0;
#X connect 29 0 25 0;
#X connect 31 0 32 0;
#X connect 32 0 30 0;
#X connect 34 0 15 0;
#X connect 36 0 48 0;
#X connect 37 0 36 0;
#X connect 38 0 59 0;
#X connect 39 0 37 0;
#X connect 40 0 60 0;
#X connect 40 1 36 1;
#X connect 41 0 36 0;
#X connect 42 0 43 0;
#X connect 43 0 49 0;
#X connect 44 0 34 0;
#X connect 45 0 44 0;
#X connect 46 0 34 1;
#X connect 47 0 34 2;
#X connect 48 0 15 0;
#X connect 49 0 44 1;
#X connect 50 0 49 1;
#X connect 55 0 50 0;
#X connect 56 0 40 0;
#X connect 59 0 37 1;
#X connect 60 0 41 0;
#X connect 60 1 61 0;
#X connect 61 0 36 1;
