#N canvas 0 49 1920 1009 12;
#X obj -30 -30 preset_hub k12 1 %hidden%;
#X obj 0 0 cnv 15 500 30 empty empty Preset\ Value\ with\ Forwarding\ to\ Subprocesses
10 12 0 14 #e0e0e0 #404040 0;
#X obj 0 240 cnv 15 500 15 empty empty Arguments 10 5 0 12 #e0e0e0
#404040 0;
#X text 10 70 Additionaly to what [preset-value] does \, the value
will also be forwarded to the PD sub-processes listening to the receive
object given in the fist argument., f 68;
#X text 10 130 The following arguments are then those for [preset-value].
See its documentation for usage details., f 68;
#X text 10 40 Small wrapper around [preset-value] for usage with multi-processing.
, f 68;
#X text 10 290 \$2 - Name of the preset manager obejct, f 68;
#X text 10 310 \$3 - Type of the preset value: float \, symbol \, list
, f 68;
#X text 10 330 \$4 - Name of the preset parameter, f 68;
#X text 10 270 \$1 - Receive symbol to send messages to the [pd~] instances
, f 68;
#X obj 700 130 ./preset-value \$2 \$3 \$4;
#X obj 700 220 r \$4;
#X text 700 100 ---- Define preset parameter ----;
#X text 700 190 ---- Forward value changes to the sub-processes ----
;
#X obj 740 310 list prepend set;
#X obj 740 340 list trim 1;
#X msg 700 370 p-lfo1-p1-car-volume 0.2;
#X obj 700 399 s \$1;
#X obj 740 280 list prepend \$4;
#X text 1030 340 Resend \, when subprocess becomes available;
#X obj 700 250 trigger b a;
#X text 10 180 Once a sub-process has finished starting \, send a bang
to the global receive "pd-ready" to ask for all preset parameters to
be forwarded to the process., f 68;
#X obj 900 340 r pd-initialized;
#X connect 11 0 20 0;
#X connect 14 0 15 0;
#X connect 15 0 16 0;
#X connect 16 0 17 0;
#X connect 18 0 14 0;
#X connect 20 0 16 0;
#X connect 20 1 18 0;
#X connect 22 0 16 0;
